<?xml version="1.0" standalone="no"?>
<!DOCTYPE svg PUBLIC "-//W3C//DTD SVG 1.1//EN" "http://www.w3.org/Graphics/SVG/1.1/DTD/svg11.dtd" >
<svg xmlns="http://www.w3.org/2000/svg">
<metadata>Generated by IcoMoon</metadata>
<defs>
<font id="health-care-icon-set" horiz-adv-x="1024">
<font-face units-per-em="1024" ascent="960" descent="-64" />
<missing-glyph horiz-adv-x="1024" />
<glyph unicode="&#x20;" horiz-adv-x="512" d="" />
<glyph unicode="&#xe900;" glyph-name="alarm" d="M820.663-64h-617.326c-23.824 0-43.468 19.644-43.468 43.468v308.663c0 193.515 158.616 352.131 352.131 352.131s352.131-158.616 352.131-352.131v-308.663c0-23.824-19.435-43.468-43.468-43.468zM244.506 20.846h534.988v267.494c0 147.749-119.536 267.494-267.494 267.494s-267.494-119.536-267.494-267.494v-267.494zM231.549 666.593l-106.58 106.58c-17.345 17.345-17.345 43.468 0 60.813s43.468 17.345 60.813 0l106.58-106.58c17.345-17.345 17.345-43.468 0-60.813-8.568-8.777-31.138-24.66-60.813 0zM512 720.927c-23.824 0-43.468 19.644-43.468 43.468v152.137c0 23.824 19.644 43.468 43.468 43.468s43.468-19.644 43.468-43.468v-152.137c0-24.033-19.644-43.468-43.468-43.468zM731.638 666.593c-17.345 17.345-17.345 43.468 0 60.813l106.58 106.58c17.345 17.345 43.468 17.345 60.813 0s17.345-43.468 0-60.813l-106.58-106.58c-26.122-24.451-52.245-8.777-60.813 0z" />
<glyph unicode="&#xe901;" glyph-name="ambulance" d="M980.827 851.656h-676.965c-15.224 0-26.069-6.465-34.62-17.31l-260.483-342.862c-6.465-8.759-8.759-17.31-8.759-26.069v-256.104c0-23.775 19.604-43.379 43.379-43.379h83.839c18.978-70.074 83.004-121.587 159.126-121.587 76.956 0 141.399 52.555 159.752 123.672h131.806c18.353-71.117 82.796-123.672 159.752-123.672s141.399 52.555 159.752 123.672h81.127c23.775 0 43.379 19.604 45.465 41.294v598.966c0.209 23.775-19.187 43.379-43.171 43.379zM323.467 769.069h52.138v-251.724h-240.045l187.907 251.724zM286.553 131.312c-43.379 0-80.293 34.62-80.293 80.293 0 43.379 34.62 80.293 80.293 80.293 43.379 0 80.293-36.914 80.293-80.293s-34.62-80.293-80.293-80.293zM737.862 131.312c-43.379 0-80.293 34.62-80.293 80.293 0 43.379 34.62 80.293 80.293 80.293 43.379 0 80.293-36.914 80.293-80.293s-34.828-80.293-80.293-80.293zM937.448 254.985h-41.085c-19.813 69.031-83.213 119.293-158.501 119.293s-138.688-50.47-158.501-119.293h-134.308c-19.813 69.031-83.213 119.293-158.501 119.293-76.122 0-140.148-51.513-159.126-121.587h-40.459v177.896h329.723c23.775 0 43.379 17.31 45.465 45.465v293.018h475.085v-514.084h0.209zM672.794 545.708v-110.742h47.759v110.742h110.533v45.465h-110.533v110.742h-47.759v-110.742h-110.742v-45.465z" />
<glyph unicode="&#xe902;" glyph-name="ambulance-1" d="M1013.334 621.277l-250.616 285.523c-8.779 10.869-19.648 15.259-32.607 15.259h-686.425c-24.037 0-43.685-19.648-43.685-43.685v-684.335c0-24.037 19.648-43.685 43.685-43.685h56.018c-1.045-7.107-1.672-14.422-1.672-21.738 0-85.072 69.813-154.676 154.676-154.676s154.676 69.813 154.676 154.676c0 8.152-0.627 16.095-1.881 24.037h241.21c-1.254-7.734-1.881-15.886-1.881-24.037 0-85.072 69.813-154.676 154.676-154.676 85.072 0 154.676 69.813 154.676 154.676 0 8.152-0.627 16.095-1.881 24.037h28.009c24.037 0 43.685 19.648 43.685 41.386v398.812c0.209 10.869-4.18 19.648-10.66 28.427zM799.714 283.499c-41.595 0-79.428-16.722-107.228-43.685h-36.579v252.915h281.133v-252.706c0 0-26.964-0.209-29.263-0.627-28.009 27.173-66.26 44.103-108.064 44.103zM935.16 579.891h-279.252v255.006h54.554l224.698-255.006zM85.072 237.724v597.173h483.675v-594.874h-208.812c-27.8 26.964-65.633 43.685-107.228 43.685-43.058 0-82.354-17.976-110.572-46.821-2.926 0.418-57.063 0.836-57.063 0.836zM252.706 59.011c-39.296 0-69.813 30.517-69.813 69.813s30.517 69.813 69.813 69.813c36.997 0 69.813-30.517 69.813-69.813s-30.517-69.813-69.813-69.813zM799.714 59.011c-39.296 0-69.813 30.517-69.813 69.813s30.517 69.813 69.813 69.813 69.813-30.517 69.813-69.813-30.517-69.813-69.813-69.813zM296.392 514.468h58.735v76.293h74.202v52.255h-74.202v76.293h-58.735v-76.293h-74.202v-52.255h74.202z" />
<glyph unicode="&#xe903;" glyph-name="ambulance-2" d="M895.948 720.267c0 86.758-65.069 158.292-145.362 158.292h-195.207v36.914c0 23.775-19.604 43.379-43.379 43.379s-43.379-19.604-43.379-43.379v-36.914h-199.586c-80.293 0-145.362-71.534-145.362-158.292v-657.362c0-23.775 19.604-43.379 43.379-43.379h67.363v-39c0-23.775 19.604-43.379 43.379-43.379s43.379 19.604 43.379 43.379v39h381.862v-39c0-23.775 19.604-43.379 43.379-43.379s41.294 19.604 43.379 43.379v39h64.443c23.775 0 43.379 19.604 43.379 41.294l-1.668 659.448zM271.12 793.887h483.845c32.534 0 60.689-32.534 60.689-73.828v-297.189h-605.224v297.189c0 41.294 26.069 73.828 60.689 73.828zM815.655 103.99h-605.224v234.415h605.432v-234.415h-0.209zM43.379 770.112c-23.775 0-43.379-19.604-43.379-43.379v-71.534c0-23.775 19.604-43.379 43.379-43.379s43.379 17.31 43.379 43.379v71.534c0 23.775-19.604 43.379-43.379 43.379zM980.621 770.112c-23.775 0-43.379-19.604-43.379-43.379v-71.534c0-23.775 19.604-43.379 43.379-43.379 21.69 0 41.294 17.31 43.379 43.379v71.534c0 23.775-19.396 43.379-43.379 43.379zM327.638 177.818h19.604c23.775 0 43.379 19.604 43.379 43.379s-19.604 43.379-43.379 43.379h-19.604c-23.775 0-43.379-19.604-43.379-43.379 0-23.984 19.396-43.379 43.379-43.379zM679.052 177.818h19.604c21.69 0 43.379 19.604 43.379 43.379s-19.604 43.379-43.379 43.379h-19.604c-23.775 0-43.379-19.604-43.379-43.379 0-23.984 19.604-43.379 43.379-43.379z" />
<glyph unicode="&#xe904;" glyph-name="ambulance-3" d="M980.532 835.971h-523.912c-23.824 0-43.468-19.644-43.468-43.468v-117.447h-150.047c-12.957 0-23.824-6.478-32.601-15.256l-219.638-245.551c-6.478-8.777-10.867-17.345-10.867-28.212v-167.393c0-23.824 19.644-43.468 43.468-43.468h54.126c19.226-66.247 80.666-115.148 152.555-115.148 72.098 0 133.747 47.856 152.764 115.148l201.874-2.090c19.853-64.993 80.666-113.058 151.928-113.058 72.098 0 132.284 47.856 151.928 115.148h69.799c23.824 0 43.468 17.345 45.558 41.378v575.948c0 23.824-19.644 43.468-43.468 43.468zM249.94 142.367c-41.378 0-73.979 34.691-73.979 73.979 0 41.378 34.691 73.979 73.979 73.979 39.079 0 71.68-32.601 73.979-73.979 0-41.378-34.691-73.979-73.979-73.979zM410.854 262.113h-8.359c-19.226 66.247-80.666 115.148-152.555 115.148s-133.329-49.11-152.555-115.148h-12.748v106.58l195.605 219.638h130.403v-326.217h0.209zM756.506 142.367c-37.616 0-73.979 31.556-73.979 73.979 0 45.767 38.243 73.979 73.979 73.979 39.079 0 71.68-32.601 73.979-73.979 0-41.378-34.691-73.979-73.979-73.979zM937.064 262.113h-28.003c-19.226 66.247-80.666 115.148-152.555 115.148-72.725 0-134.792-50.155-153.182-117.447h-103.445l-2.090 489.221h439.066v-486.922h0.209zM638.433 537.548h55.38v-55.38c0-20.271 16.3-36.571 36.571-36.571s36.571 16.3 36.571 36.571v55.38h55.38c20.271 0 36.571 16.3 36.571 36.571s-16.3 36.571-36.571 36.571h-55.38v55.38c0 20.271-16.3 36.571-36.571 36.571s-36.571-16.3-36.571-36.571v-55.38h-55.38c-20.271 0-36.571-16.3-36.571-36.571s16.3-36.571 36.571-36.571z" />
<glyph unicode="&#xe905;" glyph-name="apple" d="M966.145 682.275c-36.923 58.619-91.161 95.542-151.866 108.476-71.552 12.934-147.485-8.761-216.951-62.999-23.781-17.314-54.238-28.162-84.694-28.162-32.543 0-60.705 10.848-84.694 28.162-69.466 54.238-145.399 75.933-216.951 62.999-62.999-10.848-114.943-49.857-151.866-108.476-60.913-93.247-76.142-234.266-39.218-375.493 54.238-214.865 206.104-369.026 360.264-369.026 12.934 0 46.937 4.381 56.324 8.761 47.771 12.934 97.628 12.934 145.399 0 7.51-4.381 43.39-8.761 56.324-8.761 154.161 0 306.027 154.161 366.731 369.026 34.837 141.227 21.904 279.951-38.801 375.493zM916.079 328.478c-43.39-171.475-164.8-306.027-277.656-306.027-8.761 0-22.947 1.46-34.629 4.381-32.543 8.761-100.549 23.99-190.875 0-12.099-4.381-26.076-4.381-34.629-4.381-110.77 0-234.474 134.552-277.865 306.027-30.665 119.532-19.818 234.474 27.953 310.407 17.314 28.162 47.771 62.999 95.542 71.552 45.476 10.848 97.628-6.467 147.485-45.476 39.010-28.162 86.781-45.476 136.638-45.476s99.923 15.228 136.638 45.476c47.771 39.010 102.009 54.238 147.485 45.476 47.771-10.848 78.228-45.476 95.542-71.552 47.98-75.933 58.827-190.875 28.371-310.407zM508.044 749.655c19.609 0 36.923 12.934 41.304 32.543 0 0 23.781 73.847 154.161 91.161 21.695 2.086 39.010 23.781 36.923 47.771-2.086 23.781-23.781 39.010-47.771 36.923-191.084-23.99-223.627-149.988-225.713-154.161-9.179-45.476 36.923-54.238 41.096-54.238z" />
<glyph unicode="&#xe906;" glyph-name="bag" d="M1023.346-10.442l-58.675 614.735c-2.088 21.716-21.716 39.047-43.432 39.047h-132.594v36.959c0 152.013-123.824 278.134-278.134 278.134-152.013 0-278.134-123.824-278.134-278.134v-36.959h-128c-23.804 0-41.344-17.331-43.432-39.047l-60.764-621.208c-2.923-36.959 30.486-45.52 43.432-45.52h938.39c50.532 2.923 41.344 49.697 41.344 51.994zM319.449 680.3c0 106.493 86.865 193.358 193.358 193.358s193.358-86.865 193.358-193.358v-36.959h-386.715v36.959zM91.429 22.132l52.202 536.641h89.162v-69.534c0-23.804 19.628-43.432 43.432-43.432s43.432 19.628 43.432 43.432v69.534h386.715v-69.534c0-23.804 19.628-43.432 43.432-43.432 21.716 0 41.344 19.628 39.047 43.432v69.534h93.338l52.202-536.641h-842.964zM641.016 302.354h-67.445c-17.331 0-30.486 12.946-30.486 30.486v65.149c0 17.331-12.946 30.486-30.486 30.486s-30.486-12.946-30.486-30.486v-65.149c0-17.331-12.946-30.486-30.486-30.486h-67.445c-17.331 0-30.486-12.946-30.486-30.486 0 0-1.462-31.53 30.486-32.574h67.863c17.331 0 30.486-12.946 30.486-30.486v-65.149c0-17.331 12.946-30.486 30.486-30.486s30.486 12.946 30.486 30.486v65.149c0 17.331 12.946 30.486 30.486 30.486h67.445c32.783 2.715 30.486 32.574 30.486 32.574-0.418 17.54-13.573 30.486-30.904 30.486z" />
<glyph unicode="&#xe907;" glyph-name="bandage" d="M271.285 271.449c0-25.201-20.43-45.631-45.631-45.631s-45.631 20.43-45.631 45.631c0 25.201 20.43 45.631 45.631 45.631s45.631-20.43 45.631-45.631zM375.735 376.108c0-25.201-20.43-45.631-45.631-45.631s-45.631 20.43-45.631 45.631c0 25.201 20.43 45.631 45.631 45.631s45.631-20.43 45.631-45.631zM382.433 160.511c0-25.201-20.43-45.631-45.631-45.631s-45.631 20.43-45.631 45.631c0 25.201 20.43 45.631 45.631 45.631s45.631-20.43 45.631-45.631zM486.882 264.961c0-25.201-20.43-45.631-45.631-45.631s-45.631 20.43-45.631 45.631c0 25.201 20.43 45.631 45.631 45.631s45.631-20.43 45.631-45.631zM630.683 630.847c0-25.201-20.43-45.631-45.631-45.631s-45.631 20.43-45.631 45.631c0 25.201 20.43 45.631 45.631 45.631s45.631-20.43 45.631-45.631zM735.132 735.296c0-25.201-20.43-45.631-45.631-45.631s-45.631 20.43-45.631 45.631c0 25.201 20.43 45.631 45.631 45.631s45.631-20.43 45.631-45.631zM741.621 519.699c0-25.201-20.43-45.631-45.631-45.631s-45.631 20.43-45.631 45.631c0 25.201 20.43 45.631 45.631 45.631s45.631-20.43 45.631-45.631zM846.070 624.358c0-25.201-20.43-45.631-45.631-45.631s-45.631 20.43-45.631 45.631c0 25.201 20.43 45.631 45.631 45.631s45.631-20.43 45.631-45.631zM983.382 696.154l-224.179 224.388c-24.071 26.165-112.403 73.889-191.525 0l-527.060-527.060c-52.329-54.422-52.329-141.498 0-193.828l226.481-224.388c87.704-74.936 165.57-23.862 191.525 0l524.758 527.060c52.329 54.422 52.329 141.498 0 193.828zM924.564 563.237l-526.851-526.851c-19.676-19.676-52.329-19.676-71.796 0l-224.388 224.179c-19.676 19.676-19.676 52.329 0 71.796l524.758 527.060c34.956 30.56 68.028 8.163 74.098 0l224.388-222.085c29.304-30.77 9.629-66.563-0.209-74.098z" />
<glyph unicode="&#xe908;" glyph-name="bandage-1" d="M557.751 571.23c0-25.918-21.010-46.928-46.928-46.928s-46.928 21.010-46.928 46.928c0 25.918 21.010 46.928 46.928 46.928s46.928-21.010 46.928-46.928zM683.727 445.254c0-25.918-21.010-46.928-46.928-46.928s-46.928 21.010-46.928 46.928c0 25.918 21.010 46.928 46.928 46.928s46.928-21.010 46.928-46.928zM562.131 323.449c0-25.918-21.010-46.928-46.928-46.928s-46.928 21.010-46.928 46.928c0 25.918 21.010 46.928 46.928 46.928s46.928-21.010 46.928-46.928zM436.78 448.8c0-25.918-21.010-46.928-46.928-46.928s-46.928 21.010-46.928 46.928c0 25.918 21.010 46.928 46.928 46.928s46.928-21.010 46.928-46.928zM923.999 860.516c-74.877 78.631-296.378 177.701-474.079 0l-350.189-352.274c-186.461-213.367-62.988-410.882 0-474.079 162.893-162.893 391.068-94.482 474.079 0l350.189 352.274c83.428 83.636 173.113 292.623 0 474.079zM863.097 445.254l-350.189-350.189c-45.677-47.762-195.847-139.325-352.274 0-97.819 97.819-97.819 256.541 0 354.36l352.274 350.189c148.502 138.699 308.475 51.1 350.189-2.086 130.982-131.19 64.239-288.035 0-352.274z" />
<glyph unicode="&#xe909;" glyph-name="bandage-2" d="M534.021 526.431c0-24.684-20.010-44.694-44.694-44.694s-44.694 20.010-44.694 44.694c0 24.684 20.010 44.694 44.694 44.694s44.694-20.010 44.694-44.694zM581.847 371.883c0-24.684-20.010-44.694-44.694-44.694s-44.694 20.010-44.694 44.694c0 24.684 20.010 44.694 44.694 44.694s44.694-20.010 44.694-44.694zM991.19 720.242l-206.76 206.76c-21.72 24.644-95.235 59.939-156.845 0l-594.591-594.382c-43.649-43.649-43.649-113.196 0-156.845l206.76-206.76c56.598-57.016 133.663-28.821 156.845 0l594.382 594.382c43.649 43.649 43.649 113.405 0.209 156.845zM337.912 29.998c-10.86-8.772-28.403-8.772-36.966 0l-206.76 206.76c-10.86 10.86-10.86 26.106 0 36.966l143.896 143.896 244.77-242.891-144.941-144.732zM542.584 234.67l-243.935 243.935 182.951 182.951 243.935-243.935-182.951-182.951zM930.206 622.292l-143.688-143.688-243.935 243.935 145.985 145.985c15.664 12.531 30.91 4.804 34.878-2.088l206.76-206.76c10.86-11.278 10.86-26.524 0-37.384z" />
<glyph unicode="&#xe90a;" glyph-name="blood" d="M551.139 380.553v154.882h-76.185v-154.882h-152.58l-2.093-71.79h154.673v-154.882h76.185v154.882h150.487l2.093 71.79zM512-64c-204.905 0-370.461 178.742-370.461 398.926 0 209.3 302.857 570.97 337.81 610.319 15.279 19.674 47.93 19.674 65.302 0 34.953-39.348 337.81-401.019 337.81-608.226 0-222.277-165.556-401.019-370.461-401.019zM512 851.478c-102.348-126.417-285.485-381.554-285.485-514.459 0-174.347 128.51-313.95 285.485-313.95s285.485 141.696 285.485 313.95c0 132.905-183.137 388.042-285.485 514.459z" />
<glyph unicode="&#xe90b;" glyph-name="blood-1" d="M512.105-64c-198.773 0-360.393 161.621-360.393 360.393 0 183.45 292.597 600.516 325.341 646.273 26.657 30.855 60.45 13.853 69.896 0 32.744-45.758 325.341-460.724 325.341-646.273 0.21-198.773-161.411-360.393-360.183-360.393zM512.105 844.435c-100.541-146.298-275.175-430.079-275.175-548.041 0-152.805 124.469-275.175 275.175-275.175s275.175 124.469 275.175 275.175c0 117.962-174.634 401.743-275.175 548.041zM622.301 322.631h-86.268v86.268c0 12.594-10.285 22.879-22.879 22.879h-2.099c-12.594 0-22.879-10.285-22.879-22.879v-86.268h-86.268c-12.594 0-22.879-10.285-22.879-22.879v0c0-12.594 10.285-22.879 22.879-22.879h86.268v-88.367c0-12.594 10.285-22.879 22.879-22.879h2.099c12.594 0 22.879 10.285 22.879 22.879v88.367h86.268c12.594 0 22.879 10.285 22.879 22.879v0c0.21 12.594-10.075 22.879-22.879 22.879z" />
<glyph unicode="&#xe90c;" glyph-name="blood-2" d="M543.591 946.933c-15.324 17.423-48.070 17.423-63.393 0-34.845-39.253-349.292-390.855-349.292-602.655 0-225.025 170.238-408.278 379.94-408.278s379.94 183.463 382.249 408.278c-0.21 211.801-314.655 563.402-349.502 602.655zM510.844 23.323c-161.632 0-294.716 144.209-294.716 323.263 0 135.393 189.97 386.447 294.716 508.825 104.746-122.378 294.716-373.432 294.716-508.825 0-179.264-130.985-323.263-294.716-323.263zM516.302 409.14c0 52.478-42.822 95.3-95.3 95.3h-71.37c-15.114 0-27.288-12.175-27.288-27.288v-272.465c0-15.114 12.175-27.288 27.288-27.288h71.37c52.478 0 95.3 42.822 95.3 95.3 0 26.659-11.125 50.799-28.758 68.221 17.633 17.213 28.758 41.562 28.758 68.221zM376.921 449.863h44.081c22.461 0 40.723-18.262 40.723-40.723s-18.262-40.723-40.723-40.723h-44.081v81.446zM421.002 232.185h-44.081v81.446h44.081c22.461 0 40.723-18.262 40.723-40.723s-18.262-40.723-40.723-40.723zM703.543 368.207h-45.131v45.131c0 15.114-12.175 27.288-27.288 27.288s-27.288-12.175-27.288-27.288v-45.131h-45.131c-15.114 0-27.288-12.175-27.288-27.288s12.175-27.288 27.288-27.288h45.131v-45.131c0-15.114 12.175-27.288 27.288-27.288s27.288 12.175 27.288 27.288v45.131h45.131c15.114 0 27.288 12.175 27.288 27.288s-12.175 27.288-27.288 27.288z" />
<glyph unicode="&#xe90d;" glyph-name="briefcase" d="M980.73 792.887h-254.38v45.567c0 63.125-52.255 115.171-115.171 115.171h-202.333c-63.125 0-115.171-52.255-115.171-115.171v-45.567h-250.199c-23.828 0-43.477-19.648-43.477-43.477v-719.871c0-23.828 19.648-43.477 43.477-43.477h60.825c0-23.828 19.648-43.686 43.477-43.686s43.477 19.857 43.477 43.686h639.398c0-23.828 19.648-43.686 43.477-43.686 21.738 0 41.386 19.857 43.477 43.686h60.825c23.828 0 43.477 19.648 45.567 41.386v721.961c0.209 23.828-19.439 43.477-43.268 43.477zM213.202 70.926h-128.339v637.099h128.339v-637.099zM380.629 838.454c0 17.349 12.959 30.517 30.517 28.218h202.333c15.259 0 28.218-12.959 28.218-28.218v-45.567h-261.068v45.567zM721.961 70.926h-421.806v637.099h421.806v-637.099zM937.254 70.926h-128.339v637.099h128.339v-637.099zM390.244 364.392h94.687v-94.687c0-13.795 11.287-25.083 25.083-25.083v0c13.795 0 25.083 11.287 25.083 25.083v94.687h94.687c13.795 0 25.083 11.287 25.083 25.083s-11.287 25.083-25.083 25.083h-94.687v94.687c0 13.795-11.287 25.083-25.083 25.083v0c-13.795 0-25.083-11.287-25.083-25.083v-94.687h-94.687c-13.795 0-25.083-11.287-25.083-25.083s11.287-25.083 25.083-25.083z" />
<glyph unicode="&#xe90e;" glyph-name="calendar" d="M869.564 887.066h-69.59v28.421c0 23.824-19.644 43.468-43.468 43.468s-43.468-19.644-43.468-43.468v-28.212h-404.376v28.212c0 23.824-19.644 43.468-43.468 43.468s-43.468-19.644-43.468-43.468v-28.212h-67.291c-84.846-0.209-154.436-69.59-154.436-154.436v-641.358c0-84.846 69.59-154.436 154.436-154.436h713.038c84.846 0 154.436 69.59 156.526 152.137v643.657c0 84.846-69.59 154.227-154.436 154.227zM937.064 91.481c0-36.989-30.511-67.5-67.5-67.5h-715.128c-36.989 0-67.5 30.511-67.5 67.5v643.448c0 36.989 30.511 67.5 67.5 67.5h67.5v-28.212c0-23.824 19.644-43.468 43.468-43.468s43.468 17.345 43.468 41.378v28.003h404.376v-26.122c0-23.824 19.644-43.468 43.468-43.468 21.734 0 41.378 17.345 43.468 41.378v28.212h69.59c36.989 0 67.5-30.511 67.5-67.5v-641.149h-0.209zM269.584 574.015h-52.245c-23.824 0-43.468-19.644-43.468-43.468s19.644-43.468 43.468-43.468h52.245c21.734 0 41.378 19.644 43.468 43.468 0 24.033-19.644 43.468-43.468 43.468zM806.661 574.015h-52.245c-23.824 0-43.468-19.644-43.468-43.468s19.644-43.468 43.468-43.468h52.245c21.734 0 41.378 19.644 43.468 43.468 0 24.033-19.644 43.468-43.468 43.468zM537.078 574.015h-52.245c-23.824 0-43.468-19.644-43.468-43.468s19.644-43.468 43.468-43.468h52.245c23.824 0 43.468 19.644 43.468 43.468 0 24.033-19.644 43.468-43.468 43.468zM269.584 393.665h-52.245c-23.824 0-43.468-19.644-43.468-43.468s19.644-43.468 43.468-43.468h52.245c21.734 0 41.378 17.345 43.468 43.468 0 23.824-19.644 43.468-43.468 43.468zM806.661 393.665h-52.245c-23.824 0-43.468-19.644-43.468-43.468s19.644-43.468 43.468-43.468h52.245c21.734 0 41.378 17.345 43.468 43.468 0 23.824-19.644 43.468-43.468 43.468zM537.078 393.665h-52.245c-23.824 0-43.468-19.644-43.468-43.468s19.644-43.468 43.468-43.468h52.245c23.824 0 43.468 17.345 43.468 43.468 0 23.824-19.644 43.468-43.468 43.468zM269.584 211.017h-52.245c-23.824 0-43.468-19.644-43.468-43.468s19.644-43.468 43.468-43.468h52.245c21.734 0 41.378 19.644 43.468 43.468 0 23.824-19.644 43.468-43.468 43.468zM806.661 211.017h-52.245c-23.824 0-43.468-19.644-43.468-43.468s19.644-43.468 43.468-43.468h52.245c21.734 0 41.378 19.644 43.468 43.468 0 23.824-19.644 43.468-43.468 43.468zM537.078 211.017h-52.245c-23.824 0-43.468-19.644-43.468-43.468s19.644-43.468 43.468-43.468h52.245c23.824 0 43.468 19.644 43.468 43.468s-19.644 43.468-43.468 43.468z" />
<glyph unicode="&#xe90f;" glyph-name="cardiogram" d="M942.329 861.961c-54.552 63.121-128.542 98.026-206.921 98.026s-152.578-34.905-206.921-98.026l-17.348-19.647-15.258 19.647c-54.552 63.121-128.542 98.026-206.921 98.026s-152.578-34.905-206.921-98.026c-109.313-126.452-109.313-328.984-0.418-455.436l394.405-453.137c14.631-18.811 30.516-17.348 34.905-17.348 13.168 0 24.036 4.389 32.606 15.258l398.794 455.436c108.895 126.243 108.895 328.775 0 455.227zM874.818 463.167l-363.889-418.441-301.395 346.541h120.391c15.258 0 28.426 6.479 36.995 19.647l43.683 69.81 21.737-132.931c5.852-38.667 46.401-45.147 73.99-21.737l100.326 100.326h69.81c24.036 0 43.683 19.647 43.683 43.683s-19.647 43.683-43.683 43.683h-89.248c-10.869 0-21.737-4.389-30.516-13.168l-54.552-54.761-28.426 165.537c-6.688 40.13-54.552 50.581-78.379 15.258l-89.248-148.189h-171.18c-70.437 96.354-66.466 240.154 12.123 328.984 36.995 43.683 89.248 67.511 141.71 67.511s102.416-24.036 139.411-67.511l45.774-52.253c18.393-21.946 49.954-21.946 67.511-4.389l50.163 56.642c36.995 43.683 89.248 67.511 141.71 67.511 52.253 0 102.416-24.036 141.71-67.511 82.56-95.936 82.56-250.605-0.209-344.242z" />
<glyph unicode="&#xe910;" glyph-name="cardiogram-1" d="M742.997 955.371c0 0-131.685 11.933-228.618-135.035-93.583 150.946-228.827 139.432-228.827 139.432-154.715 0-276.56-145.922-285.353-337.693-10.887-233.014 426.879-631.63 476.915-675.176 23.657-18.423 47.943-9.421 54.433-2.094 19.68 15.283 485.708 378.936 492.198 664.289 4.606 102.376-51.921 332.459-280.748 346.276zM87.291 617.679c6.49 143.828 93.583 257.090 200.355 257.090 82.696-2.094 156.808-69.716 185.071-174.185 6.49-17.377 21.773-30.566 41.453-30.566s37.056 12.98 41.453 30.566c28.263 100.282 104.469 167.695 187.374 167.695 139.222 0 201.611-163.508 195.958-257.090-2.303-37.894-13.818-79.346-34.125-122.055h-90.023l-50.036 198.261c-9.84 37.684-57.782 45.012-78.509 10.887l-174.185-309.22-76.206 250.391c-5.862 26.17-48.361 48.571-76.206 10.887l-104.469-158.902h-131.476c-24.495 47.524-38.312 90.861-36.428 126.242zM507.68 33.992c-89.395 82.487-236.573 232.386-331.203 370.352h102.376c12.98 0 26.17 8.793 34.753 19.68l67.622 102.376 78.509-257.090c9.63-30.357 53.177-45.64 78.509-8.793l169.788 302.73 32.66-128.545c4.396-19.68 21.773-32.66 41.453-32.66h72.437c-96.932-144.875-254.159-291.215-346.904-368.049z" />
<glyph unicode="&#xe911;" glyph-name="cardiogram-2" d="M980.332 958.746h-936.873c-23.819 0-43.459-19.64-43.459-43.459v-712.893c0-23.819 19.64-43.459 43.459-43.459h423.933v-134.764h-60.801c-23.819 0-43.459-19.64-43.459-43.459s19.64-43.459 43.459-43.459h208.728c23.819 0 43.459 19.64 43.459 43.459s-19.64 43.459-43.459 43.459h-60.801v134.764h423.933c23.819 0 43.459 17.342 45.548 41.37v714.982c-0.209 23.819-19.849 43.459-43.668 43.459zM936.873 243.555h-852.045v239.024h130.377c12.954 0 26.117 8.775 34.684 19.64l65.188 102.17 80.441-256.575c6.477-17.342 19.64-28.206 36.982-30.505 19.849-0.836 34.684 8.775 41.37 21.729l167.358 300.033 32.594-125.989c4.388-19.64 21.729-32.594 41.37-32.594h150.017c23.819 0 43.459 19.64 43.459 43.459s-19.64 43.459-43.459 43.459h-117.423l-49.936 197.863c-1.045 25.072-48.055 53.697-78.351 10.865l-171.746-306.511-76.053 247.799c-3.343 20.894-41.996 52.025-76.053 10.865l-104.26-158.583h-106.558v304.212h852.045v-630.363z" />
<glyph unicode="&#xe912;" glyph-name="cardiogram-3" d="M380.611 152.179v460.904l-117.416-160.795c-8.759-10.845-21.69-17.31-34.829-17.31h-184.779c-23.984 0-43.588 19.604-43.588 43.588s19.604 43.588 43.588 43.588h163.089l180.399 247.971c10.845 15.224 30.449 21.69 47.759 15.224s30.449-21.69 30.449-41.294v-426.076l134.726 245.677c23.149 35.037 55.475 21.898 67.363 8.759l82.587-80.502h230.452c23.984 0 43.588-19.604 43.588-43.588s-19.604-43.588-43.588-43.588h-247.554c-10.845 0-21.69 4.38-30.449 13.139l-52.138 54.433-187.073-341.403c-14.182-27.112-77.165-40.459-82.587 21.273z" />
<glyph unicode="&#xe913;" glyph-name="cardiogram-4" d="M864.818 960h-705.846c-87.131 0-158.972-71.841-158.972-158.972v-706.055c0-87.131 71.841-158.972 158.972-158.972h706.055c87.131 0 158.972 71.841 158.972 158.972v705.846c0 87.131-72.051 159.182-159.182 159.182zM938.963 94.972c0-41.471-32.674-74.145-74.145-74.145h-705.846c-41.471 0-74.145 32.674-74.145 74.145v309.357h152.479c12.986 0 26.181 6.493 34.769 17.384l117.711 156.878v-405.285c0-47.964 65.767-53.829 78.544-19.688l143.892 309.357 45.66-52.362c8.797-10.891 19.688-15.29 32.674-15.29h141.588c23.877 0 43.566 19.688 43.566 43.566s-19.688 43.566-43.566 43.566h-122.109l-76.24 87.131c-12.358 14.661-50.896 25.134-71.841-10.891l-89.435-191.647v340.146c2.304 29.323-41.471 67.233-76.24 26.181l-180.755-241.915h-130.697v309.357c0 41.471 32.674 74.145 74.145 74.145h706.055c41.471 0 74.145-32.674 74.145-74.145v-705.846h-0.209z" />
<glyph unicode="&#xe914;" glyph-name="cardiogram-5" d="M980.532 958.851h-937.064c-23.824 0-43.468-19.644-43.468-43.468v-771.762c0-23.824 19.644-43.468 43.468-43.468h424.020v-76.069h-89.234c-23.824 0-43.468-19.644-43.468-43.468s19.644-43.468 43.468-43.468h265.195c21.734 0 41.378 19.644 41.378 43.468s-19.644 43.468-43.468 43.468h-86.936v76.069h424.020c23.824 0 43.468 19.644 45.558 43.468v771.762c0 23.824-19.644 43.468-43.468 43.468zM937.064 874.005v-269.584h-145.659c-10.867 0-21.734-4.389-30.511-12.957l-54.335-58.723-23.824 54.335c-6.478 15.256-21.734 26.122-39.079 26.122h-117.447c-12.957 0-26.122-6.478-34.691-17.345l-23.824-34.691-47.856 123.925c-3.762 18.39-45.349 49.319-76.069 8.777l-76.278-119.954h-182.648v300.095h852.219zM84.846 184.79v302.184h206.472c12.957 0 26.122 6.478 34.691 19.644l43.468 67.5 45.558-121.835c6.478-12.957 19.644-23.824 34.691-26.122 15.256-2.090 30.511 4.389 39.079 17.345l58.723 80.457h67.5l39.079-89.234c21.107-42.423 58.723-23.615 69.59-10.867l84.846 93.414h128.313v-332.696l-852.010 0.209z" />
<glyph unicode="&#xe915;" glyph-name="cardiogram-6" d="M476.281-45.994l-394.168 452.864c-108.83 126.376-108.83 328.786 0 455.162 54.519 63.084 128.465 97.967 206.797 97.967s152.487-34.884 206.797-97.967l15.249-19.635 17.338 19.635c54.519 63.084 128.465 97.967 206.797 97.967s152.487-34.884 206.797-97.967c108.83-126.376 108.83-328.786 0-455.162l-398.136-455.162c-7.52-12.533-47.417-29.035-67.47 2.298zM288.91 875.192c-52.221 0-104.443-24.022-141.625-67.47-82.719-93.581-82.719-248.365 0-344.035l363.67-418.189 363.67 418.189c82.719 93.581 82.719 248.365 0 344.035-39.271 43.657-89.194 67.47-141.625 67.47s-104.443-24.022-141.625-67.47l-50.133-56.608c-7.311-8.773-38.853-28.617-67.47 4.387l-45.746 52.221c-36.764 43.448-86.688 67.47-139.118 67.47z" />
<glyph unicode="&#xe916;" glyph-name="cardiology" d="M1010.749 119.164l-102.383 102.383c31.615 43.34 50.040 96.939 50.040 154.725 0 33.081-6.072 64.696-17.378 94.008 60.718 126.251 45.434 287.258-41.456 391.734-52.343 63.23-122.064 97.986-198.275 97.986-137.766 0-213.559-115.364-213.559-115.364s-73.908 115.364-211.256 115.364c-76.211 0-145.932-34.756-198.275-97.986-104.267-124.157-104.267-328.922 0.419-453.080l372.472-453.080c29.521-36.64 63.23-12.981 71.814-4.397l135.673 163.728c11.934-1.675 24.078-2.512 36.431-2.512 56.74 0 109.083 17.797 152.004 48.365l102.801-102.801c26.381-24.496 52.343-8.794 60.927 0 17.587 17.378 17.587 43.549 0 60.927zM488.158 45.047l-344.207 416.021c-78.514 93.589-78.514 248.314 0 344.207 37.059 43.549 82.702 67.627 132.951 67.627 102.173 0 176.5-119.76 176.5-119.76 27.428-33.918 58.833-17.378 69.721-4.397 0 0 73.28 124.157 178.594 124.157 50.040 0 95.892-23.868 132.951-67.627 54.018-64.696 72.233-160.588 50.040-245.802-47.946 49.621-115.154 80.399-189.481 80.399-145.513 0-263.599-118.085-263.599-263.599 0-100.289 56.112-187.597 138.604-232.193l-82.074-99.033zM516.423 376.272c0 98.614 79.98 178.594 178.594 178.594s178.594-79.98 178.594-178.594-79.98-178.594-178.594-178.594-178.594 79.98-178.594 178.594z" />
<glyph unicode="&#xe917;" glyph-name="cells" d="M1002.222 821.463l-235.373 132.764c-12.983 6.492-28.27 6.492-41.463 0l-213.386-120.409-213.595 120.409c-12.983 6.492-28.27 6.492-41.463 0l-235.164-132.764c-12.983-6.492-21.778-21.778-21.778-37.065v-268.041c0-15.287 8.795-30.573 21.778-37.065l211.292-120.409v-245.425c0-15.287 8.795-30.573 21.778-37.065l235.373-132.973c19.684-12.146 37.065-4.398 43.557 0l233.070 132.973c12.983 6.492 21.778 21.778 21.778 37.065v245.425l213.595 120.618c12.983 6.492 21.778 21.778 21.778 37.065v268.041c0 15.077-8.795 30.364-21.778 36.856zM85.019 760.525l191.607 108.892 191.607-108.892v-217.783l-191.607-108.892-191.607 108.892c0 0 0 217.783 0 217.783zM703.607 137.33l-191.607-108.892-191.607 108.892v217.783l191.607 108.892 191.607-108.892v-217.783zM938.981 542.533l-191.607-108.892-191.607 108.892v217.783l191.607 108.892 191.607-108.892v-217.783z" />
<glyph unicode="&#xe918;" glyph-name="clock" d="M512 960c-283.118 0-512-228.882-512-512s228.882-512 512-512 512 228.672 512 512-228.672 512-512 512zM555.557 23.113v21.778c0 23.872-19.684 43.557-43.557 43.557s-43.557-19.684-43.557-43.557v-21.778c-200.612 20.522-360.808 180.718-381.121 381.121h19.475c23.872 0 43.557 19.684 43.557 43.557s-19.684 43.557-43.557 43.557h-19.475c20.522 200.612 180.718 360.808 381.121 381.121v-19.265c0-23.872 19.684-43.557 43.557-43.557s43.557 19.684 43.557 43.557v19.475c200.612-20.522 360.808-180.718 381.121-381.121h-21.569c-23.872 0-43.557-19.684-43.557-43.557s19.684-43.557 43.557-43.557h21.778c-20.522-200.612-180.718-360.808-381.33-381.33zM512 698.451c-23.872 0-43.557-19.684-43.557-43.557v-191.607l-198.308-244.169c-15.287-19.684-10.889-45.651 6.492-60.937 24.291-17.8 50.048-4.398 58.843 6.492l211.501 257.152c4.398 6.492 8.795 15.287 8.795 26.176v206.894c-0.209 24.082-19.684 43.557-43.766 43.557z" />
<glyph unicode="&#xe919;" glyph-name="clock-1" d="M1024 448c0 283.118-228.672 512-512 512s-512-228.882-512-512 228.882-512 512-512c59.89 0 117.477 10.47 171.085 29.317 33.086-18.637 71.408-29.317 112.242-29.317 126.272 0 228.672 104.494 228.672 230.976 0 39.787-10.261 77.271-28.061 109.939 17.171 56.33 28.061 112.661 28.061 171.085zM736.484 289.060c17.8 8.376 37.693 12.983 58.843 12.983 74.13 0 135.067-60.937 137.162-137.162 0-21.15-4.607-41.044-12.983-58.843l-183.022 183.022zM93.814 448c0 230.976 187.419 418.186 420.489 416.092 230.976 0 418.186-187.419 418.186-418.186 0-30.364-3.56-59.681-9.842-88.789-36.437 24.501-80.203 38.74-127.319 38.74-128.576-0.209-228.882-104.703-228.882-230.976 0-46.279 13.821-89.207 37.274-125.225-29.736-6.282-60.309-9.842-91.72-9.842-230.976 0-418.186 187.21-418.186 418.186zM657.957 164.882c0 21.15 4.607 41.044 12.983 58.843l183.022-183.022c-17.8-8.376-37.693-12.983-58.843-12.983-76.224-0.209-137.162 60.728-137.162 137.162zM555.557 674.578c0 23.872-19.684 45.651-45.651 45.651-23.872 0-45.651-19.684-45.651-45.651v-180.718h-244.169c-23.872 0-45.651-21.778-45.651-45.651s19.684-45.651 45.651-45.651h291.913c26.176 0 45.651 19.684 43.557 45.651v226.369z" />
<glyph unicode="&#xe91a;" glyph-name="comb" d="M1004.977 12.373l-433.836 305.106 172.615 245.548c12.957 19.644 8.777 45.766-10.867 58.723s-45.766 8.777-58.723-10.867l-172.197-244.921-87.979 61.857 173.033 246.175c12.957 19.644 8.777 45.766-10.867 58.723s-45.766 8.777-58.723-10.867l-172.615-245.548-86.934 61.021 172.406 245.339c12.957 19.644 8.777 45.766-10.867 58.723s-45.766 8.777-58.723-10.867l-171.988-244.503-86.516 60.812 173.66 247.011c12.957 19.644 8.777 45.766-10.867 58.723s-45.766 8.777-58.723-10.867c0 0-196.647-278.566-198.11-280.656-12.957-19.644-8.777-45.766 10.867-58.723l938.098-657.442c24.868-19.644 52.244-2.090 58.723 8.777 12.957 19.435 8.777 45.557-10.867 58.723z" />
<glyph unicode="&#xe91b;" glyph-name="contract" d="M1011.796 696.357l-161.243 178.624c-8.376 9.842-35.599 23.872-60.937 0l-63.241-63.45v104.913c0 23.872-19.684 43.557-43.557 43.557h-394.313c-12.983 0-21.778-4.398-30.573-10.889l-243.959-235.373c-8.795-8.795-12.983-19.684-12.983-30.573v-703.607c0-23.872 19.684-43.557 43.557-43.557h638.272c23.872 0 41.463 19.684 43.557 43.557 0 0-0.209 368.975-0.628 371.488l283.956 286.469c17.381 15.287 17.381 41.463 2.094 58.843zM244.948 818.441v-119.99h-125.016l125.016 119.99zM639.261 21.019h-553.463v590.318h200.402c23.872 0 43.557 19.684 45.651 41.463v222.181h307.2v-150.982l-337.773-339.239c-6.492-6.492-10.889-15.287-12.983-23.872l-30.573-200.402c-5.235-36.437 30.364-49.001 41.463-47.954 2.094 0.209 196.005 19.684 196.005 19.684 10.889 2.094 19.684 6.492 26.176 12.983l117.687 118.734v-242.912h0.209zM471.526 217.024l-122.084-12.983 19.684 130.67 450.853 448.759 104.494-115.383-452.947-451.063z" />
<glyph unicode="&#xe91c;" glyph-name="cream" d="M1005.987 630.88l-310.469 310.469c-24.124 24.124-65.66 21.817-87.477-4.405l-461.508-560.313c-1.678-1.049-122.509-121.88-122.509-121.88-43.424-44.682-18.251-97.126 0-113.699l181.457-179.359c46.361-44.053 99.854-16.572 111.601 0l109.084 109.084c2.517 1.259 575.626 474.934 575.626 474.934 14.265 8.391 39.648 42.794 4.196 85.169zM262.329 25.046l-172.856 172.856 83.071 83.071 172.856-172.856-83.071-83.071zM408.963 167.274l-177.051 177.051 422.070 513.952 268.933-266.626-513.952-424.377z" />
<glyph unicode="&#xe91d;" glyph-name="crutches" d="M947.545 74.349l-116.367 116.367c0 0-101.116 195.755-106.965 207.037 78.135 57.452 152.718 120.127 223.123 187.816 0 0 23.817-30.084 62.257-3.552 17.34 17.34 17.34 43.455 0 60.795l-300.005 304.183c-17.34 17.34-43.455 17.34-60.795 0-30.711-30.711 2.298-63.093 2.298-63.093-49.304-50.558-95.684-103.623-139.348-158.777-43.246 54.109-89.625 106.548-137.258 156.27 0 0 34.262 30.92 2.507 63.302-17.131 17.549-43.455 17.34-60.795 0l-302.094-299.796c-15.251-15.251-19.22-45.544 0-60.795 38.65-30.711 61.839 3.134 61.839 3.134 69.151-68.107 144.153-131.2 222.288-188.443-5.641-10.655-108.010-210.17-108.010-210.17l-114.278-114.278c0 0-26.741 30.92-61.839 1.045-18.803-15.878-14.624-46.171 0-60.795l65.182-65.391c27.368-24.443 52.856-9.192 60.795 0 31.338 35.725-3.343 64.137-3.343 64.137l107.592 107.592c0 0 241.299 124.097 268.040 139.348 1.254-0.836 266.787-139.348 266.787-139.348l107.592-107.592c0 0-35.307-31.964-3.343-64.137 23.817-23.817 52.229-8.775 60.795 0l65.182 65.182c17.34 17.34 18.594 44.708 0 60.795-34.053 29.875-61.839-0.836-61.839-0.836zM137.992 646.99l176.744 175.49c50.767-52.856 99.653-107.592 144.779-166.089-42.41-58.288-81.687-118.665-118.247-181.131-71.032 52.438-139.974 110.308-203.276 171.73zM322.674 257.987c0 0 247.567 417.207 388.794 564.911l175.281-176.744c-147.495-141.019-564.076-388.168-564.076-388.168zM597.4 311.261c18.594 11.699 36.769 23.608 54.945 35.934 3.552-7.312 48.26-91.297 48.26-91.297s-91.923 49.095-103.205 55.363z" />
<glyph unicode="&#xe91e;" glyph-name="crutches-1" d="M469.694 303.386c0 73.979-36.989 143.569-100.101 184.738-4.389 4.389-8.777 10.867-8.777 17.345l-21.525 413.153c-2.299 24.033-21.734 41.378-43.468 41.378h-119.745c-23.824 0-41.169-19.644-43.468-41.378l-21.734-415.242c0-6.478-4.389-12.957-8.777-17.345-63.112-41.378-100.101-110.968-100.101-184.738v-321.829c0-23.824 19.644-43.468 43.468-43.468h382.642c23.824 0 43.468 19.644 41.378 45.558v321.829h0.209zM152.254 416.444c26.122 17.345 43.468 47.856 45.558 82.547l19.644 373.864h39.079l17.345-373.864c2.090-32.601 19.644-65.202 47.856-82.547 39.079-28.212 63.112-69.59 63.112-115.148v-32.601h-295.706v32.601c0 45.558 24.033 89.025 63.112 115.148zM89.142 20.846v160.914h295.706v-160.914h-295.706zM1021.818-20.532v321.829c0 73.979-36.989 143.569-100.101 184.738-4.389 4.389-8.777 10.867-8.777 17.345l-21.525 413.153c-2.090 23.824-21.734 41.378-43.468 41.378h-119.536c-23.824 0-41.378-19.644-43.468-41.378l-21.734-413.153c0-6.478-4.389-12.957-8.777-17.345-63.112-41.378-100.101-110.968-100.101-184.738v-321.829c0-23.824 19.644-43.468 43.468-43.468h382.642c24.033 0 43.677 19.644 41.378 43.468zM704.378 416.444c26.122 17.345 43.468 47.856 45.558 82.547l19.644 373.864h39.079l19.644-373.864c2.090-32.601 19.644-65.202 47.856-82.547 39.079-28.212 63.112-69.59 63.112-115.148v-32.601h-297.796v32.601c0 45.558 23.824 89.025 62.903 115.148zM641.475 20.846v160.914h297.796v-160.914h-297.796z" />
<glyph unicode="&#xe91f;" glyph-name="dna" d="M1011.016 635.714c-17.312 17.312-43.384 17.312-60.695 0l-156.223-156.223c-67.37-69.456-180-69.456-249.456 0-69.456 67.37-69.456 180 0 249.456l156.223 156.223c17.312 17.312 17.312 43.384 0 60.695s-43.384 17.312-60.695 0l-156.223-156.223c-65.701-65.701-89.062-158.517-70.081-243.616-19.606 4.589-143.291 32.538-244.659-68.83l-156.223-156.223c-17.312-17.312-17.312-43.384 0-60.695s43.384-17.312 60.695 0l156.223 156.223c97.613 89.896 213.581 43.175 251.75 0 64.033-72.584 69.456-180 0-249.456l-156.223-156.223c-17.312-17.312-17.729-43.801 0-60.695 25.238-24.195 52.144-8.76 56.315 0l156.223 156.223c65.701 65.701 89.062 158.517 70.081 243.616 19.815-4.589 145.377-32.329 246.744 69.038l156.223 156.223c17.312 17.103 17.312 43.175 0 60.487zM448.906 221.275c17.312 17.312 17.312 43.384 0 60.695l-104.079 104.079c-17.312 17.312-43.384 17.312-60.695 0s-17.312-43.384 0-60.695l104.079-104.079c25.655-23.152 52.144-10.846 60.695 0zM336.067 164.751l-104.079 104.079c-17.312 17.312-43.384 17.312-60.695 0s-17.312-43.384 0-60.695l101.993-101.993c8.76-8.76 29.409-22.735 62.99-2.086 17.312 17.312 17.312 43.384-0.209 60.695zM689.81 728.947l104.079-104.079c26.906-24.612 52.144-8.76 60.695 0 17.312 17.312 17.312 43.384 0 60.695l-104.079 104.079c-17.312 17.312-43.384 17.312-60.695 0s-17.312-43.384 0-60.695zM574.885 676.803c-17.312-17.312-17.312-43.384 0-60.695l104.079-104.079c25.863-23.986 52.144-8.76 60.695 0 17.312 17.312 17.312 43.384 0 60.695l-104.079 104.079c-17.312 17.52-43.384 17.52-60.695 0z" />
<glyph unicode="&#xe920;" glyph-name="dropper" d="M581.793 458.811l426.57 426.779c16.302 16.302 17.556 43.054 1.881 59.983-17.347 18.81-44.308 19.228-62.282 1.254l-427.197-426.988-109.725 109.725c-30.514 30.514-80.465 30.514-110.979 0l-41.173-41.382c-36.993-34.694-36.993-93.423 0-130.416 2.299-1.672 2.090-6.479 0-8.778l-204.402-204.402c-98.23-114.114-34.694-221.75 0-256.653 117.667-98.439 221.75-32.604 256.653 0l204.402 204.402c2.926 2.926 7.942 3.135 10.868 0 21.318-22.781 84.227-46.398 130.416 0l41.382 41.382c32.604 32.604 25.498 83.391 0 108.68l-116.413 116.413zM593.706 255.662c-2.926-2.926-7.942-3.135-10.868 0-17.347 17.347-41.382 26.125-65.208 26.125s-47.861-8.778-65.208-26.125l-204.402-204.402c-58.729-53.713-117.458-17.347-134.805 0s-53.295 73.15 0 134.805l204.402 202.312c17.347 17.347 26.125 41.382 26.125 65.208s-8.778 47.861-26.125 65.208c-2.090 4.389-2.090 8.778 0 10.868l36.993 36.993 276.090-274-36.993-36.993zM971.787 676.798c-21.318-3.135-36.784-22.363-36.784-43.89v-126.654c0-22.99 18.81-43.472 41.591-44.308 24.662-0.836 45.353 16.72 45.353 43.472v128.326c0 26.334-23.199 47.234-50.16 43.054zM971.787 250.646c-21.318-3.135-36.784-22.363-36.784-43.89v-126.445c0-22.99 18.81-43.472 41.591-44.308 24.662-0.836 45.353 16.72 45.353 41.382v130.416c0 26.125-23.199 47.025-50.16 42.845z" />
<glyph unicode="&#xe921;" glyph-name="dropper-1" d="M469.366 857.344l-42.28-42.28-83.929 83.929c-78.46 78.46-206.141 78.46-284.39 0s-78.46-206.141 0-284.39l83.929-83.929-41.018-41.018c-17.459-17.459-17.459-43.752 0-61.211l135.674-135.674c25.242-24.611 52.587-8.835 61.211-2.103l39.125 39.335 271.559-273.452c45.856-45.856 104.964-76.567 170.592-87.505l190.365-30.711c21.666-2.103 61.211 14.724 52.587 56.794l-30.711 183.844c-10.938 65.628-41.649 124.736-87.505 170.592l-274.293 274.714 35.969 36.18c17.459 17.459 17.459 43.752 0 61.211l-135.674 135.674c-17.459 15.355-45.856 15.355-61.211 0zM119.768 675.604c-44.804 44.804-44.804 117.795 0 162.599s117.795 44.804 162.599 0l83.929-83.929-162.599-162.599-83.929 83.929zM902.682 161.514l21.876-131.257-131.257 21.876c-45.856 8.835-89.818 30.711-122.633 63.525l-273.452 273.452 171.013 172.485 271.138-277.659c34.918-32.814 56.794-74.253 63.315-122.422zM578.746 690.959l-308.58-308.58-76.567 76.567 308.58 308.58 76.567-76.567z" />
<glyph unicode="&#xe922;" glyph-name="dumbbell" d="M980.132 490.301h-5.431v143.51c0 54.313-45.539 100.060-100.060 100.060h-36.974c-54.313 0-100.060-45.539-100.060-100.060v-143.51h-451.838v143.51c0 54.313-45.539 100.060-100.060 100.060h-36.765c-54.313 0-100.060-45.539-100.060-100.060v-143.51h-5.431c-23.814 0-43.45-19.636-43.45-43.45s19.636-43.45 43.45-43.45h5.431v-141.213c0-54.313 45.539-100.060 100.060-100.060h36.974c54.313 0 100.060 43.45 100.060 100.060v141.213h452.047v-141.213c0-54.313 45.539-100.060 100.060-100.060h36.974c54.313 0 100.060 43.45 100.060 100.060v141.213h5.431c23.814 0 43.45 19.636 43.45 43.45s-20.054 43.45-43.868 43.45zM200.956 259.891c0-8.774-6.476-15.249-15.249-15.249h-36.765c-8.774 0-15.249 6.476-15.249 15.249v371.623c0 8.774 6.476 15.249 15.249 15.249v2.089h36.974c8.774 0 15.249-6.476 15.249-15.249v-373.712h-0.209zM889.89 259.891c0-8.774-6.476-15.249-15.249-15.249h-36.974c-8.774 0-15.249 6.476-15.249 15.249v371.623c0 8.774 6.476 15.249 15.249 15.249v2.089h36.974c8.774 0 15.249-6.476 15.249-15.249v-373.712z" />
<glyph unicode="&#xe923;" glyph-name="dumbbells" d="M43.841 577.435c21.712 0 41.336 17.328 43.632 41.336v97.912h60.96v-95.824c0-24.008 19.624-43.632 43.632-43.632s41.336 17.328 43.632 41.336v97.912h552.814v-95.824c0-24.008 19.624-43.632 43.632-43.632s43.632 17.328 43.632 41.336v97.912h60.96v-95.824c0-24.008 19.624-43.632 43.632-43.632s43.632 17.328 43.632 41.336v296.657c0 24.008-19.624 43.632-43.632 43.632s-43.632-19.624-43.632-43.632v-111.064h-61.586v111.064c0 24.008-19.624 43.632-43.632 43.632s-43.632-19.624-43.632-43.632v-111.064h-552.605v111.064c0 24.008-19.624 43.632-43.632 43.632s-43.632-19.624-43.632-43.632v-111.064h-60.751v111.064c0 24.008-19.624 43.632-43.632 43.632s-43.632-19.624-43.632-43.632v-293.735c0.209-24.008 19.833-43.632 43.841-43.632zM1023.165 274.933c0 24.008-19.624 43.632-43.632 43.632s-43.632-19.624-43.632-43.632v-111.064h-60.751v111.064c0 24.008-19.624 43.632-43.632 43.632s-43.632-19.624-43.632-43.632v-111.064h-552.605v111.064c0 24.008-19.624 43.632-43.632 43.632s-43.632-19.624-43.632-43.632v-111.064h-60.751v111.064c0 24.008-19.624 43.632-43.632 43.632s-43.632-19.624-43.632-43.632v-293.735c0-24.008 19.624-43.632 43.632-43.632 21.712 0 41.336 19.624 43.632 43.632v95.824h60.96v-95.824c0-24.008 19.624-43.632 43.632-43.632s41.336 19.624 43.632 43.632v95.824h552.814v-95.824c0-24.008 19.624-43.632 43.632-43.632s43.632 19.624 43.632 43.632v95.824h60.96v-95.824c0-24.008 19.624-43.632 43.632-43.632s43.632 19.624 43.632 43.632v293.735h-0.626z" />
<glyph unicode="&#xe924;" glyph-name="dumbbells-1" d="M1010.976 786.073l-160.918 160.918c-17.346 17.346-43.469 17.346-60.814 0s-17.346-43.469 0-60.814l58.516-58.516-62.068-62.068-98.641 98.641c-17.346 17.346-43.469 17.346-60.814 0s-17.346-43.469 0-60.814l98.432-98.432-471.051-468.334-97.178 97.178c-17.346 17.346-43.469 17.346-60.814 0s-17.346-43.469 0-60.814l96.969-96.969-62.068-61.859-56.635 56.635c-17.346 17.346-43.469 17.346-60.814 0s-17.346-43.469 0-60.814l160.918-160.918c28.213-24.451 52.246-8.777 60.814 0 17.346 17.346 17.346 43.469 0 60.814l-43.469 43.469 62.068 61.859 85.684-85.684c28.422-24.242 52.246-8.777 60.814 0 17.346 17.346 17.346 43.469 0 60.814l-85.475 85.475 470.842 468.334 84.221-84.221c28.004-23.615 52.246-8.777 60.814 0 17.346 17.346 17.346 43.469 0 60.814l-84.012 84.012 62.068 61.859 41.379-41.379c27.168-25.078 52.246-8.777 60.814 0 17.764 17.346 17.764 43.469 0.418 60.814z" />
<glyph unicode="&#xe925;" glyph-name="dumbbells-2" d="M1011.041 171.554c-17.312 17.312-43.385 17.312-60.697 0l-43.385-43.385-61.74 61.74 83.641 83.641c17.312 17.312 17.312 43.385 0 60.697s-43.385 17.312-60.697 0l-83.641-83.641-197.317 197.317 196.9 195.857 84.058-84.058c27.115-24.195 52.145-8.76 60.697 0 17.312 17.312 17.312 43.385 0 60.697l-83.849 83.849 61.948 61.74 41.299-41.299c26.49-24.612 52.145-8.76 60.697 0 17.312 17.312 17.312 43.385 0 60.697l-160.607 160.607c-17.312 17.312-43.385 17.312-60.697 0s-17.312-43.385 0-60.697l58.402-58.402-62.157-61.74-98.45 98.45c-17.312 17.312-43.385 17.312-60.697 0s-17.312-43.385 0-60.697l98.241-98.241-196.9-195.857-210.666 210.666 83.641 83.641c17.312 17.312 17.312 43.385 0 60.697s-43.385 17.312-60.697 0l-83.641-83.641-61.74 61.74 43.385 43.385c17.312 17.312 17.312 43.385 0 60.697s-43.385 17.312-60.697 0l-160.607-160.607c-17.312-17.312-17.312-43.385 0-60.697 8.76-8.76 32.121-25.030 60.697 0l56.317 56.317 61.74-61.74-98.658-98.658c-17.312-17.312-17.312-43.385 0-60.697 23.987-23.987 52.354-10.22 60.697 0l98.658 98.658 210.666-210.458-212.126-210.875-96.99 96.99c-17.312 17.312-43.385 17.312-60.697 0s-17.312-43.385 0-60.697l96.781-96.781-61.948-61.74-56.525 56.525c-17.312 17.312-43.385 17.312-60.697 0s-17.312-43.385 0-60.697l160.607-160.607c28.158-24.821 52.145-8.76 60.697 0 17.312 17.312 17.312 43.385 0 60.697l-43.385 43.385 61.948 61.74 85.518-85.518c26.698-23.987 52.145-8.76 60.697 0 17.312 17.312 17.312 43.385 0 60.697l-85.309 85.309 212.126 210.875 197.526-197.526-98.658-98.658c-17.312-17.312-17.729-43.593 0-60.697 25.030-24.404 52.145-8.76 60.697 0l98.658 98.658 61.74-61.74-56.317-56.317c-17.312-17.312-17.312-43.385 0-60.697 23.987-23.987 52.771-9.595 60.697 0l160.607 160.607c17.521 16.895 17.521 42.968 0.209 60.488z" />
<glyph unicode="&#xe926;" glyph-name="ear" d="M980.323 744.333c-10.867 19.644-34.9 28.421-56.633 17.345-19.644-10.867-28.421-34.9-17.345-56.633 24.033-45.767 34.9-91.533 34.9-141.688s-13.166-98.011-34.9-141.688c-10.867-19.644-4.389-45.767 17.345-56.633 31.974-12.121 50.155 4.389 56.633 21.734 28.421 54.544 43.677 115.566 43.677 178.678 0 61.231-15.256 122.253-43.677 178.887zM594.756 565.656c0 89.234-73.979 163.422-163.422 163.422s-163.422-73.979-163.422-163.422 73.979-163.422 163.422-163.422c91.533 0 163.422 71.889 163.422 163.422zM352.967 563.566c0 43.677 34.9 78.367 78.367 78.367s78.367-34.9 78.367-78.367c0-43.677-34.9-78.367-78.367-78.367s-78.367 34.691-78.367 78.367zM438.021 960c-220.056 0-396.643-178.678-396.643-396.434 0-63.112 15.256-124.134 43.677-180.767 10.867-19.644 34.9-28.421 56.633-17.345 19.644 10.867 28.421 34.9 17.345 56.633-24.033 45.767-34.9 91.533-34.9 141.688 0 169.9 137.3 309.29 309.29 309.29 169.9 0 309.29-137.3 309.29-309.29 0-156.944-117.656-287.556-272.3-307.2-12.539-3.135-48.065-17.972-30.511-63.112-2.090-95.922-80.666-172.199-176.379-172.199-98.011 0-176.379 80.666-176.379 176.379 0 24.033-19.644 43.677-43.677 43.677s-43.468-19.853-43.468-43.886c0-143.778 117.656-261.433 261.433-261.433 137.3 0 250.567 106.789 265.822 241.789 178.678 41.378 307.2 200.411 307.2 385.567 0 220.264-178.678 396.643-396.434 396.643z" />
<glyph unicode="&#xe927;" glyph-name="fire-extinguisher" d="M923.693-20.642v579.756c0 97.813-68.28 180.964-161.276 201.909v59.484h69.747c23.877 0 43.565 19.688 43.565 43.565s-19.688 43.565-43.565 43.565h-69.747v8.797c0 23.877-19.688 43.565-43.565 43.565s-43.565-19.688-43.565-43.565v-6.493c0 0-139.493 0-148.081 0-104.515 2.094-302.864 4.398-322.552-235.421v-439.844c-60.95-18.222-104.515-74.145-104.515-141.797 0-82.732 67.652-148.081 148.081-148.081 82.732 0 148.081 65.348 148.081 148.081 0 68.28-44.613 124.832-106.819 142.426v432.722c10.891 145.986 104.725 156.878 235.421 154.574 8.797 0 150.385 0 150.385 0v-60.74c-93.833-19.060-165.674-101.792-165.674-202.747v-579.546c0-23.877 19.688-43.565 43.565-43.565h331.139c24.087-0.209 41.471 19.479 39.376 43.356zM311.263 92.67c0-34.769-28.276-63.254-63.254-63.254-34.769 0-63.254 28.276-63.254 63.254s28.276 63.254 63.254 63.254 63.254-28.276 63.254-63.254zM840.751 20.829h-244.009v538.285c0 67.652 54.457 122.109 122.109 122.109s122.109-54.457 122.109-122.109v-538.285h-0.209z" />
<glyph unicode="&#xe928;" glyph-name="first-aid-kit" d="M980.73 774.18h-208.813v141.299c0 23.828-19.648 43.477-43.477 43.477h-434.974c-23.828 0-43.477-19.648-43.477-43.477v-141.299h-206.514c-23.828 0-43.477-19.648-43.477-43.477v-750.179c0-23.828 19.648-43.477 43.477-43.477h934.955c23.828 0 43.477 19.648 45.567 43.477v749.97c0.209 24.038-19.439 43.686-43.268 43.686zM334.853 874.092h352.202v-100.121h-352.202v100.121zM937.254 21.701h-852.391v665.316h852.391v-665.316zM343.632 313.077h123.95v-126.040c0-23.828 19.648-43.477 43.477-43.477s43.477 19.648 43.477 43.477v126.040h123.95c23.828 0 45.567 19.648 45.567 43.477s-19.648 43.477-43.477 43.477h-126.040v123.95c0 23.828-19.648 43.477-43.477 43.477s-43.477-19.648-43.477-43.477v-123.95h-123.95c-23.828 0-43.477-19.648-43.477-43.477s19.439-43.477 43.477-43.477z" />
<glyph unicode="&#xe929;" glyph-name="first-aid-kit-1" d="M967.24 45.065v564.13c0 58.711-47.847 106.767-106.767 106.767h-63.099v115.542c0 69.785-56.622 128.496-128.496 128.496h-318.211c-69.785 0-128.496-56.622-128.496-128.496v-115.542h-58.711c-58.711 0-106.767-47.847-106.767-106.767v-566.428c0-58.711 47.847-106.767 106.767-106.767h697.014c61.010 0.209 108.856 48.055 106.767 109.065zM309.298 831.504c0 24.028 19.64 43.668 43.668 43.668h318.002c24.028 0 43.668-19.64 43.668-43.668v-115.542h-405.338v115.542zM882.203 45.065c0-10.865-8.775-21.729-21.729-21.729h-697.014c-10.865 0-21.729 8.775-21.729 21.729v564.13c0 10.865 8.775 21.729 21.729 21.729h697.014c10.865 0 21.729-8.775 21.729-21.729v-564.13zM668.669 367.455h-82.739c-19.64 0-36.982 17.342-36.982 36.982v80.65c0 19.64-17.342 36.982-36.982 36.982s-36.982-17.342-36.982-36.982v-80.65c0-19.64-17.342-36.982-36.982-36.982h-82.739c-19.64 0-36.982-15.879-36.982-36.982 0-25.281 15.879-41.37 36.982-41.37h82.739c19.64 0 36.982-17.342 36.982-36.982v-82.739c0-19.64 17.342-36.982 36.982-36.982s36.982 17.342 36.982 36.982v82.739c0 19.64 17.342 36.982 36.982 36.982h82.739c19.64 0 36.982 15.67 36.982 41.37 0.209 16.297-14.626 36.982-36.982 36.982z" />
<glyph unicode="&#xe92a;" glyph-name="first-aid-kit-2" d="M1022.802 29.624v599.026c0 52.362-41.471 93.624-93.624 93.624h-82.733v194.16c0 23.877-19.688 43.566-43.566 43.566h-579.757c-23.877 0-43.566-19.688-43.566-43.566v-193.951h-84.827c-52.362 0-93.624-41.471-93.624-93.624v-599.236c0-52.362 41.471-93.624 93.624-93.624h836.752c52.153-0.209 93.624 41.262 91.32 93.624zM266.688 874.963h492.416v-152.479h-492.416v152.479zM937.975 29.624c0-4.398-4.398-8.797-8.797-8.797h-834.448c-4.398 0-8.797 4.398-8.797 8.797v599.026c0 4.398 4.398 8.797 8.797 8.797h834.657c4.398 0 8.797-4.398 8.797-8.797v-599.026h-0.209zM661.082 365.163h-78.544c-19.688 0-34.769 15.29-34.769 34.769v76.24c0 19.688-15.29 34.769-34.769 34.769s-34.769-15.29-34.769-34.769v-76.24c0-19.688-15.29-34.769-34.769-34.769h-78.544c-19.688 0-34.769-15.29-34.769-34.769 0 0-1.257-34.978 34.769-37.073h78.544c19.688 0 34.769-15.29 34.769-34.769v-78.753c0-19.688 15.29-34.769 34.769-34.769s34.769 15.29 34.769 34.769v78.544c0 19.688 15.29 34.769 34.769 34.769h78.544c37.073 2.513 34.769 37.073 34.769 37.073 0.209 19.688-15.080 34.978-34.769 34.978z" />
<glyph unicode="&#xe92b;" glyph-name="first-aid-kit-3" d="M919.819 700.656h-61.022v148.167c0 61.022-50.155 111.177-111.177 111.177h-472.712c-61.022 0-111.177-50.155-111.177-111.177v-148.167h-58.932c-24.033 0-43.677-19.644-43.677-43.677v-570.723c0-82.756 67.5-150.256 150.256-150.256h601.234c82.756 0 148.167 67.5 150.256 150.256v570.932c0.418 24.033-19.226 43.468-43.050 43.468zM248.786 848.823c0 15.256 13.166 26.122 26.122 26.122h472.712c15.256 0 26.122-13.166 26.122-26.122v-148.167h-524.957c0 0 0 148.167 0 148.167zM878.233 86.256c0-36.989-30.511-65.411-65.411-65.411h-598.936c-36.989 0-65.411 30.511-65.411 65.411v527.256h729.966v-527.256h-0.209zM486.187 182.178h52.245v108.878h108.878v54.544h-108.878v108.878h-52.245v-108.878h-108.878v-54.544h108.878z" />
<glyph unicode="&#xe92c;" glyph-name="first-aid-kit-4" d="M932.489 761.692h-108.892v154.752c0 23.872-19.684 43.557-43.557 43.557h-533.778c-23.872 0-43.557-19.684-43.557-43.557v-154.752h-111.195c-50.048 0-91.511-41.463-91.511-91.511v-642.67c0-50.048 41.463-91.511 91.511-91.511h840.978c50.048 0 91.511 41.463 91.511 91.511v642.67c0 50.048-41.463 91.511-91.511 91.511zM287.516 874.981h448.759v-113.289h-448.759v113.289zM91.511 676.672h840.978c4.398 0 6.492-2.094 6.492-6.492v-152.448h-126.482v4.398c0 23.872-19.684 43.557-43.557 43.557s-43.557-19.684-43.557-43.557v-4.398h-426.981v4.398c0 23.872-19.684 43.557-43.557 43.557s-43.557-19.684-43.557-43.557v-4.398h-126.272v152.448c0 4.398 2.094 6.492 6.492 6.492zM932.489 21.019h-840.978c-4.398 0-6.492 2.094-6.492 6.492v403.108h126.272v-4.398c0-23.872 19.684-43.557 43.557-43.557s43.557 19.684 43.557 43.557v4.398h426.981v-4.398c0-23.872 19.684-43.557 43.557-43.557 21.778 0 41.463 19.684 43.557 43.557v4.398h126.272v-403.108c0.209-4.398-2.094-6.492-6.282-6.492zM544.667 336.805h-67.638v-89.207h-84.81v-60.937h84.81v-89.417h67.638v89.417h85.019v60.937h-85.019z" />
<glyph unicode="&#xe92d;" glyph-name="fish" d="M980.141 247.546h-938.459c-17.371 0-32.649-10.883-39.137-28.254s0-37.044 12.976-47.928l276.473-226.452c6.488-4.395 15.278-8.79 26.161-8.79h387.606c10.883 0 19.673 4.395 26.161 8.79l274.38 226.452c12.976 12.976 19.673 30.556 12.976 47.928-4.395 17.371-21.766 28.254-39.137 28.254zM690.483 21.093h-357.050l-172.037 139.387h701.123l-172.037-139.387zM1010.697 530.716l-134.992 124.109 134.992 124.109c17.371 17.371 17.371 43.532 2.093 60.904-17.371 17.371-43.532 17.371-60.904 2.093l-141.69-132.481c-83.507 66.973-183.339 110.296-291.332 125.993l54.206 50.23c17.371 17.371 17.371 43.532 2.093 60.904-17.371 17.371-43.532 17.371-60.904 2.093l-115.319-106.738c-0.209-0.209-0.419-0.419-0.628-0.628-145.876-6.488-280.659-62.159-384.885-158.224-8.79-6.488-12.976-19.673-12.976-30.556s4.395-21.766 12.976-30.556c103.599-95.436 237.545-151.108 382.374-158.224 0.837-1.046 1.884-2.093 2.93-2.93l115.319-106.738c25.952-20.929 52.323-6.488 60.904 2.093 15.278 17.371 15.278 45.625-2.093 60.904l-56.299 51.904c110.087 15.487 212.639 59.648 296.146 128.086l138.969-129.969c26.161-21.348 52.323-6.488 60.904 2.093 15.487 17.999 15.487 46.253-1.884 61.531zM427.195 550.18c-117.621 0-228.545 37.044-317.912 104.436 89.367 67.601 200.291 104.436 317.912 104.436s228.545-37.044 317.912-104.436c-89.367-67.392-200.5-104.436-317.912-104.436z" />
<glyph unicode="&#xe92e;" glyph-name="flask" d="M1019.121-1.929l-223.415 440.16c-6.461 10.837-10.837 26.051-10.837 41.265v392.435h15.214c23.759 0 41.265 19.59 43.349 43.349 0 23.759-19.59 43.349-43.349 43.349h-307.82c-23.759 0-43.349-19.59-43.349-43.349s19.59-43.349 43.349-43.349h17.298v-392.435c0-12.921-4.377-28.135-10.837-41.265l-223.415-440.16c-17.506-40.223 21.675-61.898 38.973-60.647h663.367c15.422 0 61.272 18.132 41.473 60.647zM383.681 22.038l190.903 377.221c12.921 26.051 19.59 54.186 19.59 82.322v390.35h103.996v-390.35c0-28.135 6.461-56.27 19.59-80.238l190.694-379.513-524.774 0.208zM362.007 342.779v443.912c18.548 4.793 32.512 21.883 32.512 41.89 0 23.759-19.59 43.349-43.349 43.349h-307.82c-23.759 0-43.349-19.59-43.349-43.349 0-21.675 16.048-39.598 36.888-42.724v-442.87c0-88.991 71.484-160.475 160.475-160.475 88.782 0 162.559 71.484 164.643 160.267zM197.364 269.211c-41.265 0-75.861 34.596-75.861 75.861v440.16h151.722v-440.16c0-41.265-34.804-75.861-75.861-75.861z" />
<glyph unicode="&#xe92f;" glyph-name="flask-1" d="M1004.576 60.279l-248.437 324.702c0 2.089-54.326 57.251-50.147 126.412v339.746c0 61.012-47.849 108.861-108.861 108.861h-169.873c-61.012 0-108.861-47.849-108.861-108.861v-339.746c2.716-75.221-50.147-124.114-50.147-126.412l-248.437-324.702c-51.819-73.549 16.089-127.666 56.624-124.114h871.304c92.981 6.477 83.578 99.249 56.833 124.114zM333.651 332.535c45.759 47.849 69.788 111.159 69.788 178.649v339.955c0 13.164 10.865 24.029 24.029 24.029h169.873c13.164 0 24.029-10.865 24.029-24.029v-339.746c0-67.49 24.029-130.8 69.788-178.649l16.507-21.73h-390.729l16.716 21.521zM96.080 21.206l154.411 202.678h522.574l152.948-202.678h-829.933z" />
<glyph unicode="&#xe930;" glyph-name="flask-2" d="M699.037 707.762v165.303h8.777c23.824 0 43.468 19.644 43.468 43.468s-19.644 43.468-43.468 43.468h-391.419c-23.824 0-43.468-19.644-43.468-43.468s19.644-43.468 43.468-43.468h8.777v-165.303c-135.001-69.59-221.936-208.771-221.936-362.998 0-226.116 182.648-408.764 408.764-408.764s408.764 182.648 408.764 408.764c0 154.227-86.936 293.407-221.727 362.998zM383.687 642.56c15.256 6.478 26.122 21.734 26.122 39.079v191.425h204.382v-191.216c0-17.345 10.867-32.601 26.122-39.079 106.162-46.393 177.842-142.315 192.679-254.328h-641.985c14.838 112.222 86.518 209.816 192.679 254.119zM512 20.846c-163.631 0-299.677 122.671-320.993 280.451h641.985c-21.316-157.989-157.362-280.451-320.993-280.451z" />
<glyph unicode="&#xe931;" glyph-name="flask-3" d="M977.129-2.99l-272.245 562.040v357.282c0 24.028-19.64 43.668-43.668 43.668h-298.362c-24.028 0-43.668-19.64-43.668-43.668v-357.282l-272.245-562.040c-9.193-14.417-7.731-58.502 39.28-61.010h853.925c45.966 1.254 45.339 47.011 36.982 61.010zM402.135 530.635c2.089 6.477 4.388 13.163 4.388 19.64v324.479h213.534v-324.479c0-6.477 2.089-13.163 4.388-19.64l91.097-188.461c-103.842 25.281-180.104-1.671-250.098-25.072-56.831-19.64-110.946-37.609-181.984-30.714l118.676 244.247zM153.709 21.037l90.052 184.909c122.646-20.058 197.445 13.372 249.68 30.714 83.575 29.251 155.24 52.443 274.334-3.343l102.588-212.28h-716.654z" />
<glyph unicode="&#xe932;" glyph-name="flask-4" d="M653.241 592.689v280.393c23.819 0 45.548 19.64 45.548 43.459s-19.64 43.459-43.459 43.459h-284.572c-23.819 0-43.459-19.64-43.459-43.459s19.64-43.459 43.459-43.459v-280.393c-141.241-56.622-234.845-193.476-234.845-347.88 0-119.512 56.413-228.159 152.106-300.033 8.775-6.477 17.342-8.775 26.117-8.775h395.518c8.775 0 19.64 2.089 26.117 8.775 97.991 71.874 152.315 180.522 152.315 300.033 0 154.404-93.604 291.258-234.845 347.88zM696.7 21.037h-367.311c-69.576 56.413-106.558 136.854-106.558 223.98 0 128.287 82.53 241.322 204.34 278.304 17.342 6.477 30.505 21.729 30.505 41.37v308.391h110.737v-308.6c0-19.64 12.954-34.684 30.505-41.37 121.81-39.071 204.34-150.017 204.34-278.304 0-86.918-39.071-167.358-106.558-223.771z" />
<glyph unicode="&#xe933;" glyph-name="happy" d="M368.137 609.243c0-26.484-21.47-47.954-47.954-47.954s-47.954 21.47-47.954 47.954c0 26.484 21.47 47.954 47.954 47.954s47.954-21.47 47.954-47.954zM751.562 609.243c0-26.484-21.47-47.954-47.954-47.954s-47.954 21.47-47.954 47.954c0 26.484 21.47 47.954 47.954 47.954s47.954-21.47 47.954-47.954zM512 960c-283.118 0-512-228.882-512-512s228.882-512 512-512 512 228.882 512 512-228.882 512-512 512zM512 21.019c-235.373 0-426.981 191.817-426.981 426.981s191.607 426.981 426.981 426.981 426.981-191.607 426.981-426.981-191.607-426.981-426.981-426.981zM718.894 367.378c-113.289-113.289-296.311-113.289-409.6 0-17.381 17.381-43.557 17.381-60.937 0s-17.8-43.766 0-60.937c181.137-175.064 425.934-107.845 531.475 0 17.381 17.381 17.381 43.557 0 60.937s-43.347 17.381-60.937 0z" />
<glyph unicode="&#xe934;" glyph-name="healthy-food" d="M833.853 624.213c-43.969 0-86.256-16.83-119.496-48.808 1.473 140.954-56.592 247.407-148.107 270.759-60.379 15.147-125.807-7.574-183.241-62.272-2.525 41.024 2.104 82.258 22.3 101.403 17.462 17.462 17.462 43.549 2.104 60.8-17.462 17.462-43.549 17.462-60.8 2.104-36.185-34.292-48.177-86.045-49.65-135.695-48.177 33.45-99.089 42.286-148.318 33.45-51.543-9.257-203.016-98.668-128.332-404.56 43.128-176.719 160.94-297.898 271.811-297.898 38.92 0 56.592 8.626 65.218 13.044 10.94-4.418 19.565-8.626 28.191-10.94 37.448-9.467 76.789-4.208 114.657 14.306l163.675-203.437c24.825-35.133 61.010-15.358 69.636-4.418l237.098 291.376c112.132 130.646 38.71 380.366-136.747 380.787zM383.64 241.322c-15.147 10.94-34.713 10.94-50.070 0-8.626-4.418-15.147-8.626-23.983-10.94-65.218-15.147-172.301 74.895-208.697 232.68-54.278 235.415 47.756 296.004 67.322 300.212 45.652 10.94 106.663-28.191 152.315-102.245 27.349-36.816 67.322-15.358 73.843 0 45.652 73.843 106.663 113.184 152.315 102.245 43.969-10.94 75.526-69.636 81.838-148.738-19.145 7.784-39.341 11.781-60.169 11.781-173.353 0.21-246.144-248.669-136.957-380.577l11.781-14.516c-29.874-7.153-50.912 3.576-59.537 10.098zM903.278 297.914l-200.071-250.141-204.489 252.245c-71.319 98.668-17.041 236.888 69.636 239.202 26.087 0.631 52.174-11.571 71.739-39.131 50.912-71.319 83.941-54.699 123.914 0 18.303 25.035 43.549 35.133 69.636 37.027 46.704 3.576 157.995-92.988 69.636-239.202z" />
<glyph unicode="&#xe935;" glyph-name="heart" d="M373.346 378.842c-16.745 16.745-43.956 16.745-60.701 0l-33.909-33.909-33.909 33.909c-16.745 16.745-43.956 16.745-60.701 0s-16.745-43.956 0-60.701l33.909-33.909-33.909-33.909c-16.745-16.745-16.745-43.956 0-60.701 8.372-8.372 19.257-12.559 30.35-12.559 10.884 0 21.978 4.186 30.35 12.559l33.909 33.909 33.909-33.909c8.372-8.372 19.466-12.559 30.35-12.559s21.978 4.186 30.35 12.559c16.745 16.745 16.745 43.956 0 60.701l-33.909 33.909 33.909 33.909c16.745 16.745 16.745 43.956 0 60.701zM927.815 873.866c-52.328 52.328-117.634 82.678-185.032 82.678-146.937 0-230.034-132.913-230.662-131.867-0.628-1.047-82.26 131.867-230.662 131.867-67.608 0-132.913-30.56-185.032-82.678-63.422-65.305-100.47-161.171-96.074-263.524 1.256-55.258 19.675-113.447 48.979-171.636-30.769-44.793-48.77-99.005-48.77-157.194 0-153.426 124.959-278.385 278.385-278.385 41.235 0 80.376 9 115.75 25.117 53.793-47.723 92.516-78.074 97.958-82.26 16.745-12.977 35.792-3.14 38.932 0 19.675 15.28 485.605 378.855 492.093 664.148 4.186 102.563-32.862 198.428-95.865 263.734zM86.17 281.512c0 106.121 86.446 192.567 192.567 192.567s192.567-86.446 192.567-192.567-86.446-192.567-192.567-192.567-192.567 86.446-192.567 192.567zM938.699 612.435c-6.489-187.544-285.921-455.882-426.788-573.307-13.605 11.303-28.466 24.071-44.374 38.095 55.049 50.863 89.586 123.704 89.586 204.289 0 153.426-124.959 278.385-278.385 278.385-62.166 0-119.517-20.513-165.985-55.049-16.326 37.676-26.373 73.887-27.629 107.587-2.093 78.492 23.862 150.286 71.794 200.312 34.746 37.048 78.492 56.514 124.122 56.514 0 0 132.495 7.535 189.428-167.659 4.396-17.373 21.768-30.35 41.235-30.56 19.466 0 36.839 13.187 41.235 30.56 56.933 175.194 189.428 167.659 189.428 167.659 45.63 0 89.376-19.675 124.122-56.514 48.142-50.026 74.306-121.82 72.213-200.312z" />
<glyph unicode="&#xe936;" glyph-name="heart-1" d="M942.029 862.045c-54.512 63.076-128.449 97.955-206.771 97.955-148.499 0-224.315-117.588-224.315-117.588s-73.31 117.588-222.018 117.588c-78.322 0-152.468-34.88-206.771-97.955-109.025-126.36-109.025-328.745-0.209-455.106l394.118-453.017c20.051-31.329 59.943-14.62 67.462-2.089l398.505 455.106c108.816 126.36 108.816 328.745 0 455.106zM874.567 463.54l-363.625-417.928-363.625 417.928c-82.708 95.867-82.708 250.423 0 343.992 36.968 43.652 89.183 67.462 141.607 67.462 52.215 0 102.341-24.019 139.309-67.462l45.74-52.215c28.614-33 60.152-13.158 67.462-4.386l50.126 56.601c36.968 43.652 89.183 67.462 141.607 67.462s102.341-24.019 141.607-67.462c82.5-95.658 82.5-250.214-0.209-343.992zM659.65 491.527h-116.335v116.335c0 17.335-14.202 31.538-31.538 31.538s-31.538-14.202-31.538-31.538v-116.335h-116.335c-17.335 0-31.538-14.202-31.538-31.538s14.202-31.538 31.538-31.538h116.335v-116.126c0-17.335 14.202-31.538 31.538-31.538s31.538 14.202 31.538 31.538v116.335h116.335c17.335 0 31.538 14.202 31.538 31.538s-13.994 31.329-31.538 31.329z" />
<glyph unicode="&#xe937;" glyph-name="heart-2" d="M935.892 439.205c92.348 122.084 86.904 308.456-14.24 424.887-54.446 63.241-126.272 95.908-202.706 95.908-78.528 0-148.051-34.762-202.706-95.908l-15.287-17.381-15.287 17.381c-54.446 63.241-126.272 95.908-202.706 95.908-76.224 0-148.051-32.667-202.706-93.605-106.798-122.084-106.798-322.487 0-444.362l385.937-442.686c23.035-31.62 59.89-12.564 65.335-2.094l87.323 99.468c36.437-83.553 107.216-140.721 189.304-140.721 117.687 0 215.689 122.084 215.689 270.135 0 70.57-43.347 159.778-87.951 233.070zM592.674 205.926c0-9.214 0.419-18.218 1.047-27.223-0.419-0.419-94.861-107.845-94.861-107.845l-354.945 405.202c-80.622 91.511-80.622 239.562 0 331.072 37.065 41.463 85.019 65.335 137.162 65.335 52.352 0 100.306-23.872 137.162-65.335l45.651-50.048c23.454-29.317 56.54-17.381 67.638-4.398l50.048 58.843c37.065 41.463 85.019 65.335 137.162 65.335 52.352 0 100.306-23.872 137.162-65.335 68.895-80.622 79.156-202.078 27.432-294.007-20.941 29.317-37.274 49.839-42.719 56.54-7.329 10.68-40.625 28.898-65.335 0-19.894-23.454-182.603-230.766-182.603-368.137zM808.363 22.904c-69.733 0-130.67 85.019-130.67 185.116 0 71.827 76.224 196.005 130.67 270.135 52.352-76.224 130.67-198.308 130.67-270.135 0-100.097-58.843-185.116-130.67-185.116z" />
<glyph unicode="&#xe938;" glyph-name="helicopter" d="M980.443 814.986c23.872 0 43.557 19.684 43.557 43.557s-19.684 43.557-43.557 43.557l-625.289-2.094c-23.872 0-43.557-19.684-43.557-43.557s19.684-43.557 43.557-43.557l268.25 0.838 1.256-118.524h-234.745c-23.872 0-43.557-19.684-43.557-43.557v-174.436h-259.246v50.258c0 23.872-19.684 43.557-43.557 43.557s-43.557-19.684-43.557-43.557v-187.419c0-23.872 19.684-43.557 43.557-43.557 21.778 0 41.463 19.684 43.557 41.463v52.352h259.246v-174.227c0-23.872 19.684-43.557 43.557-43.557h63.241v-91.511h-47.954c-23.872 0-43.557-19.684-43.557-43.557s19.684-43.557 43.557-43.557h522.889c23.872 0 43.557 19.684 43.557 43.557s-19.684 43.557-43.557 43.557h-47.954v91.511h65.335c23.872 0 41.463 19.684 41.463 45.651v154.752c0 163.337-120.2 297.358-277.045 319.346l-1.256 122.084 271.81 0.628zM793.024 80.805h-252.754v91.511h252.754v-91.511zM901.916 370.624v-113.289h-470.537v350.757h233.070c130.67 0 237.467-106.798 237.467-237.467zM644.973 520.978v-87.323h-89.417v-43.557h91.511v-89.207h39.159v89.207h89.417v43.557h-89.417v87.323z" />
<glyph unicode="&#xe939;" glyph-name="hospital" d="M980.532 753.528h-134.792v119.536h132.702c23.824 0 45.558 19.644 45.558 43.468s-19.644 43.468-43.468 43.468h-937.064c-23.824 0-43.468-19.644-43.468-43.468s19.644-43.468 43.468-43.468h132.702v-119.536h-132.702c-23.824 0-43.468-19.644-43.468-43.468v-730.593c0-23.824 19.644-43.468 43.468-43.468h934.766c23.824 0 43.468 19.644 45.558 43.468v730.593c0.209 23.824-19.435 43.468-43.259 43.468zM263.105 873.064h495.7v-119.536h-495.7v119.536zM937.064 20.846h-852.219v645.747h852.219v-645.747zM469.577 114.26h80.457v191.425h189.127v80.457h-189.127v189.127h-80.457v-189.127h-189.127v-80.457h189.127z" />
<glyph unicode="&#xe93a;" glyph-name="hospital-1" d="M980.532 753.528h-134.792v119.536h132.702c23.824 0 45.558 19.644 45.558 43.468s-19.644 43.468-43.468 43.468h-937.064c-23.824 0-43.468-19.644-43.468-43.468s19.644-43.468 43.468-43.468h132.702v-119.536h-132.702c-23.824 0-43.468-19.644-43.468-43.468v-730.593c0-23.824 19.644-43.468 43.468-43.468h934.766c23.824 0 43.468 19.644 45.558 43.468v730.593c0.209 23.824-19.435 43.468-43.259 43.468zM263.105 873.064h495.7v-119.536h-495.7v119.536zM937.064 20.846h-852.219v645.747h852.219v-645.747zM382.642 333.897h256.627v-230.504h65.202v491.311h-65.202v-202.083h-256.627v202.083h-65.202v-493.401h65.202z" />
<glyph unicode="&#xe93b;" glyph-name="hospital-2" d="M738.578 960h-453.157c-156.846 0-285.422-128.576-285.422-285.422v-453.157c0-156.846 128.576-285.422 285.422-285.422h453.157c156.846 0 285.422 128.576 285.422 285.422v453.157c0 156.846-128.576 285.422-285.422 285.422zM938.981 221.422c0-111.195-89.417-200.402-200.402-200.402h-453.157c-111.195 0-200.402 89.417-200.402 200.402v453.157c0 111.195 89.417 200.402 200.402 200.402h453.157c111.195 0 200.402-89.417 200.402-200.402v-453.157zM747.373 491.557h-191.607v191.607c0 23.872-19.684 43.557-43.557 43.557s-43.557-19.684-43.557-43.557v-191.607h-191.607c-23.872 0-43.557-19.684-43.557-43.557s19.684-43.557 43.557-43.557h191.607v-191.607c0-23.872 19.684-43.557 43.557-43.557s43.557 19.684 43.557 43.557v191.607h191.607c23.872 0 43.557 19.684 43.557 43.557s-19.684 43.557-43.557 43.557z" />
<glyph unicode="&#xe93c;" glyph-name="hospital-3" d="M738.534-64h-453.068c-156.944 0-285.466 128.522-285.466 285.466v453.068c0 156.944 128.522 285.466 285.466 285.466h453.277c156.735 0 285.257-128.522 285.257-285.466v-453.277c0-156.735-128.522-285.257-285.466-285.257zM285.466 874.945c-111.177 0-200.411-89.234-200.411-200.411v-453.277c0-111.177 89.234-200.411 200.411-200.411h453.277c111.177 0 200.411 89.234 200.411 200.411v453.277c0 111.177-89.234 200.411-200.411 200.411h-453.277zM298.423 193.045v509.91h87.144v-222.145h254.955v222.145h87.144v-512h-87.144v209.189h-254.955v-209.189h-87.144v2.090z" />
<glyph unicode="&#xe93d;" glyph-name="hospital-4" d="M801.855-64h-579.709c-121.835 0-222.145 100.31-222.145 222.145v579.709c0 121.835 100.31 222.145 222.145 222.145h579.5c122.044 0 222.354-100.31 222.354-222.145v-579.5c0-122.044-100.31-222.354-222.145-222.354zM222.145 874.945c-76.278 0-137.3-61.022-137.3-137.3v-579.5c0-76.278 61.022-137.3 137.3-137.3h579.5c76.278 0 137.3 61.022 137.3 137.3v579.709c0 76.278-61.022 137.3-137.3 137.3l-579.5-0.209zM453.277 199.523v130.821c0 32.601-26.122 58.723-58.723 58.723h-130.821c-62.276 4.807-58.723 63.112-58.723 63.112 0 32.601 26.122 58.723 58.723 58.723h130.821c32.601 0 58.723 26.122 58.723 58.723v126.433c0 32.601 26.122 58.723 58.723 58.723v0c32.601 0 58.723-26.122 58.723-58.723v-126.433c0-32.601 26.122-58.723 58.723-58.723h130.821c61.44-2.926 58.932-62.903 58.932-62.903 0-32.601-26.122-58.723-58.723-58.723h-130.821c-32.601 0-58.723-26.122-58.723-58.723v-130.821c0-32.601-26.122-58.723-58.723-58.723v0c-32.81-0.209-58.932 25.913-58.932 58.514z" />
<glyph unicode="&#xe93e;" glyph-name="hospital-5" d="M678.348 482.586h-147.958v126.224h-49.946v-291.318h49.946v119.536h147.958v-119.536h49.946v291.318h-49.946zM980.532 958.851h-937.064c-23.824 0-43.468-19.644-43.468-43.468v-934.766c0-23.824 19.644-43.468 43.468-43.468 21.734 0 41.378 19.644 41.378 41.378v893.388h337.084v-104.699c-77.322-21.734-132.702-92.787-132.702-175.752v-252.238c0-102.191 82.547-182.648 182.648-182.648h265.195c100.101 0 180.349 80.457 182.648 180.349v254.537c0 84.428-56.424 154.227-132.702 175.752v104.699h193.515c23.824 0 43.468 19.644 43.468 43.468s-19.644 43.468-43.468 43.468zM832.784 591.464v-252.238c0-52.245-43.468-95.713-95.713-95.713h-265.195c-52.245 0-95.713 43.468-95.713 95.713v254.328c0 52.245 43.468 95.713 95.713 95.713h265.195c52.036 0 95.713-45.767 95.713-97.802zM700.082 774.113h-191.216v97.802h191.216v-97.802z" />
<glyph unicode="&#xe93f;" glyph-name="hospital-6" d="M1022.863-20.532v880.431c0 54.335-45.558 100.101-100.101 100.101h-821.708c-54.335 0-100.101-45.558-100.101-100.101v-880.431c0-23.824 19.644-43.468 43.468-43.468h326.217c23.824 0 43.468 19.644 43.468 43.468v295.706c0 8.777 6.478 15.256 15.256 15.256h167.393c8.777 0 15.256-6.478 15.256-15.256v-293.407c0-23.824 19.644-43.468 43.468-43.468h326.217c23.824-0.209 43.468 19.435 41.169 41.169zM940.316 22.936h-243.461v252.238c0 54.335-45.558 100.101-100.101 100.101h-167.393c-54.335 0-100.101-45.558-100.101-100.101v-252.238h-241.162v836.963c0 8.777 6.478 15.256 15.256 15.256h821.708c8.777 0 15.256-6.478 15.256-15.256v-836.963zM546.808 744.751h-65.202v67.5h-36.989v-163.213h36.989v65.202h65.202v-65.202h36.989v163.213h-36.989zM257.58 692.506h-39.079c-23.824 0-43.468-19.644-43.468-43.468s19.644-43.468 43.468-43.468h39.079c23.824 0 41.378 19.644 43.468 43.468 0 24.033-19.435 43.468-43.468 43.468zM257.58 501.29h-39.079c-23.824 0-43.468-19.644-43.468-43.468s19.644-43.468 43.468-43.468h39.079c23.824 0 43.468 19.644 43.468 43.468s-19.435 43.468-43.468 43.468zM809.913 692.506h-39.079c-23.824 0-43.468-19.644-43.468-43.468s19.644-43.468 43.468-43.468h39.079c23.824 0 43.468 19.644 43.468 43.468s-19.644 43.468-43.468 43.468zM809.913 501.29h-39.079c-23.824 0-43.468-19.644-43.468-43.468s19.644-43.468 43.468-43.468h39.079c23.824 0 43.468 19.644 43.468 43.468s-19.644 43.468-43.468 43.468z" />
<glyph unicode="&#xe940;" glyph-name="hospital-7" d="M1007.708 573.686l-468.013 376.586c-17.365 12.971-39.123 12.971-54.396 0l-468.013-376.586c-38.705-38.495-0.209-80.129 26.152-76.154h71.761v-518.015c0-23.85 19.666-43.517 43.517-43.517h705.262c21.758 0 41.424 19.666 41.424 41.424v520.107h74.062c56.906 3.138 48.747 61.718 28.244 76.154zM511.452 860.937l348.342-278.674h-696.684l348.342 278.674zM820.462 20.732h-618.019v476.8h618.229v-476.8h-0.209zM480.907 103.581h58.789v126.156h126.156v63.183h-126.156v124.064h-58.789v-124.064h-126.156v-63.183h126.156z" />
<glyph unicode="&#xe941;" glyph-name="hospital-8" d="M956.386-57.183c-130.36 80.43-275.97 121.795-428.057 121.795-263.018 0-460.856-119.497-462.945-121.795-12.952-10.446-60.166-13.161-65.18 36.977v765.029c0 117.407 86.907 215.177 195.54 215.177h632.371c108.633 0 195.54-95.681 195.54-215.177v-765.029c2.507-25.069-28.83-58.286-67.269-36.977zM193.655 873.093c-60.793 0-110.931-58.704-110.931-128.271v-695.462c84.817 39.066 247.767 100.068 443.516 100.068 143.521 0 280.357-32.59 408.628-97.77v693.164c0 71.656-49.93 128.271-110.931 128.271h-630.282zM474.013 307.992v145.61h-145.61v71.656h145.61v143.521h69.567v-143.521h145.61v-71.656h-145.61v-145.61h-69.567z" />
<glyph unicode="&#xe942;" glyph-name="hospital-9" d="M921.6 807.552h-191.817v108.892c0 23.872-19.684 43.557-43.557 43.557h-348.453c-23.872 0-43.557-19.684-43.557-43.557v-111.195h-191.817c-56.54 0-102.4-45.651-102.4-102.4v-723.292c0-23.872 19.684-43.557 43.557-43.557h328.978c23.872 0 43.557 19.684 43.557 43.557v241.865c0 4.398 4.398 8.795 8.795 8.795h172.133c4.398 0 8.795-4.398 8.795-8.795v-241.865c0-23.872 19.684-43.557 43.557-43.557h331.072c23.872 0 43.557 19.684 43.557 43.557v725.595c0 56.54-45.86 102.4-102.4 102.4zM381.33 874.981h261.34v-204.8h-261.34v204.8zM938.981 18.925h-246.263v200.402c0 52.352-41.463 93.605-93.605 93.605h-174.227c-52.352 0-93.605-41.463-93.605-93.605v-200.402h-246.263v681.829c0 8.795 8.795 17.381 17.381 17.381h191.817v-89.417c0-23.872 19.684-43.557 43.557-43.557h348.663c23.872 0 41.463 17.381 43.557 41.463v93.605h191.607c8.795 0 17.381-8.795 17.381-17.381v-683.923zM538.176 783.47h-52.352v56.749h-30.364v-135.067h30.364v52.142h52.352v-52.142h30.364v135.067h-30.364z" />
<glyph unicode="&#xe943;" glyph-name="hospital-10" d="M660.765 586.407c-16.72 0-30.304-13.585-30.304-30.304v-162.808h-236.793v162.808c0 16.72-13.585 30.304-30.304 30.304s-30.304-13.585-30.304-30.304v-412.559c0-16.72 13.585-30.304 30.304-30.304s30.304 13.585 30.304 30.304v193.322h236.793v-193.322c0-16.72 13.585-30.304 30.304-30.304s30.304 13.585 30.304 30.304v412.559c0 16.72-13.585 30.304-30.304 30.304zM1008.116 573.449l-468.988 375.775c-17.347 12.958-39.082 12.958-54.339 0l-468.988-375.775c-17.347-15.257-21.736-43.471-6.479-60.818s41.172-21.736 58.728-6.479l67.297 54.13v-579.756c0-23.826 19.646-43.471 43.471-43.471h664.608c23.826 0 43.471 17.347 45.561 41.172v580.383l65.207-52.458c6.479-7.942 35.947-18.392 60.818 6.479 14.839 19.646 10.45 45.561-6.897 60.818zM801.837 21.908h-579.756v597.102c0 3.553 288.833 243.272 288.833 243.272s290.923-240.346 290.923-243.272v-597.102z" />
<glyph unicode="&#xe944;" glyph-name="hospital-11" d="M980.332 720.245h-208.31v151.897h17.342c23.819 0 43.459 19.431 43.459 43.459s-19.431 43.459-43.459 43.459h-559.533c-23.819 0-43.459-19.431-43.459-43.459s19.64-43.459 43.459-43.459h19.431v-151.897h-205.803c-23.819 0-43.459-19.431-43.459-43.459 0-23.819 19.431-43.459 43.459-43.459h12.954v-652.928c0-23.819 19.431-43.459 43.459-43.459h824.256c23.819 0 43.459 17.342 43.459 41.161v655.435h12.954c23.819 0 43.459 19.431 43.459 43.459-0.209 23.61-19.64 43.25-43.668 43.25zM334.090 872.142h351.432v-151.897h-351.432v151.897zM880.669 21.769h-739.637v611.767h739.637v-611.767zM660.659 559.154c-16.715 0-30.296-13.581-30.296-30.296v-162.762h-236.726v162.762c0 16.715-13.581 30.296-30.296 30.296s-30.296-13.581-30.296-30.296v-412.442c0-16.715 13.581-30.296 30.296-30.296s30.296 13.581 30.296 30.296v193.267h236.726v-193.267c0-16.715 13.581-30.296 30.296-30.296s30.296 13.581 30.296 30.296v412.442c0 16.715-13.581 30.296-30.296 30.296z" />
<glyph unicode="&#xe945;" glyph-name="hospital-12" d="M980.332 958.851h-936.873c-24.028 0-43.459-19.64-43.459-43.459v-934.784c0-23.819 19.431-43.459 43.459-43.459h937.082c23.819 0 41.161 17.342 43.459 41.161v937.082c-0.209 23.819-19.64 43.459-43.668 43.459zM937.082 21.769h-850.373v850.373h850.164v-850.373h0.209zM282.065 403.496h186.581v-186.581c0-23.819 19.431-43.459 43.459-43.459s43.459 19.431 43.459 41.161v188.67h186.163c23.819 0 43.459 19.431 45.548 43.459 0 23.819-19.431 43.459-43.459 43.459h-188.67v186.581c0 23.819-19.431 43.459-43.459 43.459s-43.459-19.431-43.459-43.459v-186.581h-186.163c-23.819 0-43.459-19.431-43.459-43.459s19.431-43.25 43.459-43.25z" />
<glyph unicode="&#xe946;" glyph-name="hospital-13" d="M978.442-62.955h-934.975c-23.824 0-43.468 19.644-43.468 43.468v934.975c0 23.824 19.644 43.468 43.468 43.468h937.064c23.824 0 43.468-19.644 43.468-43.468v-937.064c-2.090-21.734-21.734-41.378-45.558-41.378zM84.846 21.891h852.219v852.219h-852.219v-852.219zM718.472 767.53v0c-23.406 0-42.423-19.017-42.423-42.423v-220.682h-332.487v220.682c0 23.406-19.017 42.423-42.423 42.423v0c-23.406 0-42.423-19.017-42.423-42.423v-554.423c0-23.406 19.017-42.423 42.423-42.423v0c23.406 0 42.423 19.017 42.423 42.423v259.971h332.696v-262.060c0-23.406 19.017-42.423 42.423-42.423s42.423 19.017 42.423 42.423v556.513c-0.209 23.406-19.226 42.423-42.632 42.423z" />
<glyph unicode="&#xe947;" glyph-name="hospital-14" d="M980.73 852.458h-150.078v63.125c0 23.828-19.648 43.477-43.477 43.477s-43.477-19.648-43.477-43.477v-63.125h-465.492v63.125c0 23.828-19.648 43.477-43.477 43.477s-43.477-19.648-43.477-43.477v-63.125h-147.778c-23.828 0-43.477-19.648-43.477-43.477v-828.563c0-23.828 19.648-43.477 43.477-43.477h934.955c23.828 0 43.477 19.648 45.567 41.386v830.653c0.209 23.828-19.439 43.477-43.268 43.477zM937.254 21.806h-852.391v745.79h106.601v-65.215c0-23.828 19.648-43.477 43.477-43.477s41.386 19.648 43.477 43.477v65.215h465.283v-65.215c0-23.828 19.648-43.477 43.477-43.477s43.477 19.648 43.477 43.477v65.215h106.601v-745.79zM658.837 419.783h-104.302v102.212c0 23.828-19.648 43.477-43.477 43.477s-43.477-19.648-43.477-43.477v-102.212h-104.302c-23.828 0-43.477-19.648-43.477-43.477s19.648-43.477 43.477-43.477h104.302v-104.302c0-23.828 19.648-43.477 43.477-43.477s43.477 19.648 43.477 41.386v106.601h104.302c23.828 0 43.477 19.648 43.477 43.477 0 23.619-19.648 43.268-43.477 43.268z" />
<glyph unicode="&#xe948;" glyph-name="hospital-15" d="M1007.185 573.487l-467.274 375.991c-17.337 12.951-39.061 12.951-54.31 0l-469.363-375.991c-17.337-15.249-22.768-44.492-6.475-60.785 36.764-36.972 73.945 3.969 73.945 3.969v-536.414c0-23.813 19.635-43.448 43.448-43.448h769.32c21.724 0 41.359 19.635 43.448 41.359v538.294c0 0 37.599-40.106 73.945-3.969 17.337 17.546 10.653 45.746-6.684 60.994zM852.819 21.406h-682.215v565.031l341.108 273.847 341.108-273.847v-565.031zM477.037 514.791v-128.255h-128.255c-19.217 0-34.675-15.666-34.675-34.675v0c0-19.217 15.666-34.675 34.675-34.675h128.255v-130.344c0-19.217 15.666-34.675 34.675-34.675s34.675 15.666 34.675 34.675v130.344h128.255c19.217 0 34.675 15.666 34.675 34.675v0c0 19.217-15.666 34.675-34.675 34.675h-128.255v128.255c0 19.217-15.666 34.675-34.675 34.675s-34.675-15.457-34.675-34.675z" />
<glyph unicode="&#xe949;" glyph-name="hospital-bed" d="M1014.033 304.368l-160.993 195.7c-8.781 8.781-19.654 15.263-32.617 15.263h-89.278v173.956c0 23.835-19.654 43.489-43.489 43.489h-223.926c-23.835 0-43.489-19.654-43.489-43.489s19.654-43.489 43.489-43.489h180.437v-130.467h-369.656l-195.909 319.686c-10.872 19.654-37.007 26.135-58.752 12.963-19.654-10.872-26.135-37.007-12.963-56.452l206.573-341.43c8.781-10.872 21.744-19.654 37.007-19.654h274.106v-302.332h-134.858c-23.835 0-43.489-19.654-43.489-43.489s19.654-43.489 43.489-43.489h356.693c23.835 0 43.489 17.354 43.489 43.489 0 23.835-19.654 43.489-43.489 43.489h-134.858v302.332h187.128l147.821-180.437c8.781-10.872 29.271-23.835 60.843-6.482 19.654 15.054 21.954 43.489 6.691 60.843z" />
<glyph unicode="&#xe94a;" glyph-name="hospital-bed-1" d="M670.969 654.91c15.249 0 28.41-13.16 28.41-28.41v-60.997c2.925-29.872 30.499-28.41 30.499-28.41 15.249 0 28.41 13.16 28.41 28.41v60.997c0 15.249 13.16 28.41 28.41 28.41h58.49c15.249 0 28.41 13.16 28.41 28.41s-13.16 28.41-28.41 28.41h-58.699c-15.249 0-28.41 13.16-28.41 28.41v60.788c0 15.249-13.16 28.41-28.41 28.41 0 0-27.574 1.88-30.499-28.41v-60.997c0-15.249-13.16-28.41-28.41-28.41h-60.997c-15.249 0-28.41-13.16-28.41-28.41s13.16-28.41 28.41-28.41h61.206v0.209zM727.579 402.357c154.582 0 278.665 124.083 278.665 278.665s-124.083 278.665-278.665 278.665-278.874-123.874-278.874-278.456c0-154.791 124.292-278.874 278.874-278.874zM727.579 874.876c106.745 0 193.854-87.109 193.854-193.854s-87.109-193.854-193.854-193.854-193.854 87.109-193.854 193.854 87.109 193.854 193.854 193.854zM1023.791 385.018c0 24.023-19.636 43.659-43.659 43.659s-43.659-19.636-43.659-43.659v-126.381h-612.060c-21.934 97.345-119.279 171.084-237.095 172.129v198.241c0 24.023-19.636 43.659-43.659 43.659s-43.659-19.636-43.659-43.659v-649.035c0-24.023 19.636-43.659 43.659-43.659 21.725 0 41.361 19.636 43.659 41.361v193.854h849.364v-191.556c0-24.023 19.636-43.659 43.659-43.659s43.659 19.636 43.659 43.659v405.046h-0.209zM87.318 343.448c66.22-1.462 123.039-36.974 144.973-84.811h-144.973v84.811z" />
<glyph unicode="&#xe94b;" glyph-name="hospital-bed-2" d="M1007.495 806.004c-17.396 15.3-43.595 12.995-58.895-6.497l-76.29-93.686c-12.995-12.995-30.6-19.701-47.996-19.701h-780.719c-23.893 0-43.595-19.701-43.595-43.595s19.701-43.595 43.595-43.595h117.789v-264.921c-50.721-18.025-87.189-66.649-87.189-123.238 0-71.889 58.895-130.784 130.784-130.784s130.784 58.895 130.784 130.784c0 56.589-36.469 105.214-87.189 123.238v264.921h466.755v-264.921c-50.721-18.025-87.189-66.649-87.189-123.238 0-71.889 58.895-130.784 130.784-130.784 74.195 0 133.089 58.895 130.784 130.784 0 56.589-36.469 105.214-87.189 123.238v264.921h21.797c41.499 0 80.692 15.3 106.89 43.595 2.096 2.096 82.788 104.585 82.788 104.585 15.3 17.605 12.995 43.595-6.497 58.895zM204.978 167.177c-23.893 0-45.69 19.701-45.69 45.69 0 23.893 19.701 45.69 45.69 45.69 26.199 0 45.69-21.797 45.69-45.69 0.21-23.893-19.492-45.69-45.69-45.69zM804.613 213.077c0-23.893-19.701-45.69-45.69-45.69-23.893 0-45.69 19.701-45.69 45.69 0 23.893 19.701 45.69 45.69 45.69 26.199 0 47.996-21.797 45.69-45.69z" />
<glyph unicode="&#xe94c;" glyph-name="hospital-bed-3" d="M980.532 829.597c-23.824 0-43.468-19.644-43.468-43.468v-282.54h-850.129v412.944c0 23.824-19.644 43.468-43.468 43.468s-43.468-19.644-43.468-43.468v-937.064c0-23.824 19.644-43.468 43.468-43.468s41.378 19.644 43.468 43.468v193.515h850.129v-193.515c0-23.824 19.644-43.468 43.468-43.468 21.734 0 41.378 19.644 43.468 43.468v806.661c0 23.824-19.644 43.468-43.468 43.468zM86.936 257.829v158.616h850.129v-158.616h-850.129zM273.972 555.624c42.841 0 79.83 29.257 92.787 69.799 7.941-9.404 19.853-15.464 33.228-15.464h417.332c23.824 0 41.378 19.644 43.468 43.468 0 23.824-19.644 43.468-43.468 43.468h-417.332c-12.957 0-24.451-5.642-32.601-14.838-12.121 40.124-49.319 69.172-93.623 69.172-54.335 0-97.802-43.468-97.802-97.802 0.209-54.335 43.677-97.802 98.011-97.802zM273.972 664.294c6.478 0 10.867-6.478 12.957-12.957 0-8.777-6.478-12.957-12.957-12.957-8.777 0-12.957 6.478-12.957 12.957-0.209 8.568 6.478 12.957 12.957 12.957z" />
<glyph unicode="&#xe94d;" glyph-name="hospital-bed-4" d="M1011.017 857.021c-17.344 17.344-43.464 17.344-60.808 0l-54.33-54.33h-761.254l-60.808 60.808c-17.344 17.344-43.464 17.344-60.808 0s-17.344-43.464 0-60.808l73.764-73.764c8.776-8.776 19.434-12.956 30.3-12.956h110.751l227.143-227.143-218.576-217.74c-67.704-2.090-122.035-57.674-122.035-125.796 0-69.376 56.42-125.796 125.796-125.796s125.796 56.42 125.796 125.796c0 36.778-15.881 69.794-40.957 92.78l190.575 189.739 189.739-189.739c-25.076-22.986-40.957-56.211-40.957-92.78 0-69.376 56.42-125.796 125.796-125.796 67.286 0 125.796 56.42 125.796 125.796 0 68.122-54.33 123.706-122.035 125.796l-217.322 217.531 228.188 227.352h108.452c10.866 0 21.732 4.388 30.3 12.956l67.286 67.286c17.553 17.344 17.553 43.464 0.209 60.808zM240.36 102.036c-23.822 0-41.166 19.434-41.166 41.166 0 23.822 19.434 41.166 41.166 41.166s39.076-17.344 41.166-41.166c0-23.822-19.643-41.166-41.166-41.166zM790.352 102.036c-23.822 0-41.166 19.434-41.166 41.166 0 23.822 19.434 41.166 41.166 41.166s39.076-17.344 41.166-41.166c0-23.822-19.434-41.166-41.166-41.166zM515.774 549.427l-166.544 166.544h333.715l-167.171-166.544z" />
<glyph unicode="&#xe94e;" glyph-name="hourglass" d="M678.975 447.373c151.928 77.949 258.508 258.926 259.971 468.95 0 24.033-19.644 43.677-43.677 43.677s-43.677-19.644-43.677-43.677c0-235.311-152.555-424.856-339.801-424.856s-339.592 191.843-337.502 424.856c0 24.033-19.644 43.677-43.468 43.677s-43.677-19.644-43.677-43.677c0-209.398 105.117-389.747 256.209-468.114-151.301-77.949-258.299-258.717-258.299-468.532 0-24.033 19.644-43.677 43.677-43.677s43.677 19.644 43.677 43.677c0 235.311 152.555 424.856 339.801 424.856s339.801-189.544 339.801-424.856c0-24.033 19.644-43.677 43.677-43.677s41.378 19.644 39.288 43.677c-0.209 208.98-105.326 389.329-256 467.696zM350.877 831.478h322.456c24.033 0 45.767 19.644 45.767 43.677s-19.644 43.677-43.677 43.677h-324.545c-24.033 0-43.677-19.644-43.677-43.677s19.644-43.677 43.677-43.677zM433.633 748.722c-24.033 0-43.677-19.644-43.677-43.677s19.644-43.677 43.677-43.677h156.944c24.033 0 43.677 19.644 43.677 43.677s-19.644 43.677-43.677 43.677c0 0-156.944 0-156.944 0zM675.422 66.821h-324.545c-24.033 0-43.677-19.644-43.677-43.677s19.644-43.677 43.677-43.677h322.456c24.033 0 43.677 19.644 45.767 43.677-0.209 24.033-19.644 43.677-43.677 43.677zM590.367 149.577c24.033 0 43.677 17.345 43.677 43.677 0 24.033-19.644 43.677-43.677 43.677h-156.944c-24.033 0-43.677-19.644-43.677-43.677s19.644-43.677 43.677-43.677h156.944z" />
<glyph unicode="&#xe94f;" glyph-name="leaf" d="M712.809 545.787h-86.048v86.048c0 12.654-10.334 22.988-22.988 22.988v0c-12.654 0-22.988-10.334-22.988-22.988v-86.048h-86.048c-12.654 0-22.988-10.334-22.988-22.988s10.334-22.988 22.988-22.988h86.048v-85.837c0-12.654 10.334-22.988 22.988-22.988v0c12.654 0 22.988 10.334 22.988 22.988v86.048h86.048c12.654 0 22.988 10.334 22.988 22.988-0.211 12.654-10.334 22.777-22.988 22.777zM913.588 140.432c62.427 248.232 34.588 466.517-79.932 616.89-102.499 133.080-261.73 202.677-459.979 202.677-84.994 0-176.526-13.076-270.377-39.228-46.399-12.865-34.166-62.216-17.505-71.918 126.542-115.575 165.77-239.796 204.997-357.48 64.747-191.921 125.276-375.407 557.205-404.722 13.709-16.872 31.214-49.773 13.92-90.266-10.967-21.723 0-47.875 21.723-56.733 30.159-10.967 50.195 4.429 54.413 24.043 33.112 74.238 5.694 138.985-24.465 176.736zM831.547 172.911c-355.371 28.261-399.028 161.341-459.979 344.404-34.799 104.608-71.918 222.291-174.417 337.866 60.951 13.076 120.004 19.614 176.526 17.505 169.988 0 305.176-56.733 390.17-167.879 95.961-126.331 120.004-313.823 67.7-531.897z" />
<glyph unicode="&#xe950;" glyph-name="lemon" d="M422.778 583.44c0-25.051-20.308-45.359-45.359-45.359s-45.359 20.308-45.359 45.359c0 25.051 20.308 45.359 45.359 45.359s45.359-20.308 45.359-45.359zM679.465 626.082c0-25.051-20.308-45.359-45.359-45.359s-45.359 20.308-45.359 45.359c0 25.051 20.308 45.359 45.359 45.359s45.359-20.308 45.359-45.359zM779.172 434.403c0-25.051-20.308-45.359-45.359-45.359s-45.359 20.308-45.359 45.359c0 25.051 20.308 45.359 45.359 45.359s45.359-20.308 45.359-45.359zM593.554 217.222c0-25.051-20.308-45.359-45.359-45.359s-45.359 20.308-45.359 45.359c0 25.051 20.308 45.359 45.359 45.359s45.359-20.308 45.359-45.359zM330.388 372.53c0-25.051-20.308-45.359-45.359-45.359s-45.359 20.308-45.359 45.359c0 25.051 20.308 45.359 45.359 45.359s45.359-20.308 45.359-45.359zM583.312 433.567c0-25.051-20.308-45.359-45.359-45.359s-45.359 20.308-45.359 45.359c0 25.051 20.308 45.359 45.359 45.359s45.359-20.308 45.359-45.359zM980.257 915.168c-74.414 74.414-171.821 41.597-213.627 0-239.128 96.989-468.432-28.219-581.726-139.422-163.46-165.55-217.807-398.826-141.721-581.935-47.449-47.449-66.889-146.529 0-213.627 53.093-53.093 147.365-63.963 213.627 2.090 235.784-95.944 468.432 28.428 581.935 139.422 163.46 163.46 220.107 396.527 141.721 579.635 53.72 54.138 62.29 151.336-0.209 213.836zM888.911 695.061c82.775-154.681 36.998-363.918-111.203-512.119-95.944-95.944-312.915-215.926-512.119-108.904-19.858 10.66-45.777 2.090-56.647-17.349-4.39-6.48-6.48-10.869-10.869-15.259-26.129-24.038-69.815-24.038-93.645 0-13.169 10.869-35.744 55.183 0 91.554 4.39 4.39 8.779 6.48 15.259 10.869 19.649 13.169 26.129 36.998 15.259 58.737-80.685 152.591-36.998 363.918 111.203 512.119 95.944 95.944 305.599 212.791 514.209 108.904 20.067-10.033 45.777-2.090 56.647 17.349 2.090 6.48 6.48 10.869 10.869 15.259 26.129 24.038 69.815 24.038 93.645 0 35.953-34.699 16.095-81.103 0-93.645-4.808-3.763-8.779-6.48-15.259-10.869-21.739-10.869-28.428-36.998-17.349-56.647z" />
<glyph unicode="&#xe951;" glyph-name="lungs" d="M659.938 694.278c-23.871 0-43.554-19.683-43.554-43.554v-115.376h-60.934v381.098c0 23.871-19.683 43.554-43.554 43.554s-43.554-19.683-43.554-43.554v-381.307h-60.934v115.376c0 23.871-19.683 43.554-43.554 43.554-213.582 0-363.718-202.694-363.718-492.287v-222.168c5.863-47.114 47.951-43.554 50.045-43.554l322.468 58.84c19.683 2.094 34.759 21.777 34.759 41.46v411.67h209.185v-413.973c0-19.683 15.286-37.063 34.759-41.46l322.468-56.537c39.994-1.047 50.045 30.572 50.045 43.554v222.168c0 289.802-148.251 492.496-363.928 492.496zM322.394 71.12l-237.453-41.251v172.122c0 180.707 74.126 374.607 237.453 403.084v-533.956zM938.852 29.869l-237.453 41.251v533.747c163.328-28.268 237.453-222.168 237.453-403.084v-171.913z" />
<glyph unicode="&#xe952;" glyph-name="masculine" d="M592.721 547.936h-117.792v117.792c0 17.335-13.993 31.328-31.328 31.328v0c-17.335 0-31.328-13.993-31.328-31.328v-117.792h-117.792c-17.335 0-31.328-13.993-31.328-31.328v0c0-17.335 13.993-31.328 31.328-31.328h117.792v-117.792c0-17.335 13.993-31.328 31.328-31.328v0c17.335 0 31.328 13.993 31.328 31.328v117.792h117.792c17.335 0 31.328 13.993 31.328 31.328v0c0 17.335-13.993 31.328-31.328 31.328zM980.35 210.64c-23.809 0-43.232-19.423-43.232-43.232v-83.75l-151.209 151.209c63.073 76.649 101.084 174.809 101.084 281.741 0 244.774-198.409 443.392-443.392 443.392-244.774 0-443.392-198.409-443.392-443.392s198.409-443.392 443.392-443.392c106.932 0 205.092 38.011 281.741 101.084l151.835-151.835h-84.794c-23.809 0-43.232-19.423-43.232-43.232s19.423-43.232 43.232-43.232h188.175c23.809 0 43.232 19.423 43.232 43.232v188.175c-0.209 23.809-19.632 43.232-43.441 43.232zM443.601 156.965c-198.618 0-359.643 161.025-359.643 359.643s161.025 359.434 359.643 359.434 359.643-161.025 359.643-359.643-161.025-359.434-359.643-359.434z" />
<glyph unicode="&#xe953;" glyph-name="medical-records" d="M989.798 269.652l-217.446 217.446v350.214c0 23.835-19.654 43.489-43.489 43.489h-152.212v34.917c0 23.835-19.654 43.489-43.489 43.489h-293.761c-23.835 0-43.489-19.654-43.489-43.489v-34.917h-152.421c-23.835 0-43.489-19.654-43.489-43.489v-857.031c0-23.835 19.654-43.489 43.489-43.489h685.165c23.835 0 43.489 19.654 43.489 43.489v63.352c77.57-64.816 165.385-11.081 200.092 21.536 61.052 60.843 69.625 152.212 17.563 204.483zM282.889 874.32h206.574v-74.015h-206.574v74.015zM84.888 21.68v772.143h111.023v-34.708c0-23.835 19.654-43.489 43.489-43.489h293.552c21.745 0 41.398 19.654 43.489 41.398v36.799h108.723v-241.282l-187.129 34.499c-13.59 5.645-52.062-3.763-47.88-47.88l37.008-200.092c0-8.781 4.391-15.263 10.872-21.745l187.129-187.129v-108.723l-600.277 0.209zM911.392 126.012c-17.354-15.263-54.152-39.098-84.888-17.354l-258.635 258.845-23.835 126.077 123.986-23.835 260.935-260.935c15.054-15.263 12.963-52.271-17.563-82.797zM317.597 595.822h-21.745v23.835c0 23.835-19.654 43.489-43.489 43.489s-43.489-19.654-43.489-43.489v-23.835h-26.135c-23.835 0-43.489-19.654-43.489-43.489s19.654-43.489 43.489-43.489h26.135v-23.835c0-23.835 19.654-43.489 43.489-43.489 21.745 0 41.398 17.354 43.489 43.489v23.835h23.835c23.835 0 41.398 19.654 41.398 43.489 0 24.045-19.445 43.489-43.489 43.489z" />
<glyph unicode="&#xe954;" glyph-name="medical-records-1" d="M896.582 879.545h-176.165v36.988c0 23.823-19.644 43.467-43.467 43.467h-328.090c-23.823 0-43.467-19.644-43.467-43.467v-36.988h-178.255c-11.494 0.836-41.586-9.404-43.467-43.467v-856.586c0-23.823 19.644-43.467 43.467-43.467h771.743c27.794-1.045 42.422 29.465 41.377 43.467v856.586c1.045 10.031-9.195 42.213-43.676 43.467zM392.327 873.067h243.455v-73.977h-243.455v73.977zM855.414 20.869h-687.108v771.743h136.878v-34.69c2.717-35.944 32.6-43.467 43.467-43.467h330.389c21.733 0 41.377 19.644 41.377 43.467v34.69h134.789v-771.743h0.209zM355.338 273.101h313.044c23.823 0 43.467 19.644 43.467 43.467s-19.644 43.467-43.467 43.467h-313.044c-23.823 0-43.467-19.644-43.467-43.467s19.644-43.467 43.467-43.467zM674.86 194.735h-313.044c-23.823 0-43.467-19.644-43.467-43.467s19.644-43.467 43.467-43.467h313.044c21.733 0 41.377 19.644 43.467 43.467 0 23.823-19.435 43.467-43.467 43.467zM446.66 501.301h23.823v-24.032c0-23.823 19.644-43.467 43.467-43.467s43.467 19.644 43.467 43.467v23.823h23.823c23.823 0 43.467 19.644 43.467 43.467s-19.644 43.467-43.467 43.467h-23.823v23.823c0 23.823-19.644 43.467-43.467 43.467s-43.467-19.644-43.467-43.467v-23.823h-23.823c-23.823 0-43.467-19.644-43.467-43.467 0-23.614 19.435-43.258 43.467-43.258z" />
<glyph unicode="&#xe955;" glyph-name="medical-records-2" d="M989.792 269.859l-217.567 217.567v350.026c0 23.989-19.608 43.597-43.597 43.597h-152.276v34.627c0 23.989-19.608 43.597-43.597 43.597h-293.287c-23.989 0-43.597-19.608-43.597-43.597v-34.836h-152.276c-23.989 0-43.597-19.608-43.597-43.597v-856.916c0-23.989 19.608-43.597 43.597-43.597h685.032c23.989 0 43.597 19.608 43.597 43.597v63.205c45.057-45.057 135.797-42.762 200.044 21.485 60.91 61.327 69.671 152.693 17.522 204.842zM282.857 874.373h206.511v-73.843h-206.511v73.843zM85.108 22.046v772.017h110.974v-34.836c0-23.989 19.608-43.597 43.597-43.597h293.287c21.694 0 41.302 19.608 43.597 41.302v37.13h108.679v-241.138l-187.111 34.627c-14.602 6.258-52.149-6.467-47.769-47.769l36.922-200.044c0-8.761 4.381-15.228 10.847-21.694l187.111-187.111v-108.679l-600.133-0.209zM911.36 126.345c-17.314-15.228-56.53-38.59-84.899-17.314l-258.66 258.66-23.989 126.201 123.907-23.989 260.955-260.955c15.436-15.228 13.142-52.149-17.314-82.604z" />
<glyph unicode="&#xe956;" glyph-name="medical-records-3" d="M920.951 629.617c-3.557 4.394-317.829 318.666-318.666 319.294-8.369 7.323-18.204 11.089-28.247 11.089h-435.838c-24.062 0-43.521-19.668-43.521-43.521v-936.958c0-24.062 19.668-43.521 43.521-43.521h749.692c24.062 0 41.429 19.668 41.429 41.429v627.289c-0.209 8.579-2.511 17.576-8.369 24.899zM617.559 813.953l165.506-165.715h-165.506v165.715zM846.463 20.74h-664.742v854.101h350.888v-268.031c0-24.062 19.668-43.521 43.521-43.521h270.123v-542.548h0.209zM338.648 589.443h39.336v80.556h80.556v39.336h-80.556v80.556h-39.336v-80.556h-80.556v-39.336h80.556zM674.262 181.852h-322.432c-24.062 0-43.521-19.668-43.521-43.521 0-24.062 19.668-43.521 43.521-43.521h322.432c24.062 0 43.521 19.668 43.521 43.521 0 24.062-19.668 43.521-43.521 43.521zM308.1 386.694c0-24.062 19.668-43.521 43.521-43.521h322.432c24.062 0 43.521 19.668 43.521 43.521s-19.668 43.521-43.521 43.521h-322.223c-24.062 0.209-43.73-19.459-43.73-43.521z" />
<glyph unicode="&#xe957;" glyph-name="medical-records-4" d="M885.579 805.387h-147.718l-11.283 58.711c-4.388 19.64-21.729 34.892-41.37 34.892h-122.019v17.342c0 24.028-19.64 43.668-43.668 43.668s-43.668-19.64-43.668-43.668v-17.342h-124.109c-19.64 0-36.982-15.252-41.37-34.892l-10.865-58.711h-161.090c-24.028 0-43.668-19.64-43.668-43.668v-782.051c0-24.028 19.64-43.668 43.668-43.668h745.069c24.028 0 43.668 19.64 45.757 43.668v782.051c-0.209 24.028-19.64 43.668-43.668 43.668zM650.316 816.251l21.729-113.244h-305.048l21.729 113.244h261.589zM841.911 21.246h-662.121v697.014h103.424l-9.82-52.234c-6.895-38.235 28.415-50.145 41.37-50.145h409.516c24.028 0 43.668 19.64 41.37 41.37 0 4.388-11.283 61.010-11.283 61.010h87.545v-697.014zM421.948 450.821c-5.432 14.208-19.013 23.401-34.057 23.401s-28.624-9.402-34.057-23.401l-116.796-304.421c-7.313-18.804 2.089-39.907 21.103-47.22 4.388-1.671 8.775-2.507 13.163-2.507 14.626 0 28.624 8.984 34.057 23.401l26.117 68.113h113.035l26.117-68.113c7.313-18.804 28.415-28.206 47.22-21.103 18.804 7.313 28.206 28.415 21.103 47.22l-117.005 304.63zM359.267 261.524l28.415 74.173 28.415-74.173h-56.831zM753.113 322.115h-55.368v55.368c0 20.267-16.297 36.564-36.564 36.564s-36.564-16.297-36.564-36.564v-55.368h-55.368c-20.267 0-36.564-16.297-36.564-36.564s16.297-36.564 36.564-36.564h55.368v-55.368c0-20.267 16.297-36.564 36.564-36.564s36.564 16.297 36.564 36.564v55.368h55.368c20.267 0 36.564 16.297 36.564 36.564s-16.297 36.564-36.564 36.564z" />
<glyph unicode="&#xe958;" glyph-name="medical-records-5" d="M905.347 687.506l-224.53 257.204c-8.797 10.891-19.688 15.29-32.674 15.29h-496.815c-23.877 0-43.566-19.688-43.566-43.566v-936.869c0-23.877 19.688-43.566 43.566-43.566h723.44c23.877 0 41.471 19.688 41.471 41.471v681.759c0 10.891-4.398 19.688-10.891 28.276zM691.708 802.913l116.454-132.791h-116.454v132.791zM604.577 874.963v-246.313c0-23.877 19.688-43.566 43.566-43.566h183.059v-191.647h-135.095c-17.384 0-32.674-10.891-39.167-26.181l-15.29-32.674-26.181 37.073c-6.493 12.986-19.688 19.688-34.769 19.688h-108.914c-17.384 0-32.674-10.891-39.167-28.276l-4.398-8.797-30.58 154.783c-3.77 26.6-49.221 58.646-80.638 10.891l-76.24-159.182h-47.964v514.199h411.778zM194.893 20.827h-2.094v252.806h74.145c17.384 0 32.674 8.797 39.167 23.877l32.674 67.652 34.769-178.661c20.107-54.247 74.145-38.12 82.733-4.398l45.66 124.204h56.551l54.457-82.733c31.417-39.167 70.375-12.986 74.145 4.398l34.769 78.544h108.914v-285.48l-635.89-0.209z" />
<glyph unicode="&#xe959;" glyph-name="medicine" d="M1022.94 599.45c-2.095 17.386-17.386 30.583-34.772 32.678-76.248 10.893-150.401 58.862-206.959 133.015-6.494 8.798-63.261 82.742-95.938 104.527-15.291 10.893-41.476 19.69-85.046 6.494-13.406-3.561-27.441-9.217-41.476-16.129v22.623c0 23.88-19.69 43.57-43.57 43.57s-43.57-19.69-43.57-43.57v-21.995c-15.082 7.75-30.792 13.616-45.665 17.596-34.772 10.893-65.355 8.798-87.141-6.494-32.678-21.785-87.141-98.033-95.938-104.527-56.558-74.153-128.616-122.122-206.959-133.015-17.386-2.095-30.583-15.291-34.772-32.678-4.399-17.386 4.399-37.077 19.69-45.665 60.747-37.915 133.015-82.532 212.615-93.425-6.494-11.94-10.055-25.137-10.055-39.59 0-48.807 41.266-83.789 100.337-106.412-29.117-22.833-45.874-51.321-45.874-83.161 0-69.754 81.066-124.008 193.972-135.11v-84.836c0-23.88 19.69-43.57 43.57-43.57s43.57 19.69 43.57 41.476v86.931c114.372 11.102 193.972 65.355 193.972 135.319 0 31.421-16.548 59.7-45.037 82.532 58.862 22.204 99.499 57.395 99.499 107.25 0 14.663-3.561 28.069-10.474 40.219 76.876 11.94 148.725 55.091 206.54 90.492 15.082 10.683 23.67 28.069 19.481 45.456zM310.315 714.869c6.494 8.798 54.463 71.849 71.849 85.046 21.366 1.885 71.849-23.67 89.026-43.151 0.209-0.628 0.209-1.257 0.419-1.885v-185.174c-3.352 1.466-43.989 18.015-133.015-9.636-24.718-7.332-75.829-36.658-191.667 19.69 60.956 28.488 117.514 74.153 163.389 135.11zM310.315 422.864c7.75 13.406 62.423 43.57 161.294 50.692v-101.594c-98.871 7.332-153.753 37.496-161.294 50.902zM362.473 233.292c0 11.102 37.286 40.638 108.926 49.645v-99.29c-71.64 9.007-108.926 38.752-108.926 49.645zM558.749 183.647v99.29c71.849-9.007 108.926-38.543 108.926-49.645s-37.286-40.638-108.926-49.645zM558.749 372.172v101.594c98.871-7.122 153.543-37.286 161.294-50.692-7.75-15.501-62.423-44.199-161.294-50.902zM682.966 557.974c-83.789 26.394-123.589 12.778-124.217 12.568v186.64c18.015 19.69 63.68 40.638 80.647 40.638 19.69-12.987 65.355-76.248 71.849-85.046 45.665-60.956 102.432-106.831 163.389-135.11-113.534-56.767-168.835-25.556-191.667-19.69z" />
<glyph unicode="&#xe95a;" glyph-name="medicine-1" d="M980.532 517.427h-324.963l353.176 369.685c15.256 17.345 15.256 45.558-2.090 60.813s-45.558 15.256-60.813-2.090l-409.6-428.408h-492.774c-23.824 0-43.468-19.644-43.468-43.468 0-234.893 123.925-443.455 315.141-532.689 4.389-2.090 10.867-4.389 17.345-4.389h356.519c6.478 0 12.957 2.090 21.734 4.389 189.336 89.234 313.26 300.095 313.26 532.689 0 24.033-19.644 43.468-43.468 43.468zM680.438 21.728h-339.174c-143.36 73.979-241.162 230.504-254.328 408.764h847.83c-12.957-180.349-108.669-336.875-254.328-408.764z" />
</font>
</defs>
</svg>
