<?xml version="1.0" standalone="no"?>
<!DOCTYPE svg PUBLIC "-//W3C//DTD SVG 1.1//EN" "http://www.w3.org/Graphics/SVG/1.1/DTD/svg11.dtd" >
<svg xmlns="http://www.w3.org/2000/svg">
<metadata>Generated by IcoMoon</metadata>
<defs>
<font id="social-icons" horiz-adv-x="1024">
<font-face units-per-em="1024" ascent="960" descent="-64" />
<missing-glyph horiz-adv-x="1024" />
<glyph unicode="&#x20;" horiz-adv-x="512" d="" />
<glyph unicode="&#xe900;" glyph-name="landing-page" d="M0 896.66v-897.32h1024v897.32h-1024zM992.33 31.010h-960.66v686.186h960.66v-686.186zM992.33 748.866h-960.66v116.124h960.66v-116.124zM79.176 822.762h42.226v-31.67h-42.226v31.67zM142.516 822.762h42.226v-31.67h-42.226v31.67zM902.598 822.762h42.226v-31.67h-42.226v31.67zM73.896 674.97v-601.732h876.206v601.732h-876.206zM918.432 104.908h-812.864v84.452h812.866v-84.452zM918.432 221.030h-496.164v137.238h263.918v232.248h-295.588v-369.484h-285.030v422.266h812.866v-422.268zM422.268 389.938v168.908h232.248v-168.908h-232.248zM533.114 516.618h73.896v-31.67h-73.896v31.67zM469.774 463.836h137.238v-31.67h-137.238v31.67zM142.516 601.072h42.226v-31.67h-42.226v31.67zM142.516 537.732h42.226v-31.67h-42.226v31.67zM205.856 601.072h42.226v-31.67h-42.226v31.67zM839.258 294.928h42.226v-31.67h-42.226v31.67zM839.258 358.268h42.226v-31.67h-42.226v31.67zM775.918 294.928h42.226v-31.67h-42.226v31.67z" />
<glyph unicode="&#xe901;" glyph-name="wordpress" d="M307.17 643.976h-56.549l154.167-435.794 86.307 246.637-66.915 189.157h-59.664v41.525h264.211v-41.525h-61.871l154.165-435.794 55.416 158.364c72.695 202.895-59.582 266.098-59.582 311.379s36.708 81.987 81.987 81.987c2.45 0 4.829-0.133 7.159-0.35-76.721 72.425-180.172 116.839-294.006 116.839-148.741 0-279.76-75.817-356.566-190.9h151.736v-41.525h0.005zM83.599 448c0-164.014 92.186-306.477 227.555-378.465l-193.329 546.498c-22.023-51.594-34.226-108.387-34.226-168.033zM884.834 659.102c6.128-36.081 4.273-76.634-5.131-117.345h1.704l-6.478-18.509c-3.838-13.365-8.671-27.037-14.161-40.471l-147.408-412.966c135.086 72.075 227.036 214.385 227.036 378.191 0 76.758-20.207 148.789-55.563 211.1zM379.876 40.398c41.619-13.482 86.012-20.795 132.124-20.795 43.982 0 86.41 6.638 126.353 18.951l-125.312 354.228-133.164-352.384zM874.037 810.039c-96.704 96.704-225.279 149.961-362.039 149.961s-265.334-53.257-362.037-149.961-149.961-225.277-149.961-362.039c0-136.76 53.257-265.334 149.961-362.037s225.279-149.961 362.039-149.961 265.334 53.257 362.039 149.961c96.704 96.704 149.961 225.279 149.961 362.037-0.002 136.762-53.259 265.336-149.963 362.039zM511.998-27.88c-262.401 0-475.88 213.479-475.88 475.88s213.479 475.882 475.88 475.882 475.88-213.481 475.88-475.882-213.476-475.88-475.88-475.88z" />
<glyph unicode="&#xe902;" glyph-name="wikipedia" d="M1017.305 751.306h-204.040v-34.853h20.41c15.95 0 30.332-8.186 38.478-21.899 8.143-13.713 8.451-30.259 0.821-44.264l-219.434-402.775-99.937 238.245 94.133 172.739c19.481 35.748 56.872 57.955 97.582 57.955h11.144v34.853h-210.737v-34.853h20.41c15.95 0 30.332-8.186 38.478-21.899 8.143-13.713 8.451-30.259 0.821-44.264l-68.279-125.327-60.85 145.063c-4.411 10.514-3.319 21.992 2.993 31.486s16.474 14.941 27.877 14.941h22.296v34.853h-249.411v-34.853h9.943c46.559 0 88.278-27.743 106.29-70.676l89.91-214.339-100.201-183.922-177.234 422.511c-4.411 10.514-3.319 21.992 2.993 31.486s16.474 14.941 27.877 14.941h30.665v34.853h-270.305v-34.853h22.466c46.559 0 88.28-27.743 106.29-70.676l204.312-487.064c3.574-8.518 11.86-14.023 21.113-14.023 8.492 0 15.99 4.46 20.059 11.929l128.403 235.631 97.962-233.535c3.574-8.518 11.86-14.023 21.113-14.023 8.492 0 15.99 4.46 20.059 11.929l273.497 501.882c19.481 35.748 56.872 57.955 97.582 57.955h11.144v34.853l-6.695-0.004z" />
<glyph unicode="&#xe903;" glyph-name="whatsapp" d="M487.171 959.407c-270.437-12.877-483.85-238.099-483.030-508.842 0.25-82.462 20.157-160.295 55.276-229.067l-53.919-261.729c-2.917-14.157 9.852-26.554 23.917-23.224l256.463 60.761c65.89-32.821 139.897-51.779 218.223-52.974 276.413-4.222 506.893 215.257 515.508 491.567 9.235 296.186-235.216 537.662-532.438 523.506zM793.187 170.949c-75.107-75.107-174.969-116.471-281.186-116.471-62.194 0-121.738 13.954-176.985 41.473l-35.716 17.792-157.239-37.254 33.098 160.67-17.596 34.457c-28.68 56.167-43.222 116.904-43.222 180.521 0 106.219 41.363 206.078 116.471 281.188 74.436 74.436 175.927 116.473 281.196 116.473 106.217-0.002 206.073-41.366 281.181-116.471 75.107-75.107 116.471-174.967 116.473-281.183-0.002-105.271-42.039-206.762-116.475-281.196zM758.475 342l-98.373 28.246c-12.933 3.713-26.86 0.044-36.284-9.558l-24.056-24.509c-10.144-10.335-25.535-13.655-38.961-8.224-46.535 18.833-144.426 105.869-169.425 149.404-7.212 12.558-6.020 28.259 2.836 39.717l21.002 27.171c8.229 10.646 9.965 24.943 4.523 37.249l-41.388 93.607c-9.913 22.42-38.564 28.947-57.281 13.117-27.455-23.221-60.032-58.508-63.992-97.601-6.982-68.924 22.577-155.808 134.355-260.134 129.134-120.526 232.544-136.449 299.874-120.139 38.189 9.25 68.708 46.332 87.969 76.694 13.131 20.701 2.762 48.193-20.802 54.96z" />
<glyph unicode="&#xe904;" glyph-name="vine" d="M995.264 456.904c-2.22 15.556-16.382 26.54-31.999 24.811-11.828-1.309-23.858-2.233-35.429-2.233-76.194 0-184.961 5.767-252.205 50.642-5.846 4.057-11.422 8.326-16.666 12.84-50.454 43.402-61.414 96.864-61.719 134.072-0.406 49.232 11.249 85.532 34.643 107.89 20.792 19.873 46.2 24.023 55.265 24.023 0.462 0 0.879-0.011 1.253-0.032 2.82-0.151 28.088-2.257 46.628-29.421 14.319-20.978 31.9-68.644 9.752-166.312-2.371-10.456 3.409-20.988 13.461-24.718 34.874-12.949 78.796-18.203 112.823-20.266 10.458-0.635 19.86 6.473 22.085 16.711 10.23 47.093 14.489 90.733 12.68 130.384-2.658 58.252-18.147 108.506-46.038 149.365-38.315 56.128-99.368 91.679-163.322 95.098-45.903 2.456-114.411-13.496-168.959-65.635-37.625-35.96-82.272-103.032-81.321-218.338 0.799-96.806 41.379-184.645 114.262-247.341 22.268-19.156 50.844-38.75 87.016-55.594-39.34-69.562-81.927-127.554-117.308-170.703-33.122-40.391-63.657-72.475-86.469-94.928-114.754 91.103-182.627 261.668-220.385 396.13-36.921 131.494-52.044 252.627-57.187 303.36-1.418 13.995-13.689 24.328-27.724 23.38l-98.706-6.63c-14.701-0.982-25.674-13.907-24.241-28.568 5.323-54.476 21.23-184.733 61.661-329.64 31.136-111.597 70.526-208.981 117.077-289.445 61.167-105.729 135.365-183.235 220.539-230.362 11.446-6.332 24.028-9.444 36.555-9.444 17.149 0 34.184 5.833 48.011 17.213 2.713 2.233 67.348 55.78 144.987 149.888 45.369 54.991 86.201 112.924 121.365 172.185 11.013 18.559 21.477 37.266 31.375 56.090 53.040-6.685 114.629-7.445 185.922 0.648 16.257 1.845 27.743 16.833 25.43 33.029l-13.111 91.851z" />
<glyph unicode="&#xe905;" glyph-name="vimeo" d="M981.609 836.676c-24.792 26.717-60.683 40.949-106.66 42.299-129.812 4.186-221.619-64.873-272.862-205.231-2.69-7.371-1.048-15.543 4.28-21.331 5.301-5.754 13.264-8.043 20.791-5.979 14.737 4.053 29.35 6.106 43.441 6.106 18.917 0 44.094-3.478 56.627-20.047 9.619-12.717 10.929-31.785 3.891-56.672-5.941-20.996-36.513-77.201-74.355-136.675-46.1-72.461-71.566-104.944-78.909-104.944-24.325 0-112.223 389.752-114.639 398.3-25.212 89.325-37.868 134.163-119.851 134.163-62.483 0-201.846-114.103-316.275-213.51-7.038-6.113-12.965-11.264-17.554-15.185-11.061-9.456-12.729-25.882-3.791-37.393l21.324-27.472c8.982-11.575 25.365-13.991 37.306-5.5l1.173 0.835c37.021 26.338 71.994 51.212 98.395 52.576 28.69 1.409 53.583-43.412 83.262-150.067 56.523-207.159 142.399-454.101 230.531-454.101 92.1 0 201.973 78.074 343.999 262.901 128.543 167.283 197.372 299.957 201.794 396.486v0c3.32 72.907-10.782 126.886-41.916 160.444z" />
<glyph unicode="&#xe906;" glyph-name="twitter" d="M1007.715 774.801c-22.752-10.089-46.37-18.048-70.604-23.81 26.704 25.376 46.782 57.115 58.109 92.542v0c3.233 10.114-7.752 18.859-16.885 13.444v0c-33.714-19.998-70.030-35-107.941-44.595-2.2-0.557-4.469-0.839-6.746-0.839-6.906 0-13.619 2.564-18.899 7.218-40.335 35.549-92.213 55.128-146.072 55.128-23.306 0-46.837-3.633-69.94-10.798-71.583-22.202-126.816-81.25-144.145-154.101-6.501-27.325-8.261-54.676-5.235-81.29 0.347-3.058-1.099-5.193-1.99-6.194-1.565-1.755-3.785-2.761-6.089-2.761-0.257 0-0.522 0.012-0.784 0.037-156.693 14.558-297.991 90.048-397.868 212.562v0c-5.093 6.249-14.86 5.483-18.919-1.48v0c-19.558-33.555-29.894-71.933-29.894-110.985 0-59.849 24.045-116.25 65.811-157.367-17.564 4.164-34.563 10.723-50.354 19.494v0c-7.64 4.244-17.039-1.211-17.147-9.949v0c-1.094-88.91 50.961-168.022 128.94-203.647-1.57-0.037-3.141-0.055-4.714-0.055-12.361 0-24.876 1.193-37.195 3.548v0c-8.603 1.643-15.831-6.519-13.16-14.86v0c25.311-79.020 93.349-137.267 174.768-150.491-67.573-45.361-146.264-69.289-228.166-69.289l-25.533 0.015c-7.867 0-14.52-5.128-16.525-12.748-1.975-7.505 1.663-15.422 8.371-19.324 92.29-53.71 197.56-82.096 304.475-82.096 93.586 0 181.127 18.572 260.195 55.198 72.484 33.577 136.537 81.574 190.38 142.659 50.157 56.903 89.379 122.591 116.572 195.238 25.922 69.249 39.624 143.139 39.624 213.683v3.36c-0.002 11.327 5.121 21.985 14.058 29.24 33.917 27.538 63.452 59.954 87.781 96.347v0c6.424 9.609-3.707 21.653-14.278 16.965v0z" />
<glyph unicode="&#xe907;" glyph-name="tumblr" d="M753.757 145.661c0 0-30.385-34.944-88.119-34.944s-83.561 34.944-83.561 86.598c0 20.753 0 147.959 0 292.71h186.676v177.388h-186.676c0 157.033 0 292.588 0 292.588h-140.57c-21.967-131.299-108.538-240.634-225.961-294.298v-175.674h137.12c0-170.746 0-325.3 0-337.076 0-46.793 44.058-216.951 268.913-216.951 132.177 0 186.871 85.079 186.871 85.079l-54.694 124.582z" />
<glyph unicode="&#xe908;" glyph-name="trello" d="M899.173 960h-774.347c-68.94 0-124.827-55.887-124.827-124.827v-774.347c0-68.94 55.887-124.827 124.827-124.827h774.347c68.94 0 124.827 55.887 124.827 124.827v774.347c0 68.94-55.887 124.827-124.827 124.827zM445.44 161.868c0-32.020-25.957-57.975-57.975-57.975h-196.367c-32.020 0-57.975 25.957-57.975 57.975v598.333c0 32.020 25.957 57.975 57.975 57.975h196.367c32.020 0 57.975-25.957 57.975-57.975v-598.333zM890.88 419.267c0-32.020-25.957-57.975-57.975-57.975h-196.367c-32.020 0-57.975 25.957-57.975 57.975v340.934c0 32.020 25.957 57.975 57.975 57.975h196.367c32.020 0 57.975-25.957 57.975-57.975v-340.934z" />
<glyph unicode="&#xe909;" glyph-name="stumbleupon" d="M862.964 411.659v-111.937c0-37.673-30.827-69.752-68.492-69.121-36.612 0.614-66.203 30.583-66.203 67.339v107.899c0 13.454-13.404 22.79-26.023 18.126l-59.419-21.963c-4.458-1.648-9.369-1.595-13.792 0.149l-35.389 13.963c-12.681 5.002-26.416-4.344-26.416-17.974v-96.734c0-125.332 99.525-229.914 224.842-231.822 127.551-1.943 231.929 101.247 231.929 228.358v113.722c0 9.647-7.82 17.47-17.47 17.47h-126.1c-9.647-0.007-17.467-7.828-17.467-17.475zM567.229 608.574v-53.485c0-7.935 4.851-15.064 12.231-17.974l50.819-20.049c4.423-1.744 9.331-1.799 13.792-0.149l71.571 26.455c7.587 2.803 12.624 10.037 12.624 18.126v45.399c0 118.679-94.242 217.715-212.909 219.524-120.782 1.841-219.626-95.874-219.626-216.241v-310.458c0-37.673-30.827-69.752-68.492-69.121-36.612 0.614-66.203 30.583-66.203 67.339v113.722c0 9.647-7.82 17.47-17.47 17.47h-126.097c-9.647 0-17.47-7.82-17.47-17.47v-110.253c0-125.329 99.52-229.914 224.837-231.827 127.551-1.948 231.934 101.244 231.934 228.358v312.242c0 31.376 26.301 56.725 58.013 55.16 29.669-1.469 52.446-27.064 52.446-56.768z" />
<glyph unicode="&#xe90a;" glyph-name="spotify" d="M512 960c-282.77 0-512-229.23-512-512s229.23-512 512-512 512 229.23 512 512-229.23 512-512 512zM734.829 216.948c-6.511-11.139-18.227-17.35-30.261-17.353-6.001 0-12.078 1.544-17.633 4.789-92.008 53.77-198.298 62.412-271.282 60.192-80.844-2.459-140.132-18.418-140.721-18.581-18.636-5.091-37.895 5.876-43.007 24.51-5.11 18.631 5.819 37.878 24.445 43.009 2.672 0.735 66.47 18.064 155.188 20.99 52.257 1.724 102.565-1.918 149.506-10.823 59.455-11.278 113.689-31.075 161.201-58.842 16.697-9.755 22.319-31.2 12.564-47.892zM799.921 352.137c-7.71-13.196-21.589-20.552-35.845-20.554-7.107 0-14.307 1.827-20.887 5.673-108.982 63.693-234.89 73.924-321.338 71.298-95.764-2.914-165.992-21.818-166.689-22.010-22.070-6.022-44.887 6.958-50.942 29.031-6.053 22.072 6.894 44.868 28.956 50.947 3.165 0.872 78.735 21.399 183.823 24.864 61.904 2.040 121.493-2.272 177.095-12.82 70.426-13.361 134.667-36.81 190.945-69.698 19.778-11.556 26.44-36.956 14.882-56.73zM839.935 475.058c-8.718 0-17.549 2.241-25.621 6.958-259.098 151.422-595.198 61.401-598.562 60.472-27.089-7.464-55.092 8.445-62.553 35.532-7.464 27.086 8.445 55.092 35.532 62.553 3.881 1.070 96.576 26.248 225.478 30.498 75.936 2.5 149.025-2.787 217.226-15.724 86.385-16.388 165.187-45.15 234.215-85.492 24.256-14.175 32.428-45.33 18.253-69.586-9.458-16.187-26.48-25.211-43.967-25.211z" />
<glyph unicode="&#xe90b;" glyph-name="soundcloud" d="M1023.712 356.814c-4.082 59.428-52.894 107.178-112.393 110.062-22.738 1.102-44.155-4.208-62.605-14.272-2.459 118.346-99.096 213.543-218.030 213.543-31.459 0-61.34-6.685-88.344-18.681-5.812-2.582-9.514-8.401-9.514-14.761v-386.674c0-8.933 7.243-16.177 16.177-16.177h356.416c68.261 0.002 123.051 57.681 118.294 126.96zM501.293 641.106c-8.995 0-16.284-7.291-16.284-16.284v-378.258c0-8.995 7.291-16.284 16.284-16.284s16.286 7.291 16.286 16.284v378.258c0 8.993-7.294 16.284-16.286 16.284zM447.404 600.881c-8.995 0-16.284-7.291-16.284-16.284v-338.032c0-8.995 7.291-16.284 16.284-16.284s16.284 7.291 16.284 16.284v338.032c0 8.993-7.291 16.284-16.284 16.284zM393.513 582.552c-8.995 0-16.284-7.291-16.284-16.284v-319.703c0-8.995 7.291-16.284 16.284-16.284 8.995 0 16.284 7.291 16.284 16.284v319.703c0.002 8.995-7.289 16.284-16.284 16.284zM339.624 606.989c-8.995 0-16.284-7.291-16.284-16.284v-344.141c0-8.995 7.291-16.284 16.284-16.284s16.284 7.291 16.284 16.284v344.141c0 8.993-7.291 16.284-16.284 16.284zM285.733 590.698c-8.995 0-16.284-7.291-16.284-16.284v-327.85c0-8.995 7.291-16.284 16.284-16.284s16.284 7.291 16.284 16.284v327.85c0 8.993-7.289 16.284-16.284 16.284zM231.844 558.114c-8.995 0-16.284-7.291-16.284-16.284v-295.266c0-8.995 7.291-16.284 16.284-16.284s16.284 7.291 16.284 16.284v295.266c0.002 8.995-7.289 16.284-16.284 16.284zM177.955 494.985c-8.995 0-16.284-7.291-16.284-16.284v-232.137c0-8.995 7.291-16.284 16.284-16.284 8.995 0 16.284 7.291 16.284 16.284v232.137c0 8.993-7.291 16.284-16.284 16.284zM124.064 468.512c-8.995 0-16.284-7.291-16.284-16.284v-205.664c0-8.995 7.291-16.284 16.284-16.284s16.284 7.291 16.284 16.284v205.664c0 8.993-7.289 16.284-16.284 16.284zM70.175 462.437c-8.995 0-16.284-7.291-16.284-16.284v-193.514c0-8.995 7.291-16.284 16.284-16.284s16.284 7.291 16.284 16.284v193.514c0 8.993-7.291 16.284-16.284 16.284zM16.284 419.915c-8.995 0-16.284-7.291-16.284-16.284v-111.51c0-8.995 7.291-16.284 16.284-16.284s16.284 7.291 16.284 16.284v111.51c0 8.995-7.289 16.284-16.284 16.284z" />
<glyph unicode="&#xe90c;" glyph-name="snapchat" d="M511.546 886.264c137.434-0.046 251.914-114.463 252.080-252.229 0.039-32.268 1.034-61.981 2.856-89.354 1.124-16.888 15.17-29.403 31.277-29.403 2.372 0 4.788 0.271 7.215 0.84l43.053 10.093c1.832 0.431 3.671 0.636 5.488 0.636 10.934 0 21.003-7.471 23.458-18.537 3.47-15.637-5.291-31.437-20.443-36.75l-65.353-26.382c-16.499-6.66-25.361-24.617-20.714-41.794 52.431-193.838 198.877-173.679 198.877-198.932 0-31.712-110.383-36.19-120.355-46.165s-0.433-58.38-22.715-67.752c-4.2-1.767-10.167-2.381-17.446-2.381-16.783 0-40.519 3.275-65.537 3.275-21.701 0-44.365-2.464-64.29-11.669-52.86-24.418-103.821-70.028-166.997-70.028s-114.137 45.609-166.997 70.028c-19.929 9.207-42.588 11.669-64.29 11.669-25.015 0-48.756-3.275-65.537-3.275-7.274 0-13.248 0.617-17.446 2.381-22.282 9.371-12.743 57.777-22.715 67.752s-120.355 14.455-120.355 46.167c0 25.256 146.446 5.097 198.877 198.932 4.646 17.175-4.215 35.132-20.717 41.794l-65.353 26.382c-15.154 5.313-23.915 21.112-20.443 36.75 2.455 11.068 12.524 18.539 23.458 18.537 1.815 0 3.656-0.206 5.488-0.636l43.053-10.093c2.427-0.568 4.843-0.84 7.215-0.84 16.105 0 30.153 12.517 31.277 29.403 1.821 27.372 2.818 57.086 2.858 89.354 0.166 137.764 113.735 252.179 251.171 252.227zM511.564 940.925h-0.039c-41.022-0.013-80.984-8.256-118.77-24.501-36.271-15.592-68.915-37.823-97.024-66.079-28.072-28.218-50.164-60.978-65.661-97.369-16.114-37.841-24.309-77.835-24.359-118.873-0.024-20.148-0.442-39.702-1.246-58.426l-16.018 3.756c-5.877 1.377-11.921 2.077-17.957 2.079-17.433 0.002-34.629-5.89-48.421-16.591-14.389-11.164-24.479-27.062-28.409-44.765-9.351-42.139 13.917-84.681 54.239-99.641l47.964-19.361c-31.76-97.485-90.324-116.166-129.761-128.749-10.464-3.339-19.503-6.223-28.109-10.493-34.29-17.019-37.992-45.852-37.992-57.458 0-22.23 10.521-42.516 29.629-57.119 9.513-7.272 21.298-13.272 36.026-18.342 20.074-6.911 43.344-11.297 62.257-14.813 0.914-7.008 2.254-14.536 4.513-22.123 9.378-31.509 29.167-45.618 44.118-51.904 14.186-5.967 28.844-6.656 38.635-6.656 9.577 0 19.7 0.75 30.418 1.544 11.499 0.853 23.388 1.732 35.119 1.732 18.178 0 31.71-2.169 41.368-6.629 13.261-6.126 27.324-14.387 42.214-23.13 41.451-24.344 88.431-51.937 147.706-51.937s106.253 27.593 147.703 51.937c14.89 8.746 28.953 17.004 42.216 23.13 9.658 4.463 23.189 6.629 41.368 6.629 11.73 0 23.62-0.881 35.117-1.732 10.718-0.794 20.841-1.544 30.418-1.544 9.791 0 24.447 0.689 38.635 6.656 14.951 6.286 34.741 20.395 44.118 51.904 2.259 7.587 3.601 15.115 4.513 22.123 18.913 3.518 42.185 7.902 62.257 14.813 14.73 5.070 26.513 11.070 36.026 18.342 19.105 14.603 29.629 34.889 29.629 57.119 0 11.606-3.702 40.438-37.996 57.456-8.606 4.27-17.645 7.154-28.109 10.493-39.437 12.581-98.001 31.264-129.761 128.749l47.962 19.361c40.323 14.96 63.593 57.504 54.241 99.643-3.929 17.704-14.020 33.601-28.409 44.765-13.792 10.698-30.984 16.591-48.412 16.591-6.037 0-12.080-0.7-17.962-2.077l-16.020-3.756c-0.805 18.723-1.222 38.276-1.246 58.426-0.050 41.070-8.311 81.104-24.554 118.995-15.592 36.374-37.804 69.125-66.018 97.345-28.212 28.218-60.947 50.426-97.293 66.005-37.858 16.226-77.849 24.46-118.86 24.475v0z" />
<glyph unicode="&#xe90d;" glyph-name="skype" d="M982.701 369.915c-16.246 22.455-23.776 49.881-23.745 77.597 0.003 0.161 0.003 0.322 0.003 0.485 0 246.846-200.11 446.956-446.956 446.956-54 0-105.743-9.611-153.657-27.175-25.921-9.501-54.317-11.327-80.892-3.841-23.474 6.612-48.55 9.401-74.527 7.614-109.122-7.509-196.971-96.939-202.625-206.173-2.7-52.138 12.936-100.504 41-139.295 16.246-22.455 23.776-49.881 23.742-77.597 0-0.161 0-0.322 0-0.485 0-246.846 200.107-446.956 446.956-446.956 54.003 0 105.745 9.611 153.657 27.175 25.921 9.501 54.317 11.327 80.892 3.841 23.474-6.612 48.547-9.401 74.527-7.614 109.122 7.509 196.968 96.936 202.625 206.168 2.7 52.138-12.936 100.507-41 139.3zM528.364 528.128c90.122-21.431 226.309-53.816 226.309-203.828 0-73.899-36.393-130.272-102.479-158.732-47.158-20.31-100.53-23.050-146.521-23.050-141.331 0-230.595 109.896-234.326 114.575-23.145 29.029-18.381 71.329 10.65 94.474 29.024 23.155 71.324 18.379 94.474-10.643 0.207-0.248 53.589-61.555 129.202-63.953 91.052-2.889 111.855 24.202 114.544 47.327 3.287 28.243-21.837 48.976-122.967 73.025-85.719 20.386-215.273 51.193-215.273 189.35 0 43.023 17.498 183.399 242.668 183.399 142.179 0 226.102-111.941 229.606-116.707 21.99-29.916 15.569-71.996-14.346-93.984-29.785-21.893-71.6-15.628-93.675 13.925-1.584 2.036-49.623 55.482-121.586 62.314-54.452 5.172-108.215-14.464-108.215-43.47 0-30.733 15.439-41.072 111.934-64.020z" />
<glyph unicode="&#xe90e;" glyph-name="shutterstock" d="M0 901.561v-907.121c0-32.274 26.163-58.439 58.439-58.439h907.121c32.274 0 58.439 26.163 58.439 58.439v907.121c-0.003 32.277-26.165 58.439-58.439 58.439h-907.121c-32.277 0-58.439-26.163-58.439-58.439zM466.855 680.8h-160.701c-16.14 0-29.266-13.126-29.266-29.266v-154.586h-134.084v154.586c0 90.069 73.281 163.35 163.35 163.35h160.703l-0.003-134.084zM881.196 244.466c0-90.069-73.281-163.35-163.35-163.35h-160.703v134.084h160.703c16.14 0 29.266 13.126 29.266 29.266v154.586h134.084v-154.586z" />
<glyph unicode="&#xe90f;" glyph-name="scribd" d="M355.284 268.082c-96.904 40.783-197.106 82.957-279.184 146.576-29.232 22.659-54.583 46.984-76.1 72.886v-305.454c7.654 0.98 15.439 1.541 23.359 1.541 100.754 0 182.43-81.676 182.43-182.43 0-22.98-4.29-44.946-12.045-65.197h316.276c28.935 9.111 55.259 21.856 74.834 39.5 16.563 14.927 35.574 39.037 35.574 93.429 0.003 78.916-84.908 123.295-265.144 199.149zM918.112 960h-107.677c4.969-5.001 9.311-9.507 13.074-13.493 41.205-33.447 67.556-84.483 67.556-141.691 0-100.754-81.676-182.43-182.433-182.43-100.754 0-182.43 81.679-182.43 182.43 0 15.705 1.986 30.941 5.718 45.48-44.041 29.175-94.745 53.031-141.506 53.031-38.346 0-100.537-11.244-149.608-42.934-46.57-30.085-67.342-68.348-67.342-124.078 0-96.274 90.848-145.046 283.682-226.205 92.802-39.058 188.761-79.445 266.549-138.488 105.72-80.245 159.326-182.086 159.326-302.693 0-47.33-6.978-91.877-20.613-132.929h55.704c58.476 0 105.885 47.406 105.885 105.882v812.233c0.003 58.479-47.403 105.885-105.885 105.885z" />
<glyph unicode="&#xe910;" d="M1024 491.458c0 71.021-57.573 128.592-128.594 128.592-35.569 0-67.701-14.501-90.974-37.845-71.912 46.38-163.784 75.937-264.685 80.548 0.062 42.842 19.25 82.779 52.674 109.592 33.484 26.859 76.728 36.918 118.614 27.614l5.753-1.277c-0.057-1.442-0.217-2.855-0.217-4.311 0-59.284 48.061-107.345 107.345-107.345s107.345 48.061 107.345 107.345c0 59.287-48.061 107.345-107.345 107.345-38.121 0-71.514-19.927-90.559-49.874l-10.287 2.285c-58.408 12.978-118.69-1.053-165.369-38.5-46.621-37.401-73.378-93.114-73.44-152.875-100.877-4.609-192.733-34.151-264.638-80.51-23.275 23.349-55.455 37.809-91.031 37.809-71.018-0.002-128.592-57.573-128.592-128.594 0-49.483 28-92.353 68.979-113.851-3.112-15.918-4.749-32.194-4.749-48.761 0-184.774 200.473-334.562 447.77-334.562s447.77 149.789 447.77 334.562c0 16.557-1.637 32.826-4.745 48.737 40.981 21.502 68.976 64.386 68.976 113.874zM823.915 846.228c28.596 0 51.859-23.263 51.859-51.859 0-28.594-23.263-51.857-51.859-51.857s-51.859 23.263-51.859 51.857c0 28.596 23.265 51.859 51.859 51.859zM55.486 491.458c0 40.311 32.795 73.106 73.106 73.106 17.265 0 33.112-6.048 45.616-16.104-39.11-33.553-69.388-72.994-88.188-116.3-18.464 13.261-30.533 34.873-30.533 59.299zM795.41 136.726c-75.046-56.072-175.697-86.954-283.409-86.954s-208.363 30.881-283.409 86.954c-70.208 52.457-108.875 120.687-108.875 192.12 0 71.435 38.667 139.666 108.875 192.123 75.046 56.072 175.697 86.954 283.409 86.954s208.363-30.881 283.409-86.954c70.208-52.457 108.875-120.687 108.875-192.123-0.002-71.433-38.667-139.663-108.875-192.12zM937.964 432.192c-18.804 43.299-49.080 82.729-88.183 116.276 12.504 10.056 28.36 16.095 45.627 16.095 40.311 0 73.106-32.795 73.106-73.106-0.002-24.423-12.087-46.009-30.55-59.265z" />
<glyph unicode="&#xe911;" d="M406.994 406.975c0-32.337-26.214-58.551-58.551-58.551s-58.551 26.214-58.551 58.551c0 32.337 26.214 58.551 58.551 58.551s58.551-26.214 58.551-58.551z" />
<glyph unicode="&#xe912;" d="M734.086 406.975c0-32.337-26.214-58.551-58.551-58.551s-58.551 26.214-58.551 58.551c0 32.337 26.214 58.551 58.551 58.551s58.551-26.214 58.551-58.551z" />
<glyph unicode="&#xe913;" d="M650.749 264.703c-41.274-37.604-94.779-58.312-150.663-58.312-62.749 0-120.888 25.288-163.703 71.207-10.447 11.21-28.003 11.82-39.21 1.37-11.207-10.447-11.82-28.005-1.37-39.21 52.653-56.465 127.112-88.85 204.286-88.85 69.741 0 136.518 25.848 188.031 72.784 11.324 10.318 12.144 27.867 1.823 39.191-10.316 11.317-27.853 12.146-39.193 1.821z" />
<glyph unicode="&#xe914;" glyph-name="quora" d="M925.46 156.468c0 0-5.011-73.505-71.833-73.505-51.606 0-86.848 39.361-119.85 90.473 93.735 81.818 153.258 203.997 153.258 340.529 0.002 246.337-193.711 446.034-432.669 446.034s-432.671-199.697-432.671-446.036 193.714-446.036 432.671-446.036c43.367 0 85.227 6.606 124.727 18.846 49.973-79.39 113.411-150.773 212.722-150.773 202.135 0 210.489 220.466 210.489 220.466l-76.845 0.002zM454.366 141.432c-139.316 0-252.253 166.789-252.253 372.532s112.937 372.532 252.253 372.532 252.251-166.789 252.251-372.532c0-81.813-17.872-157.451-48.146-218.907-34.199 48.826-75.25 90.404-133.943 103.64-104.119 23.477-193.783-23.388-222.183-46.776l26.728-55.128c0 0 27.020 15.535 94.019 0.019 42.215-9.776 75.020-68.361 112.617-135.576-25.519-12.834-52.88-19.804-81.344-19.804z" />
<glyph unicode="&#xe915;" glyph-name="plaxo" d="M511.999 960c-282.768 0-511.999-229.23-511.999-511.999 0-133.353 51.014-254.76 134.548-345.873v348.397c0 208.363 169.518 377.88 377.88 377.88s377.872-169.518 377.872-377.88-169.512-377.88-377.872-377.88c-58.797 0-106.453 47.657-106.453 106.453s47.657 106.453 106.453 106.453c90.963 0 164.965 74.003 164.965 164.974 0 90.963-74.003 164.974-164.965 164.974s-164.974-74.011-164.974-164.974v-487.347c51.661-17.529 106.961-27.179 164.544-27.179 282.771 0 511.999 229.23 511.999 512.001 0 282.768-229.23 511.999-511.999 511.999z" />
<glyph unicode="&#xe916;" glyph-name="pinterest" d="M1023.784 432.99c8.357 292.175-228.144 531.191-519.407 526.955-280.332-4.077-506.507-235.592-504.362-515.946 1.539-200.888 118.779-374.216 288.364-456.685 9.81-4.769 21.166 2.647 20.756 13.549-1.236 32.942-0.171 68.158 6.42 96.466 6.488 27.874 31.944 135.667 48.68 206.479 8.146 34.474 9.129 70.27 2.57 105.082-2.153 11.423-3.712 24.843-3.712 39.757 0 75.673 43.861 132.171 98.475 132.171 46.431 0 68.86-34.861 68.86-76.661 0-46.694-29.731-116.505-45.075-181.204-12.821-54.17 27.167-98.343 80.591-98.343 96.73 0 171.082 101.993 171.082 249.218 0 130.304-93.631 221.413-227.327 221.413-154.849 0-245.742-116.147-245.742-236.18 0-46.773 18.020-96.933 40.502-124.199 4.444-5.388 5.1-10.112 3.776-15.609-4.131-17.191-13.313-54.157-15.115-61.72-2.376-9.963-7.888-12.074-18.199-7.28-67.976 31.641-110.469 131.014-110.469 210.836 0 171.678 124.733 329.335 359.59 329.335 188.791 0 335.51-134.528 335.51-314.319 0-187.562-118.263-338.511-282.41-338.511-43.377 0-84.713 17.727-109.014 41.763-7.473 7.391-20.108 4.025-22.775-6.142-8.558-32.606-22.392-85.348-26.849-102.5-8.024-30.859-24.935-66.8-41.887-98.1-4.504-8.317 0.052-18.591 9.221-20.915 41.852-10.614 85.751-16.093 131.002-15.674 268.66 2.493 499.262 228.399 506.944 496.965z" />
<glyph unicode="&#xe917;" d="M512.001 960c-222.352 0-402.604-180.25-402.604-402.602 0-264.284 327.374-621.398 402.602-621.398s402.602 347.057 402.602 621.398c0.003 222.352-180.247 402.602-402.599 402.602zM510.181 256.049c-158.267 0-286.566 128.301-286.566 286.568 0 158.265 128.301 286.566 286.566 286.566 158.267 0 286.566-128.301 286.566-286.566 0-158.267-128.298-286.568-286.566-286.568z" />
<glyph unicode="&#xe918;" d="M510.181 773.825c-7.112 0-14.136-0.372-21.086-1 17.068-19.712 27.416-45.399 27.416-73.519 0-62.079-50.323-112.403-112.403-112.403-43.472 0-81.153 24.694-99.852 60.806-16.129-31.541-25.287-67.237-25.287-105.095 0-127.693 103.515-231.209 231.209-231.209s231.209 103.515 231.209 231.209c0.003 127.696-103.513 231.211-231.206 231.211z" />
<glyph unicode="&#xe919;" d="M857.752 695.44c1.734 14.090 2.64 28.436 2.64 42.994 0 122.366-99.198 221.566-221.566 221.566h-370.284c-23.292 0-43.178-16.82-47.042-39.788l-136.44-810.95c-4.896-29.1 17.536-55.618 47.042-55.618h135.422c23.292 0 43.552 16.808 47.414 39.778 0 0 0.226 1.346 0.634 3.77h0.002l-18.872-112.172c-4.312-25.646 15.458-49.020 41.464-49.020h118.474c20.53 0 38.058 14.826 41.462 35.070l33.658 200.040c5.802 34.484 35.656 59.734 70.622 59.734h31.124c169.060 0 306.108 137.050 306.108 306.108 0 65.418-32.336 123.244-81.862 158.488z" />
<glyph unicode="&#xe91a;" d="M857.752 695.44c-21.188-172.358-168.088-305.82-346.172-305.82h-103.33c-23.322 0-43.464-15.534-49.782-37.498l-61.764-367.098c-4.314-25.648 15.456-49.024 41.462-49.024h118.474c20.53 0 38.058 14.826 41.462 35.070l33.658 200.040c5.802 34.484 35.656 59.734 70.622 59.734h31.124c169.060 0 306.108 137.050 306.108 306.108v0c0 65.418-32.336 123.244-81.862 158.488z" />
<glyph unicode="&#xe91b;" d="M408.25 389.62h103.33c178.086 0 324.986 133.462 346.172 305.818-31.776 22.612-70.608 35.956-112.58 35.956h-269.7c-30.706 0-56.924-22.174-62.020-52.454l-54.986-326.816c6.318 21.964 26.462 37.496 49.784 37.496z" />
<glyph unicode="&#xe91c;" glyph-name="path" d="M833.587 857.906c-88.004 65.836-203.853 102.094-326.207 102.094-122.149 0-236.814-37.091-322.868-104.439-90.619-70.925-140.529-166.993-140.529-270.514 0-95.897 15.132-170.047 89.344-255.551 8.907-10.262 24.548-11.097 34.404-1.743l72.924 69.216c9.176 8.71 9.871 23.056 1.684 32.699-45.059 53.063-50.376 91.759-50.376 155.379 0 125.154 141.494 226.976 315.415 226.976 90.611 0 174.976-25.787 237.564-72.606 56.163-42.015 87.091-95.866 87.091-151.631 0-53.464-11.85-126.714-68.298-172.052-53.133-42.677-137.927-54.017-238.888-32.001v271.512c0 13.13-10.645 23.772-23.772 23.772h-105.339c-13.13 0-23.772-10.645-23.772-23.772v-553.762c-0.742-5.648-4.249-8.933-5.801-10.133-4.169-3.215-7.629-2.509-8.767-2.273l-87.526 17.839c-12.866 2.622-25.419-5.682-28.042-18.545l-21.036-103.216c-2.622-12.866 5.682-25.419 18.545-28.042l87.526-17.839c10.771-2.196 21.636-3.274 32.454-3.274 35.888 0 71.194 11.886 100.275 34.339 38.715 29.891 62.461 75.092 65.14 124.011l0.116 2.092v136.621c32.492-5.446 64.033-8.149 94.358-8.149 93.358 0 175.129 25.6 237.192 75.446 80.869 64.949 123.618 164.34 123.618 287.428 0 103.547-52.002 199.48-146.431 270.118z" />
<glyph unicode="&#xe91d;" glyph-name="myspace" d="M277.075 505.663c0-72.849-59.056-131.905-131.905-131.905s-131.905 59.056-131.905 131.905c0 72.849 59.056 131.905 131.905 131.905s131.905-59.056 131.905-131.905zM143.384 339.279c-79.857-0.962-143.384-67.605-143.384-147.467v-37.141c0-8.598 6.971-15.569 15.569-15.569h259.205c8.598 0 15.569 6.971 15.569 15.569v39.447c0 80.764-65.965 146.135-146.96 145.16zM622.030 535.789c0-78.847-63.918-142.766-142.766-142.766s-142.766 63.918-142.766 142.766c0 78.847 63.918 142.766 142.766 142.766s142.766-63.918 142.766-142.766zM477.33 355.732c-86.42-1.040-155.167-73.159-155.167-159.587v-41.475c0-8.598 6.971-15.569 15.569-15.569h283.067c8.598 0 15.569 6.971 15.569 15.569v43.97c-0.003 87.41-71.388 158.146-159.038 157.091zM844.083 429.921c90.291 0 163.486 73.201 163.486 163.502 0 90.28-73.198 163.481-163.486 163.481-90.296 0-163.486-73.201-163.486-163.481 0-90.301 73.193-163.502 163.486-163.502zM844.081 387.208v0c-99.367 0-179.919-80.552-179.919-179.919v-52.62c0-8.598 6.971-15.569 15.569-15.569h328.7c8.598 0 15.569 6.971 15.569 15.569v52.617c0.003 99.37-80.552 179.922-179.919 179.922z" />
<glyph unicode="&#xe91e;" d="M999.291 15.263l-315.377 151.612-2.376 687.276c-0.055 16.044 16.695 26.616 31.154 19.663l298.992-143.777c7.528-3.619 12.315-11.236 12.315-19.588v-679.649c-0.003-12.7-13.265-21.040-24.709-15.537z" />
<glyph unicode="&#xe91f;" d="M683.914 166.874l-341.332 164.114 328.603 541.016c5.805 9.557 17.917 13.151 27.995 8.306l303.171-145.788c11.589-5.574 15.833-19.934 9.133-30.909l-327.57-536.739z" />
<glyph unicode="&#xe920;" d="M683.914 166.874l-341.332 164.114-312.864 509.47c-8.717 14.194 6.45 31 21.461 23.782l291.402-140.126 341.332-557.24z" />
<glyph unicode="&#xe921;" d="M317.873 15.265l-308.105 148.159c-5.972 2.873-9.768 8.912-9.768 15.537v683.339c0 12.297 12.846 20.376 23.931 15.045l318.651-153.23v-693.312c0-12.7-13.265-21.040-24.709-15.537z" />
<glyph unicode="&#xe922;" glyph-name="linkedin" d="M931.371 960h-838.742c-51.157 0-92.629-41.472-92.629-92.629v-838.739c0-51.16 41.472-92.632 92.629-92.632h838.739c51.16 0 92.632 41.472 92.632 92.632v838.739c0 51.157-41.472 92.629-92.629 92.629zM316.869 75.811c0-14.888-12.068-26.956-26.956-26.956h-114.747c-14.888 0-26.956 12.068-26.956 26.956v481.015c0 14.888 12.068 26.956 26.956 26.956h114.747c14.888 0 26.956-12.068 26.956-26.956v-481.015zM232.539 629.125c-60.204 0-109.010 48.806-109.010 109.010s48.806 109.010 109.010 109.010 109.010-48.806 109.010-109.010-48.804-109.010-109.010-109.010zM916.534 73.64c0-13.687-11.098-24.785-24.785-24.785h-123.132c-13.687 0-24.785 11.098-24.785 24.785v225.623c0 33.658 9.873 147.491-87.959 147.491-75.886 0-91.278-77.915-94.369-112.881v-260.233c0-13.687-11.095-24.785-24.785-24.785h-119.090c-13.687 0-24.785 11.098-24.785 24.785v485.357c0 13.687 11.098 24.785 24.785 24.785h119.090c13.687 0 24.785-11.098 24.785-24.785v-41.965c28.139 42.228 69.956 74.822 158.993 74.822 197.166 0 196.037-184.202 196.037-285.412v-232.802z" />
<glyph unicode="&#xe923;" glyph-name="kickstarter" d="M669.526 448.001l204.8 272.168c49.733 66.093 36.471 159.991-29.623 209.724-66.096 49.739-159.997 36.471-209.73-29.623l-215.864-286.873v196.822c0 82.716-67.055 149.771-149.771 149.771s-149.771-67.055-149.771-149.771v-724.437c0-82.716 67.055-149.771 149.771-149.771s149.771 67.055 149.771 149.771v196.822l215.864-286.876c29.437-39.117 74.334-59.729 119.791-59.729 31.343 0 62.96 9.807 89.939 30.106 66.093 49.733 79.355 143.634 29.623 209.724l-204.8 272.171z" />
<glyph unicode="&#xe924;" glyph-name="instagram" d="M718.945 960h-413.89c-168.208 0-305.055-136.847-305.055-305.055v-413.89c0-168.208 136.847-305.055 305.055-305.055h413.89c168.208 0 305.055 136.847 305.055 305.055v413.89c-0.002 168.208-136.849 305.055-305.055 305.055zM920.986 241.055c0-111.583-90.458-202.041-202.041-202.041h-413.89c-111.583 0-202.041 90.458-202.041 202.041v413.89c0 111.585 90.458 202.041 202.041 202.041h413.89c111.583 0 202.041-90.456 202.041-202.041v-413.89zM512 712.843c-146.035 0-264.843-118.808-264.843-264.841s118.808-264.843 264.843-264.843 264.843 118.808 264.843 264.843-118.808 264.841-264.843 264.841zM512 286.172c-89.376 0-161.828 72.452-161.828 161.828s72.454 161.828 161.828 161.828c89.376 0 161.828-72.452 161.828-161.828 0-89.374-72.454-161.828-161.828-161.828zM840.818 710.854c0-35.049-28.413-63.462-63.462-63.462s-63.462 28.413-63.462 63.462c0 35.049 28.413 63.462 63.462 63.462s63.462-28.413 63.462-63.462z" />
<glyph unicode="&#xe925;" glyph-name="html-5" d="M64.476 926.102l66.46-850.231c0.998-12.767 9.64-23.655 21.848-27.525l349.712-110.875c6.184-1.96 12.824-1.96 19.008 0l349.712 110.875c12.208 3.871 20.85 14.758 21.848 27.525l66.46 850.231c1.429 18.28-13.017 33.898-31.351 33.898h-832.343c-18.334 0-32.78-15.619-31.354-33.898zM789.093 662.303h-433.13l13.072-120.539h410.638l-26.863-343.639-240.809-76.347-240.809 76.347-14.034 179.531h126.395v-88.062l131.825-35.38 131.037 35.38 10.166 140.347h-403.51l-26.79 342.738h571.437l-8.626-110.375z" />
<glyph unicode="&#xe926;" glyph-name="howcast" d="M771.214 571.060h-399.158l-159.326 252.73c-20.854 33.080-57.222 53.142-96.324 53.142h-77.499c-30.579 0-49.168-33.695-32.863-59.564l214.161-339.716-208.918-401.82c-13.445-25.861 5.32-56.766 34.466-56.766h67.803c42.482 0 81.433 23.649 101.029 61.341l162.41 312.382h408.975l-164.794-316.954c-13.445-25.861 5.32-56.766 34.466-56.766h67.803c42.482 0 81.433 23.649 101.029 61.341l191.031 367.426c12.35 23.755 11.166 52.281-3.113 74.932l-189.768 301.022c-20.854 33.077-57.222 53.142-96.324 53.142h-77.501c-30.579 0-49.171-33.695-32.863-59.564l155.278-246.309z" />
<glyph unicode="&#xe927;" d="M992.493 509.344v174.422h-326.372l-31.003-155.795v130.336h-189.557v-87.152h-52.831v-34.731c-0.932 1.090-1.88 2.155-2.847 3.196-19.172 20.63-45.374 31.535-75.772 31.535-25.806 0-49.859-6.273-71.716-18.678v131.289h-242.395v-152.301h39.171v-154.435h-39.171v-152.299h656.659v34.763c3.769-2.814 7.704-5.479 11.79-7.981 42.581-26.065 95.675-39.28 157.803-39.28 27.749 0 71.761 8.652 112.057 32.932 47.99 28.916 76.79 71.243 83.292 122.407 7.473 58.834-2.583 107.635-29.107 141.772z" />
<glyph unicode="&#xe928;" d="M622.616 342.989h-21.541v194.123h-174.306v-84.217h39.168v-109.906h-39.168v-84.217h195.847z" />
<glyph unicode="&#xe929;" d="M479.6 624.271h121.484v-70.514h-121.484v70.514z" />
<glyph unicode="&#xe92a;" d="M390.978 423.518c0 0 8.323 113.594-76.872 113.594-56.563 0-89.796-39.264-105.758-65.667v178.28h-174.308v-84.217h39.171v-222.52h-39.171v-84.217h195.849v84.217h-21.543v39.401c0 0-4.785 73.016 30.356 73.016 14.014 0 19.584-11.89 19.584-22.189 0-29.568 0-90.229 0-90.229h-19.584v-84.217h179.202v84.217h-26.929v80.529h0.002z" />
<glyph unicode="&#xe92b;" d="M868.361 528.297c-43.676 0-75.553-11.158-97.362-23.316l7.566 38.006h179.887v106.738h-264.397l-39.171-196.83 102.82-14.69c0 0 16.647 17.201 42.108 17.201s33.279-38.952 29.377-68.122c-3.818-28.548-18.606-53.858-47.983-54.837-13.677-0.457-22.68 6.728-28.401 14.538 3.73 7.881 5.877 16.658 5.877 25.958 0 33.596-27.234 60.828-60.828 60.828s-59.801-27.248-60.828-60.828c-0.799-26.156 5.446-65.62 49.192-92.395 48.277-29.55 103.985-34.274 140.032-34.274 48.3 0 149.804 32.932 161.575 125.589 11.696 92.044-23.498 156.434-119.464 156.434z" />
<glyph unicode="&#xe92c;" glyph-name="google-plus" d="M359.274 380.414h159.984c-28.082-79.396-104.139-136.32-193.182-135.663-108.041 0.798-197.376 87.228-201.571 195.191-4.496 115.728 88.35 211.311 203.097 211.311 52.466 0 100.345-19.991 136.441-52.748 8.55-7.761 21.564-7.81 29.973 0.105l58.761 55.304c9.189 8.65 9.222 23.258 0.060 31.937-57.244 54.232-134.034 88.035-218.714 89.688-180.614 3.526-332.856-144.559-334.114-325.205-1.269-182.002 145.886-329.938 327.593-329.938 174.744 0 317.495 136.823 327.057 309.176 0.255 2.161 0.422 75.19 0.422 75.19h-295.808c-12.125 0-21.953-9.828-21.953-21.953v-80.444c0-12.125 9.83-21.953 21.953-21.953zM926.164 497.459v78.598c0 10.626-8.612 19.238-19.238 19.238h-66.153c-10.626 0-19.238-8.612-19.238-19.238v-78.598h-78.598c-10.626 0-19.238-8.612-19.238-19.238v-66.153c0-10.626 8.612-19.238 19.238-19.238h78.598v-78.598c0-10.626 8.612-19.238 19.238-19.238h66.153c10.626 0 19.238 8.612 19.238 19.238v78.598h78.598c10.626 0 19.238 8.612 19.238 19.238v66.153c0 10.626-8.612 19.238-19.238 19.238h-78.598z" />
<glyph unicode="&#xe92d;" glyph-name="foursquare" d="M851.187 920.506c-21.435 25.099-52.661 39.494-85.67 39.494h-507.044c-62.123 0-112.663-50.54-112.663-112.663v-859.799c0-21.406 13.233-40.584 33.246-48.181 5.96-2.262 12.148-3.357 18.28-3.357 14.458 0 28.589 6.093 38.564 17.34l271.938 306.558h182.493c55.756 0 102.555 39.969 111.276 95.040l75.191 474.776c5.161 32.602-4.173 65.693-25.61 90.792zM725.192 672.412h-241.015c-28.892 0-53.235-23.644-52.688-52.533 0.53-28.003 23.397-50.54 51.526-50.54h217.991c15.855 0 27.962-14.165 25.492-29.827l-24.416-154.855c-1.979-12.552-12.799-21.794-25.506-21.789l-191.918 0.097c-14.739 0-28.773-6.311-38.552-17.337l-197.227-222.336v724.044c0 5.296 4.294 9.593 9.593 9.593h486.001c15.727 0 27.8-13.949 25.54-29.514l-19.282-132.9c-1.838-12.69-12.714-22.104-25.538-22.104z" />
<glyph unicode="&#xe92e;" d="M484.5 448c0-133.791-108.459-242.25-242.25-242.25s-242.25 108.459-242.25 242.25c0 133.791 108.459 242.25 242.25 242.25s242.25-108.459 242.25-242.25z" />
<glyph unicode="&#xe92f;" d="M1024 448c0-133.791-108.459-242.25-242.25-242.25s-242.25 108.459-242.25 242.25c0 133.791 108.459 242.25 242.25 242.25s242.25-108.459 242.25-242.25z" />
<glyph unicode="&#xe930;" glyph-name="facebook" d="M886.009 960h-748.018c-76.206 0-137.986-61.777-137.986-137.986v-748.023c0-76.209 61.777-137.986 137.986-137.986h368.919l0.629 365.92h-95.066c-12.354 0-22.382 9.99-22.429 22.344l-0.456 117.951c-0.048 12.422 10.010 22.517 22.432 22.517h94.893v113.971c0 132.262 80.778 204.28 198.764 204.28h96.817c12.387 0 22.432-10.042 22.432-22.432v-99.457c0-12.385-10.037-22.424-22.419-22.432l-59.415-0.028c-64.165 0-76.589-30.49-76.589-75.237v-98.668h140.992c13.434 0 23.857-11.731 22.274-25.072l-13.98-117.951c-1.338-11.287-10.909-19.792-22.274-19.792h-126.383l-0.629-365.92h219.513c76.206 0 137.984 61.777 137.984 137.984v748.030c-0.003 76.209-61.78 137.986-137.989 137.986z" />
<glyph unicode="&#xe931;" glyph-name="etsy" d="M891.889 235.378l-34.945-112.384c-18.624-59.887-74.045-100.694-136.759-100.694h-267.575c-39.721 0-71.919 32.201-71.919 71.919v301.928h193.705c50.842 0 92.059-41.217 92.059-92.059v-23.693c0-7.038 5.706-12.744 12.744-12.744h39.718c7.038 0 12.744 5.706 12.744 12.744v348.493c0 7.038-5.706 12.744-12.744 12.744h-39.718c-7.038 0-12.744-5.706-12.744-12.744v-37.12c0-50.842-41.217-92.059-92.059-92.059h-193.705v302.067c0 39.721 32.201 71.919 71.919 71.919h254.117c65.671 0 118.908-53.237 118.908-118.908v-71.643c0-7.038 5.706-12.744 12.744-12.744h46.443c6.646 0 12.178 5.107 12.703 11.736l19.562 246.135c1.359 17.102-12.152 31.728-29.306 31.728h-807.084c-11.208 0-20.293-9.085-20.293-20.293v-45.717c0-11.208 9.085-20.293 20.293-20.293h51.626c39.721 0 71.919-32.201 71.919-71.919v-707.554c0-39.721-32.201-71.919-71.919-71.919h-51.626c-11.208 0-20.293-9.085-20.293-20.293v-45.717c0-11.208 9.085-20.293 20.293-20.293h813.576c14.559 0 26.925 10.656 29.077 25.058l40.104 268.655c1.15 7.703-4.817 14.625-12.605 14.625h-46.789c-5.584 0-10.514-3.629-12.172-8.961z" />
<glyph unicode="&#xe932;" glyph-name="envato" d="M824.196 948.325c-37.48 20.119-124.667 13.961-227.15-16.347-77.858-62.816-331.263-288.666-334.263-569.507-0.241-22.695-31.223-29.041-40.188-8.187-24.135 56.143-43.748 149.853-17.262 293.899 3.917 21.307-23.138 33.815-36.869 17.060-9.225-11.257-17.975-22.819-26.191-34.681-161.603-233.329-46.056-532.383 144.102-636.325 190.158-103.944 472.792-80.791 608.927 168.259 136.135 249.044 23.714 734.932-71.108 785.829z" />
<glyph unicode="&#xe933;" glyph-name="dropbox" d="M475.162 383.753l-262.448 169.246c-8.517 5.493-19.597 4.911-27.492-1.442l-176.446-141.992c-12.497-10.056-11.483-29.397 1.999-38.090l262.448-169.246c8.517-5.493 19.597-4.911 27.492 1.442l176.446 141.99c12.497 10.058 11.483 29.399-1.999 38.093zM546.841 345.662l176.446-141.99c7.897-6.354 18.974-6.935 27.492-1.442l262.448 169.246c13.481 8.694 14.496 28.034 1.999 38.090l-176.446 141.99c-7.897 6.354-18.974 6.935-27.492 1.442l-262.448-169.246c-13.479-8.694-14.496-28.034-1.999-38.090zM477.161 790.118l-176.446 141.99c-7.897 6.354-18.974 6.935-27.492 1.442l-262.448-169.246c-13.481-8.694-14.496-28.034-1.999-38.090l176.446-141.99c7.897-6.354 18.974-6.935 27.492-1.442l262.448 169.246c13.481 8.694 14.496 28.034 1.999 38.090zM1013.227 764.305l-262.448 169.246c-8.517 5.493-19.597 4.911-27.492-1.442l-176.446-141.99c-12.497-10.056-11.483-29.397 1.999-38.090l262.45-169.246c8.517-5.493 19.597-4.911 27.492 1.442l176.446 141.99c12.495 10.058 11.48 29.399-2.001 38.090zM499.141 320.733l-197.596-157.621c-7.162-5.713-17.17-6.216-24.868-1.252l-48.703 31.409c-14.198 9.156-32.898-1.037-32.898-17.93v-16.98c0-7.46 3.897-14.379 10.276-18.246l294.175-178.326c6.798-4.121 15.322-4.121 22.12 0l294.175 178.326c6.379 3.867 10.276 10.784 10.276 18.246v15.155c0 16.893-18.702 27.086-32.898 17.93l-45.848-29.566c-7.712-4.973-17.74-4.458-24.902 1.28l-196.664 157.548c-7.785 6.235-18.851 6.246-26.647 0.027z" />
<glyph unicode="&#xe934;" glyph-name="dribbble" d="M512 960c-282.77 0-512-229.23-512-512s229.23-512 512-512 512 229.23 512 512-229.232 512-512 512zM926.056 484.818c-54.348 2.184-157.184 2.239-274.042-18.194-10.556 25.309-21.338 49.58-32.174 72.739 6.768 3.159 13.482 6.371 20.067 9.689 80.263 40.449 146.917 92.777 198.864 155.942 50.083-63.423 80.242-139.398 87.284-220.176zM770.41 773.64c-48.487-61.764-113.116-111.351-193.406-148.413-9.032 17.019-17.934 33.207-26.573 48.403-44.194 77.723-86.362 139.581-117.908 182.493 25.916 4.989 52.496 7.563 79.476 7.563 95.028 0 185.171-31.697 258.41-90.046zM218.064 741.936c34.68 34.68 74.415 62.464 117.537 82.695 30.274-39.315 80.133-108.673 132.374-200.843 5.971-10.537 12.083-21.603 18.268-33.072-40.141-12.41-83.244-22.4-129.316-29.903-103.359-16.831-196.509-16.32-248.825-13.927 17.787 73.225 55.32 140.406 109.962 195.050zM96.314 448c0 0.985 0.029 1.967 0.036 2.95 17.763-0.946 40.37-1.722 66.724-1.722 55.679 0 128.090 3.467 206.851 16.118 56.816 9.128 110.364 22.010 160.204 38.506 8.81-18.666 17.594-38.119 26.25-58.304-63.842-17.173-122.454-39.638-175.022-67.165-85.298-44.666-154.779-102.702-207.089-172.845-50.62 70.194-77.954 154.22-77.954 242.461zM240.758 132.969c73.143 107.123 191.056 181.749 351.31 222.466 32.14-88.373 59.64-187.193 75.496-293.127-48.785-19.67-101.378-29.995-155.564-29.995-100.648 0-195.838 35.53-271.242 100.655zM805.933 154.067c-15.343-15.343-31.685-29.316-48.86-41.906-16.446 94.104-41.181 182.356-69.669 262.708 100.963 15.834 189.794 15.439 236.053 13.587-12.607-88.44-53.228-170.095-117.525-234.39z" />
<glyph unicode="&#xe935;" glyph-name="deviantart" d="M835.030 960h-206.44l-85.063-164.646c-10.274-19.888-30.79-32.382-53.176-32.382h-301.377v-261.502h163.133c18.061 0 29.709-19.127 21.418-35.173l-184.551-357.217v-173.081h206.090l85.063 164.646c10.274 19.888 30.79 32.382 53.176 32.382h301.728v261.502h-163.484c-18.061 0-29.709 19.127-21.418 35.173l184.902 357.891v172.406z" />
<glyph unicode="&#xe936;" d="M0 960h512v-512h-512v512z" />
<glyph unicode="&#xe937;" d="M512 960h512v-512h-512v512z" />
<glyph unicode="&#xe938;" d="M0 448h512v-512h-512v512z" />
<glyph unicode="&#xe939;" d="M512 448h512v-512h-512v512z" />
<glyph unicode="&#xe93a;" glyph-name="creative-market" d="M1023.594 491.99l-36.32 363.765c-3.981 39.886-36.153 71.085-76.14 73.841l-350.684 24.178c-23.328 1.607-46.238-6.796-62.993-23.106l-472.593-460.053c-32.84-31.97-33.195-84.621-0.786-117.026l387.48-387.48c31.797-31.797 83.244-32.143 115.465-0.775l472.115 459.593c17.941 17.46 26.943 42.148 24.457 67.063zM752.746 373.492l-59.184-100.263-115.733 79.574c-7.634 5.249-17.953-0.642-17.313-9.884l9.696-140.115h-116.43l9.696 140.115c0.64 9.241-9.679 15.135-17.313 9.884l-115.733-79.574-59.184 100.263 129.062 64.612c8.152 4.082 8.152 15.714 0 19.796l-129.062 64.609 59.184 100.263 115.733-79.574c7.634-5.249 17.953 0.642 17.313 9.884l-9.696 140.115h116.43l-9.696-140.115c-0.64-9.241 9.679-15.135 17.313-9.884l115.733 79.574 59.184-100.263-148.832-74.507 148.832-74.51zM828.843 707.231c-31.691 0-57.378 25.69-57.378 57.378s25.69 57.378 57.378 57.378c31.691 0 57.378-25.69 57.378-57.378s-25.69-57.378-57.378-57.378z" />
<glyph unicode="&#xe93b;" glyph-name="buffer" d="M41.229 700.288l462.285-222.52c5.363-2.58 11.612-2.58 16.975 0l462.285 222.523c14.778 7.107 14.778 28.148 0 35.258l-462.291 222.515c-5.36 2.58-11.609 2.58-16.972 0l-462.282-222.517c-14.778-7.109-14.778-28.148 0-35.258zM41.229 430.377l462.285-222.523c5.363-2.58 11.612-2.58 16.975 0l462.285 222.52c14.778 7.107 14.778 28.148 0 35.264l-97.531 46.94-309.777-149.1c-19.678-9.468-41.627-14.471-63.464-14.471s-43.78 5.003-63.494 14.485l-309.742 149.097-97.54-46.949c-14.775-7.118-14.775-28.157 0.003-35.264zM982.774 195.721l-97.531 46.949-309.777-149.109c-19.678-9.468-41.627-14.471-63.464-14.471s-43.78 5.003-63.494 14.485l-309.742 149.094-97.54-46.952c-14.778-7.115-14.778-28.148 0-35.264l462.285-222.52c5.363-2.58 11.612-2.58 16.975 0l462.285 222.52c14.781 7.118 14.781 28.154 0.003 35.266z" />
<glyph unicode="&#xe93c;" glyph-name="box" d="M520.982 553.006c-75.34 0-140.227-45.567-168.58-110.581-28.356 65.014-93.242 110.581-168.58 110.581-35.149 0-68.019-9.924-95.973-27.104v151.249c0 24.259-19.666 43.923-43.923 43.923s-43.926-19.664-43.926-43.926v-307.962c0-101.359 82.462-183.819 183.819-183.819 75.34 0 140.227 45.567 168.58 110.581 28.356-65.016 93.242-110.581 168.58-110.581 101.357 0 183.819 82.462 183.819 183.819 0.004 101.357-82.458 183.819-183.817 183.819zM183.819 273.217c-52.919 0-95.973 43.051-95.973 95.973 0 52.917 43.054 95.97 95.973 95.97s95.97-43.051 95.97-95.97c0.002-52.921-43.051-95.973-95.97-95.973zM520.982 273.217c-52.919 0-95.97 43.051-95.97 95.973 0 52.917 43.051 95.97 95.97 95.97s95.97-43.051 95.97-95.97c0.002-52.921-43.051-95.973-95.97-95.973zM905.38 371.009l107.761 123.246c15.968 18.262 14.107 46.012-4.155 61.98s-46.012 14.107-61.98-4.155l-99.973-114.34-99.973 114.34c-15.968 18.262-43.715 20.12-61.98 4.155-18.262-15.968-20.122-43.718-4.155-61.98l107.761-123.246-107.761-123.246c-15.968-18.262-14.107-46.012 4.155-61.98 8.329-7.285 18.633-10.856 28.895-10.856 12.231 0 24.402 5.080 33.085 15.011l99.973 114.34 99.973-114.34c8.685-9.933 20.851-15.011 33.085-15.011 10.259 0 20.563 3.575 28.895 10.856 18.262 15.968 20.122 43.718 4.155 61.98l-107.761 123.246z" />
<glyph unicode="&#xe93d;" glyph-name="bing" d="M405.583 700.416l106.416-244.655 145.2-58.128-550.562-305.826 234.815 240.201v529.833l-241.319 98.16v-874.852l244.34-149.148 579.395 346.123v239.888z" />
<glyph unicode="&#xe93e;" glyph-name="behance" d="M433.37 498.435c17.724 27.588 27.845 60.501 27.259 95.788-1.568 94.427-80.152 169.467-174.595 169.467h-263.671c-12.35 0-22.363-10.013-22.363-22.363v-579.844c0-12.35 10.013-22.363 22.363-22.363h294.531c109.317 0 199.871 87.617 200.318 196.934 0.275 66.996-32.949 126.393-83.842 162.382zM115.674 648.015h172.612c31.26 0 56.694-25.432 56.694-56.694 0-31.26-25.432-56.694-56.694-56.694h-172.612v113.389zM319.463 254.793h-203.789v164.16h203.787c45.258 0 82.080-36.822 82.080-82.080s-36.819-82.080-82.078-82.080zM1024 377.172c0 135.017-106.415 244.859-237.22 244.859s-237.22-109.844-237.22-244.859 106.418-244.861 237.22-244.861c79.37 0 153.121 40.688 197.285 108.843 5.506 8.497 10.507 17.376 14.945 26.527 3.221 6.643-1.666 14.374-9.051 14.391l-116.61 0.29c-2.58 0.007-5.026-1.048-6.875-2.846-22.019-21.41-49.015-31.53-79.694-31.53-57.952 0-106.532 43.344-118.625 101.126h332.63c12.821 0 23.214 10.393 23.214 23.214v4.845zM786.78 506.357c42.444 0 79.853-23.259 101.6-58.399h-203.197c21.745 35.14 59.156 58.399 101.597 58.399zM885.351 650.774h-210.403c-9.817 0-17.775 7.958-17.775 17.775v52.783c0 9.817 7.958 17.775 17.775 17.775h210.403c9.817 0 17.775-7.958 17.775-17.775v-52.783c0-9.819-7.958-17.775-17.775-17.775z" />
<glyph unicode="&#xe93f;" glyph-name="android" d="M771.731 621.932h-519.462c-11.555 0-20.922-9.367-20.922-20.922v-435.611c0-11.555 9.367-20.922 20.922-20.922h92.608v-146.802c0-34.061 27.612-61.675 61.675-61.675v0c34.061 0 61.675 27.612 61.675 61.675v146.802h86.263v-146.802c0-34.061 27.612-61.675 61.675-61.675v0c34.061 0 61.675 27.612 61.675 61.675v146.802h93.894c11.555 0 20.922 9.367 20.922 20.922v435.611c-0.002 11.555-9.369 20.922-20.924 20.922zM143.402 622.033v0c-34.061 0-61.675-27.612-61.675-61.675v-250.499c0-34.061 27.612-61.675 61.675-61.675v0c34.061 0 61.675 27.612 61.675 61.675v250.499c-0.002 34.061-27.614 61.675-61.675 61.675zM880.598 622.033v0c-34.061 0-61.675-27.612-61.675-61.675v-250.499c0-34.061 27.612-61.675 61.675-61.675v0c34.061 0 61.675 27.612 61.675 61.675v250.499c0 34.061-27.612 61.675-61.675 61.675zM256.473 652.483h509.828c13.3 0 23.219 12.252 20.488 25.269-16.864 80.376-68.037 148.111-137.475 187.241l43.584 78.638c2.95 5.324 1.026 12.034-4.298 14.983-5.336 2.957-12.036 1.026-14.986-4.298l-43.913-79.231c-35.967 16.691-76.051 26.013-118.313 26.013-42.265 0-82.349-9.322-118.316-26.013l-43.913 79.233c-2.952 5.327-9.662 7.247-14.983 4.298-5.324-2.95-7.247-9.659-4.298-14.983l43.584-78.638c-69.438-39.132-120.611-106.865-137.475-187.243-2.734-13.018 7.185-25.269 20.488-25.269zM663.513 769.678c0-13.092-10.613-23.708-23.708-23.708-13.092 0-23.708 10.613-23.708 23.708 0 13.092 10.613 23.708 23.708 23.708s23.708-10.616 23.708-23.708zM382.963 793.386c13.092 0 23.708-10.613 23.708-23.708 0-13.092-10.613-23.708-23.708-23.708-13.092 0-23.708 10.613-23.708 23.708 0 13.092 10.613 23.708 23.708 23.708z" />
<glyph unicode="&#xe940;" d="M777.3 350.203l-30.513 47.158c-9.405 14.533-14.407 31.475-14.407 48.786v198.082c0 79.068 5.729 247.522-220.017 247.522-183.645 0-240.434-97.87-257.993-158.404-6.972-24.032 9.411-48.502 34.302-51.071l71.179-7.344c16.754-1.728 32.82 7.165 40.087 22.359 13.798 28.86 37.849 71.84 112.067 71.84 28.753 0 69.184-12.161 69.184-47.717 0-51.591-0.069-76.042-0.069-76.042v0c0.193-10.766-8.482-19.601-19.251-19.601h-69.572c-52.495 0-251.972-26.92-251.972-226.397s211.67-176.525 225.724-173.232c26.22 6.145 75.345 24.087 121.514 68.112 7.757 7.396 20.133 6.751 26.87-1.585l37.281-46.135c14.492-17.934 41.15-19.819 58.023-4.106l61.283 57.078c14.106 13.142 16.754 34.509 6.28 50.696zM471.295 361.319c-70.867 0-68.847 64.072-52.495 94.489 15.299 28.46 55.722 78.911 164.243 82.347l0.951-52.942c0.708-39.354-17.396-77.156-49.588-99.804-19.945-14.037-41.707-24.090-63.11-24.090z" />
<glyph unicode="&#xe941;" d="M4.227 179.176c-10.777 9.738 0.951 26.986 13.979 20.568 91.568-45.107 263.954-114.845 454.505-114.845 194.729 0 357.635 46.513 439.627 75.218 13.332 4.668 22.938-12.784 11.962-21.676-65.050-52.685-204.745-134.192-446.469-134.192-240.817 0-397.245 105.922-473.604 174.926z" />
<glyph unicode="&#xe942;" d="M826.521 207.565c25.402 18.807 88.512 51.23 182.832 22.88 8.667-2.604 14.575-10.623 14.641-19.673 0.229-30.943-6.44-103.593-67.012-163.967-4.205-4.191-11.287-0.077-9.73 5.655 10.345 38.094 31.373 119.805 24.702 131.205-7.65 13.070-103.241 13.693-141.972 13.404-5.652-0.044-8.002 7.134-3.461 10.496z" />
<glyph unicode="&#xe943;" glyph-name="youtube" d="M811.328 810.303h-598.657c-117.455 0-212.672-95.216-212.672-212.672v-299.265c0-117.455 95.216-212.672 212.672-212.672h598.657c117.455 0 212.672 95.216 212.672 212.672v299.265c0 117.455-95.216 212.672-212.672 212.672zM667.5 433.439l-280.011-133.548c-7.461-3.558-16.080 1.881-16.080 10.147v275.444c0 8.383 8.845 13.816 16.322 10.027l280.011-141.896c8.325-4.218 8.181-16.157-0.242-20.173z" />
<glyph unicode="&#xe944;" glyph-name="yelp" d="M428.902 238.535l-141.584-172.414c-19.921-24.257-10.403-60.891 18.804-72.387l138.42-54.481c29.861-11.753 62.322 9.734 63.171 41.814l5.968 225.846c1.203 45.527-55.877 66.816-84.779 31.622zM405.37 409.931l-209.975 75.389c-29.544 10.608-60.846-10.669-61.854-42.044l-4.779-148.678c-1.032-32.075 30.117-55.426 60.616-45.438l214.709 70.297c43.283 14.169 44.145 75.085 1.283 90.474zM646.018 385.739l215.078 59.28c30.261 8.34 43.6 43.76 26.359 69.992l-81.709 124.303c-17.627 26.815-56.54 27.969-75.722 2.242l-135.057-181.113c-27.226-36.508 7.148-86.808 51.051-74.705zM490.26 902.574c1.711 37.2-33.342 65.263-69.268 55.451l-170.244-46.494c-36.727-10.030-52.325-53.5-30.355-84.593l195.367-338.472c1.587-2.748 3.335-5.411 5.392-7.83 28.933-34 83.249-21.402 96.637 18.4 2.405 7.15 3.082 14.771 2.489 22.292l-30.019 381.245zM862.565 231.018l-215.974 66.316c-43.534 13.367-79.352-35.914-53.195-73.196l128.13-182.636c18.026-25.696 55.872-26.352 74.777-1.295l89.602 118.739c19.331 25.616 7.336 62.651-23.341 72.072z" />
</font>
</defs>
</svg>
